<svg width="32" height="32" viewBox="0 0 32 32" fill="none" xmlns="http://www.w3.org/2000/svg">
<path d="M1 16C1 17.9698 1.38799 19.9204 2.14181 21.7403C2.89563 23.5601 4.00052 25.2137 5.3934 26.6066C6.78628 27.9995 8.43986 29.1044 10.2597 29.8582C12.0796 30.612 14.0302 31 16 31C17.9698 31 19.9204 30.612 21.7403 29.8582C23.5601 29.1044 25.2137 27.9995 26.6066 26.6066C27.9995 25.2137 29.1044 23.5601 29.8582 21.7403C30.612 19.9204 31 17.9698 31 16C31 14.0302 30.612 12.0796 29.8582 10.2597C29.1044 8.43986 27.9995 6.78628 26.6066 5.3934C25.2137 4.00052 23.5601 2.89563 21.7403 2.14181C19.9204 1.38799 17.9698 1 16 1C14.0302 1 12.0796 1.38799 10.2597 2.14181C8.43986 2.89563 6.78628 4.00052 5.3934 5.3934C4.00052 6.78628 2.89563 8.43986 2.14181 10.2597C1.38799 12.0796 1 14.0302 1 16Z" stroke="#37474F" stroke-width="2" stroke-linecap="round" stroke-linejoin="round"/>
<path d="M6.28027 27.415C6.69279 26.0421 7.53689 24.8387 8.68735 23.9833C9.83781 23.128 11.2334 22.6663 12.6669 22.6667H19.3336C20.769 22.6662 22.1663 23.129 23.3176 23.9863C24.4689 24.8436 25.3127 26.0497 25.7236 27.425M11.0003 12.6667C11.0003 13.9928 11.5271 15.2645 12.4647 16.2022C13.4024 17.1399 14.6742 17.6667 16.0003 17.6667C17.3264 17.6667 18.5981 17.1399 19.5358 16.2022C20.4735 15.2645 21.0003 13.9928 21.0003 12.6667C21.0003 11.3406 20.4735 10.0688 19.5358 9.13115C18.5981 8.19347 17.3264 7.66669 16.0003 7.66669C14.6742 7.66669 13.4024 8.19347 12.4647 9.13115C11.5271 10.0688 11.0003 11.3406 11.0003 12.6667Z" stroke="#37474F" stroke-width="2" stroke-linecap="round" stroke-linejoin="round"/>
</svg>
