<svg width="30" height="30" viewBox="0 0 30 30" fill="none" xmlns="http://www.w3.org/2000/svg">
<path d="M27.2733 2.72669C27.8983 3.35178 28.2493 4.19947 28.2493 5.08335C28.2493 5.96724 27.8983 6.81493 27.2733 7.44002C27.9871 9.43358 28.1449 11.5838 27.7298 13.6602C27.3146 15.7366 26.3422 17.6609 24.9167 19.2267L21.38 22.76C20.7359 23.5815 20.2937 24.5428 20.0891 25.5664C19.8844 26.59 19.923 27.6474 20.2017 28.6534L1.34668 9.80002C2.35242 10.0784 3.40948 10.1169 4.43278 9.91221C5.45609 9.70755 6.41706 9.26552 7.23835 8.62169L10.7733 5.08335C12.3392 3.65788 14.2634 2.68544 16.3398 2.27027C18.4162 1.85511 20.5665 2.01289 22.56 2.72669C23.1851 2.10178 24.0328 1.75073 24.9167 1.75073C25.8006 1.75073 26.6483 2.10178 27.2733 2.72669Z" stroke="#37474F" stroke-width="2" stroke-linecap="round" stroke-linejoin="round"/>
<path d="M7.23863 15.69L6.06029 16.8683C5.12253 17.8061 4.5957 19.078 4.5957 20.4042C4.5957 21.7304 5.12253 23.0022 6.06029 23.94C6.99805 24.8778 8.26993 25.4046 9.59613 25.4046C10.9223 25.4046 12.1942 24.8778 13.132 23.94L14.3103 22.7617" stroke="#37474F" stroke-width="2" stroke-linecap="round" stroke-linejoin="round"/>
</svg>
