<svg width="132" height="32" viewBox="0 0 132 32" fill="none" xmlns="http://www.w3.org/2000/svg">
<path d="M6.73 8.2C9.066 8.2 10.858 8.648 12.106 9.544C13.37 10.424 14.002 11.744 14.002 13.504C14.002 14.464 13.826 15.288 13.474 15.976C13.138 16.648 12.642 17.2 11.986 17.632C11.346 18.048 10.562 18.352 9.634 18.544C8.706 18.736 7.658 18.832 6.49 18.832H4.642V25H2.314V8.608C2.97 8.448 3.698 8.344 4.498 8.296C5.314 8.232 6.058 8.2 6.73 8.2ZM6.922 10.24C5.93 10.24 5.17 10.264 4.642 10.312V16.84H6.394C7.194 16.84 7.914 16.792 8.554 16.696C9.194 16.584 9.73 16.408 10.162 16.168C10.61 15.912 10.954 15.568 11.194 15.136C11.434 14.704 11.554 14.152 11.554 13.48C11.554 12.84 11.426 12.312 11.17 11.896C10.93 11.48 10.594 11.152 10.162 10.912C9.746 10.656 9.258 10.48 8.698 10.384C8.138 10.288 7.546 10.24 6.922 10.24ZM20.5503 23.392C21.0783 23.392 21.5423 23.384 21.9423 23.368C22.3583 23.336 22.7023 23.288 22.9743 23.224V19.504C22.8143 19.424 22.5503 19.36 22.1823 19.312C21.8303 19.248 21.3983 19.216 20.8863 19.216C20.5503 19.216 20.1903 19.24 19.8063 19.288C19.4383 19.336 19.0943 19.44 18.7743 19.6C18.4703 19.744 18.2143 19.952 18.0063 20.224C17.7983 20.48 17.6943 20.824 17.6943 21.256C17.6943 22.056 17.9503 22.616 18.4623 22.936C18.9743 23.24 19.6703 23.392 20.5503 23.392ZM20.3583 12.208C21.2543 12.208 22.0063 12.328 22.6143 12.568C23.2383 12.792 23.7343 13.12 24.1023 13.552C24.4863 13.968 24.7583 14.472 24.9183 15.064C25.0783 15.64 25.1583 16.28 25.1583 16.984V24.784C24.9663 24.816 24.6943 24.864 24.3423 24.928C24.0063 24.976 23.6223 25.024 23.1903 25.072C22.7583 25.12 22.2863 25.16 21.7743 25.192C21.2783 25.24 20.7823 25.264 20.2863 25.264C19.5823 25.264 18.9343 25.192 18.3423 25.048C17.7503 24.904 17.2383 24.68 16.8063 24.376C16.3743 24.056 16.0383 23.64 15.7983 23.128C15.5583 22.616 15.4383 22 15.4383 21.28C15.4383 20.592 15.5743 20 15.8463 19.504C16.1343 19.008 16.5183 18.608 16.9983 18.304C17.4783 18 18.0383 17.776 18.6783 17.632C19.3183 17.488 19.9903 17.416 20.6943 17.416C20.9183 17.416 21.1503 17.432 21.3903 17.464C21.6303 17.48 21.8543 17.512 22.0623 17.56C22.2863 17.592 22.4783 17.624 22.6383 17.656C22.7983 17.688 22.9103 17.712 22.9743 17.728V17.104C22.9743 16.736 22.9343 16.376 22.8543 16.024C22.7743 15.656 22.6303 15.336 22.4223 15.064C22.2143 14.776 21.9263 14.552 21.5583 14.392C21.2063 14.216 20.7423 14.128 20.1663 14.128C19.4303 14.128 18.7823 14.184 18.2223 14.296C17.6783 14.392 17.2703 14.496 16.9983 14.608L16.7343 12.76C17.0223 12.632 17.5023 12.512 18.1743 12.4C18.8463 12.272 19.5743 12.208 20.3583 12.208ZM33.4733 12.256C33.6653 12.256 33.8813 12.272 34.1213 12.304C34.3773 12.32 34.6253 12.352 34.8653 12.4C35.1053 12.432 35.3213 12.472 35.5133 12.52C35.7213 12.552 35.8733 12.584 35.9693 12.616L35.5853 14.56C35.4093 14.496 35.1133 14.424 34.6973 14.344C34.2973 14.248 33.7773 14.2 33.1373 14.2C32.7213 14.2 32.3053 14.248 31.8893 14.344C31.4893 14.424 31.2253 14.48 31.0973 14.512V25H28.8653V13.048C29.3933 12.856 30.0493 12.68 30.8333 12.52C31.6173 12.344 32.4973 12.256 33.4733 12.256ZM42.6351 18.136C43.1151 18.504 43.6191 18.96 44.1471 19.504C44.6911 20.048 45.2191 20.64 45.7311 21.28C46.2591 21.904 46.7551 22.544 47.2191 23.2C47.6831 23.84 48.0751 24.44 48.3951 25H45.7791C45.4431 24.44 45.0511 23.872 44.6031 23.296C44.1711 22.704 43.7151 22.144 43.2351 21.616C42.7551 21.072 42.2671 20.576 41.7711 20.128C41.2751 19.68 40.8031 19.304 40.3551 19V25H38.1231V6.76L40.3551 6.376V17.752C40.7391 17.368 41.1631 16.944 41.6271 16.48C42.0911 16.016 42.5471 15.544 42.9951 15.064C43.4431 14.584 43.8671 14.128 44.2671 13.696C44.6671 13.248 45.0111 12.856 45.2991 12.52H47.9151C47.5471 12.92 47.1471 13.36 46.7151 13.84C46.2831 14.32 45.8351 14.808 45.3711 15.304C44.9071 15.784 44.4351 16.272 43.9551 16.768C43.4911 17.248 43.0511 17.704 42.6351 18.136Z" fill="#E2EBF2"/>
<path d="M67.178 23.344C69.61 23.344 70.826 22.512 70.826 20.848C70.826 20.336 70.714 19.904 70.49 19.552C70.282 19.184 69.994 18.872 69.626 18.616C69.258 18.344 68.834 18.112 68.354 17.92C67.89 17.728 67.394 17.536 66.866 17.344C66.258 17.136 65.682 16.904 65.138 16.648C64.594 16.376 64.122 16.064 63.722 15.712C63.322 15.344 63.002 14.912 62.762 14.416C62.538 13.92 62.426 13.32 62.426 12.616C62.426 11.16 62.922 10.024 63.914 9.208C64.906 8.392 66.274 7.984 68.018 7.984C69.026 7.984 69.938 8.096 70.754 8.32C71.586 8.528 72.194 8.76 72.578 9.016L71.834 10.912C71.498 10.704 70.994 10.504 70.322 10.312C69.666 10.104 68.898 10 68.018 10C67.57 10 67.154 10.048 66.77 10.144C66.386 10.24 66.05 10.384 65.762 10.576C65.474 10.768 65.242 11.016 65.066 11.32C64.906 11.608 64.826 11.952 64.826 12.352C64.826 12.8 64.914 13.176 65.09 13.48C65.266 13.784 65.514 14.056 65.834 14.296C66.154 14.52 66.522 14.728 66.938 14.92C67.37 15.112 67.842 15.304 68.354 15.496C69.074 15.784 69.73 16.072 70.322 16.36C70.93 16.648 71.45 16.992 71.882 17.392C72.33 17.792 72.674 18.272 72.914 18.832C73.154 19.376 73.274 20.04 73.274 20.824C73.274 22.28 72.738 23.4 71.666 24.184C70.61 24.968 69.114 25.36 67.178 25.36C66.522 25.36 65.914 25.312 65.354 25.216C64.81 25.136 64.322 25.04 63.89 24.928C63.458 24.8 63.082 24.672 62.762 24.544C62.458 24.4 62.218 24.28 62.042 24.184L62.738 22.264C63.106 22.472 63.666 22.704 64.418 22.96C65.17 23.216 66.09 23.344 67.178 23.344ZM75.9434 25V6.76L78.1754 6.376V12.76C78.5914 12.6 79.0314 12.48 79.4954 12.4C79.9754 12.304 80.4474 12.256 80.9114 12.256C81.9034 12.256 82.7274 12.4 83.3834 12.688C84.0394 12.96 84.5594 13.352 84.9434 13.864C85.3434 14.36 85.6234 14.96 85.7834 15.664C85.9434 16.368 86.0234 17.144 86.0234 17.992V25H83.7914V18.472C83.7914 17.704 83.7354 17.048 83.6234 16.504C83.5274 15.96 83.3594 15.52 83.1194 15.184C82.8794 14.848 82.5594 14.608 82.1594 14.464C81.7594 14.304 81.2634 14.224 80.6714 14.224C80.4314 14.224 80.1834 14.24 79.9274 14.272C79.6714 14.304 79.4234 14.344 79.1834 14.392C78.9594 14.424 78.7514 14.464 78.5594 14.512C78.3834 14.56 78.2554 14.6 78.1754 14.632V25H75.9434ZM93.8784 23.392C94.4064 23.392 94.8704 23.384 95.2704 23.368C95.6864 23.336 96.0304 23.288 96.3024 23.224V19.504C96.1424 19.424 95.8784 19.36 95.5104 19.312C95.1584 19.248 94.7264 19.216 94.2144 19.216C93.8784 19.216 93.5184 19.24 93.1344 19.288C92.7664 19.336 92.4224 19.44 92.1024 19.6C91.7984 19.744 91.5424 19.952 91.3344 20.224C91.1264 20.48 91.0224 20.824 91.0224 21.256C91.0224 22.056 91.2784 22.616 91.7904 22.936C92.3024 23.24 92.9984 23.392 93.8784 23.392ZM93.6864 12.208C94.5824 12.208 95.3344 12.328 95.9424 12.568C96.5664 12.792 97.0624 13.12 97.4304 13.552C97.8144 13.968 98.0864 14.472 98.2464 15.064C98.4064 15.64 98.4864 16.28 98.4864 16.984V24.784C98.2944 24.816 98.0224 24.864 97.6704 24.928C97.3344 24.976 96.9504 25.024 96.5184 25.072C96.0864 25.12 95.6144 25.16 95.1024 25.192C94.6064 25.24 94.1104 25.264 93.6144 25.264C92.9104 25.264 92.2624 25.192 91.6704 25.048C91.0784 24.904 90.5664 24.68 90.1344 24.376C89.7024 24.056 89.3664 23.64 89.1264 23.128C88.8864 22.616 88.7664 22 88.7664 21.28C88.7664 20.592 88.9024 20 89.1744 19.504C89.4624 19.008 89.8464 18.608 90.3264 18.304C90.8064 18 91.3664 17.776 92.0064 17.632C92.6464 17.488 93.3184 17.416 94.0224 17.416C94.2464 17.416 94.4784 17.432 94.7184 17.464C94.9584 17.48 95.1824 17.512 95.3904 17.56C95.6144 17.592 95.8064 17.624 95.9664 17.656C96.1264 17.688 96.2384 17.712 96.3024 17.728V17.104C96.3024 16.736 96.2624 16.376 96.1824 16.024C96.1024 15.656 95.9584 15.336 95.7504 15.064C95.5424 14.776 95.2544 14.552 94.8864 14.392C94.5344 14.216 94.0704 14.128 93.4944 14.128C92.7584 14.128 92.1104 14.184 91.5504 14.296C91.0064 14.392 90.5984 14.496 90.3264 14.608L90.0624 12.76C90.3504 12.632 90.8304 12.512 91.5024 12.4C92.1744 12.272 92.9024 12.208 93.6864 12.208ZM106.801 12.256C106.993 12.256 107.209 12.272 107.449 12.304C107.705 12.32 107.953 12.352 108.193 12.4C108.433 12.432 108.649 12.472 108.841 12.52C109.049 12.552 109.201 12.584 109.297 12.616L108.913 14.56C108.737 14.496 108.441 14.424 108.025 14.344C107.625 14.248 107.105 14.2 106.465 14.2C106.049 14.2 105.633 14.248 105.217 14.344C104.817 14.424 104.553 14.48 104.425 14.512V25H102.193V13.048C102.721 12.856 103.377 12.68 104.161 12.52C104.945 12.344 105.825 12.256 106.801 12.256ZM110.755 18.784C110.755 17.68 110.915 16.72 111.235 15.904C111.555 15.072 111.979 14.384 112.507 13.84C113.035 13.296 113.643 12.888 114.331 12.616C115.019 12.344 115.723 12.208 116.443 12.208C118.123 12.208 119.411 12.736 120.307 13.792C121.203 14.832 121.651 16.424 121.651 18.568C121.651 18.664 121.651 18.792 121.651 18.952C121.651 19.096 121.643 19.232 121.627 19.36H113.083C113.179 20.656 113.555 21.64 114.211 22.312C114.867 22.984 115.891 23.32 117.283 23.32C118.067 23.32 118.723 23.256 119.251 23.128C119.795 22.984 120.203 22.848 120.475 22.72L120.787 24.592C120.515 24.736 120.035 24.888 119.347 25.048C118.675 25.208 117.907 25.288 117.043 25.288C115.955 25.288 115.011 25.128 114.211 24.808C113.427 24.472 112.779 24.016 112.267 23.44C111.755 22.864 111.371 22.184 111.115 21.4C110.875 20.6 110.755 19.728 110.755 18.784ZM119.323 17.56C119.339 16.552 119.083 15.728 118.555 15.088C118.043 14.432 117.331 14.104 116.419 14.104C115.907 14.104 115.451 14.208 115.051 14.416C114.667 14.608 114.339 14.864 114.067 15.184C113.795 15.504 113.579 15.872 113.419 16.288C113.275 16.704 113.179 17.128 113.131 17.56H119.323Z" fill="#E2EBF2"/>
<rect x="54" y="0.75" width="76.5" height="30.5" rx="3.25" stroke="#E2EBF2" stroke-width="1.5"/>
</svg>
