<svg width="131" height="32" viewBox="0 0 131 32" fill="none" xmlns="http://www.w3.org/2000/svg">
<path d="M6.48 8.2C8.816 8.2 10.608 8.648 11.856 9.544C13.12 10.424 13.752 11.744 13.752 13.504C13.752 14.464 13.576 15.288 13.224 15.976C12.888 16.648 12.392 17.2 11.736 17.632C11.096 18.048 10.312 18.352 9.384 18.544C8.456 18.736 7.408 18.832 6.24 18.832H4.392V25H2.064V8.608C2.72 8.448 3.448 8.344 4.248 8.296C5.064 8.232 5.808 8.2 6.48 8.2ZM6.672 10.24C5.68 10.24 4.92 10.264 4.392 10.312V16.84H6.144C6.944 16.84 7.664 16.792 8.304 16.696C8.944 16.584 9.48 16.408 9.912 16.168C10.36 15.912 10.704 15.568 10.944 15.136C11.184 14.704 11.304 14.152 11.304 13.48C11.304 12.84 11.176 12.312 10.92 11.896C10.68 11.48 10.344 11.152 9.912 10.912C9.496 10.656 9.008 10.48 8.448 10.384C7.888 10.288 7.296 10.24 6.672 10.24ZM20.3003 23.392C20.8283 23.392 21.2923 23.384 21.6923 23.368C22.1083 23.336 22.4523 23.288 22.7243 23.224V19.504C22.5643 19.424 22.3003 19.36 21.9323 19.312C21.5803 19.248 21.1483 19.216 20.6363 19.216C20.3003 19.216 19.9403 19.24 19.5563 19.288C19.1883 19.336 18.8443 19.44 18.5243 19.6C18.2203 19.744 17.9643 19.952 17.7563 20.224C17.5483 20.48 17.4443 20.824 17.4443 21.256C17.4443 22.056 17.7003 22.616 18.2123 22.936C18.7243 23.24 19.4203 23.392 20.3003 23.392ZM20.1083 12.208C21.0043 12.208 21.7563 12.328 22.3643 12.568C22.9883 12.792 23.4843 13.12 23.8523 13.552C24.2363 13.968 24.5083 14.472 24.6683 15.064C24.8283 15.64 24.9083 16.28 24.9083 16.984V24.784C24.7163 24.816 24.4443 24.864 24.0923 24.928C23.7563 24.976 23.3723 25.024 22.9403 25.072C22.5083 25.12 22.0363 25.16 21.5243 25.192C21.0283 25.24 20.5323 25.264 20.0363 25.264C19.3323 25.264 18.6843 25.192 18.0923 25.048C17.5003 24.904 16.9883 24.68 16.5563 24.376C16.1243 24.056 15.7883 23.64 15.5483 23.128C15.3083 22.616 15.1883 22 15.1883 21.28C15.1883 20.592 15.3243 20 15.5963 19.504C15.8843 19.008 16.2683 18.608 16.7483 18.304C17.2283 18 17.7883 17.776 18.4283 17.632C19.0683 17.488 19.7403 17.416 20.4443 17.416C20.6683 17.416 20.9003 17.432 21.1403 17.464C21.3803 17.48 21.6043 17.512 21.8123 17.56C22.0363 17.592 22.2283 17.624 22.3883 17.656C22.5483 17.688 22.6603 17.712 22.7243 17.728V17.104C22.7243 16.736 22.6843 16.376 22.6043 16.024C22.5243 15.656 22.3803 15.336 22.1723 15.064C21.9643 14.776 21.6763 14.552 21.3083 14.392C20.9563 14.216 20.4923 14.128 19.9163 14.128C19.1803 14.128 18.5323 14.184 17.9723 14.296C17.4283 14.392 17.0203 14.496 16.7483 14.608L16.4843 12.76C16.7723 12.632 17.2523 12.512 17.9243 12.4C18.5963 12.272 19.3243 12.208 20.1083 12.208ZM33.2233 12.256C33.4153 12.256 33.6313 12.272 33.8713 12.304C34.1273 12.32 34.3753 12.352 34.6153 12.4C34.8553 12.432 35.0713 12.472 35.2633 12.52C35.4713 12.552 35.6233 12.584 35.7193 12.616L35.3353 14.56C35.1593 14.496 34.8633 14.424 34.4473 14.344C34.0473 14.248 33.5273 14.2 32.8873 14.2C32.4713 14.2 32.0553 14.248 31.6393 14.344C31.2393 14.424 30.9753 14.48 30.8473 14.512V25H28.6153V13.048C29.1433 12.856 29.7993 12.68 30.5833 12.52C31.3673 12.344 32.2473 12.256 33.2233 12.256ZM42.3851 18.136C42.8651 18.504 43.3691 18.96 43.8971 19.504C44.4411 20.048 44.9691 20.64 45.4811 21.28C46.0091 21.904 46.5051 22.544 46.9691 23.2C47.4331 23.84 47.8251 24.44 48.1451 25H45.5291C45.1931 24.44 44.8011 23.872 44.3531 23.296C43.9211 22.704 43.4651 22.144 42.9851 21.616C42.5051 21.072 42.0171 20.576 41.5211 20.128C41.0251 19.68 40.5531 19.304 40.1051 19V25H37.8731V6.76L40.1051 6.376V17.752C40.4891 17.368 40.9131 16.944 41.3771 16.48C41.8411 16.016 42.2971 15.544 42.7451 15.064C43.1931 14.584 43.6171 14.128 44.0171 13.696C44.4171 13.248 44.7611 12.856 45.0491 12.52H47.6651C47.2971 12.92 46.8971 13.36 46.4651 13.84C46.0331 14.32 45.5851 14.808 45.1211 15.304C44.6571 15.784 44.1851 16.272 43.7051 16.768C43.2411 17.248 42.8011 17.704 42.3851 18.136Z" fill="#5F6982"/>
<path d="M66.928 23.344C69.36 23.344 70.576 22.512 70.576 20.848C70.576 20.336 70.464 19.904 70.24 19.552C70.032 19.184 69.744 18.872 69.376 18.616C69.008 18.344 68.584 18.112 68.104 17.92C67.64 17.728 67.144 17.536 66.616 17.344C66.008 17.136 65.432 16.904 64.888 16.648C64.344 16.376 63.872 16.064 63.472 15.712C63.072 15.344 62.752 14.912 62.512 14.416C62.288 13.92 62.176 13.32 62.176 12.616C62.176 11.16 62.672 10.024 63.664 9.208C64.656 8.392 66.024 7.984 67.768 7.984C68.776 7.984 69.688 8.096 70.504 8.32C71.336 8.528 71.944 8.76 72.328 9.016L71.584 10.912C71.248 10.704 70.744 10.504 70.072 10.312C69.416 10.104 68.648 10 67.768 10C67.32 10 66.904 10.048 66.52 10.144C66.136 10.24 65.8 10.384 65.512 10.576C65.224 10.768 64.992 11.016 64.816 11.32C64.656 11.608 64.576 11.952 64.576 12.352C64.576 12.8 64.664 13.176 64.84 13.48C65.016 13.784 65.264 14.056 65.584 14.296C65.904 14.52 66.272 14.728 66.688 14.92C67.12 15.112 67.592 15.304 68.104 15.496C68.824 15.784 69.48 16.072 70.072 16.36C70.68 16.648 71.2 16.992 71.632 17.392C72.08 17.792 72.424 18.272 72.664 18.832C72.904 19.376 73.024 20.04 73.024 20.824C73.024 22.28 72.488 23.4 71.416 24.184C70.36 24.968 68.864 25.36 66.928 25.36C66.272 25.36 65.664 25.312 65.104 25.216C64.56 25.136 64.072 25.04 63.64 24.928C63.208 24.8 62.832 24.672 62.512 24.544C62.208 24.4 61.968 24.28 61.792 24.184L62.488 22.264C62.856 22.472 63.416 22.704 64.168 22.96C64.92 23.216 65.84 23.344 66.928 23.344ZM75.6934 25V6.76L77.9254 6.376V12.76C78.3414 12.6 78.7814 12.48 79.2454 12.4C79.7254 12.304 80.1974 12.256 80.6614 12.256C81.6534 12.256 82.4774 12.4 83.1334 12.688C83.7894 12.96 84.3094 13.352 84.6934 13.864C85.0934 14.36 85.3734 14.96 85.5334 15.664C85.6934 16.368 85.7734 17.144 85.7734 17.992V25H83.5414V18.472C83.5414 17.704 83.4854 17.048 83.3734 16.504C83.2774 15.96 83.1094 15.52 82.8694 15.184C82.6294 14.848 82.3094 14.608 81.9094 14.464C81.5094 14.304 81.0134 14.224 80.4214 14.224C80.1814 14.224 79.9334 14.24 79.6774 14.272C79.4214 14.304 79.1734 14.344 78.9334 14.392C78.7094 14.424 78.5014 14.464 78.3094 14.512C78.1334 14.56 78.0054 14.6 77.9254 14.632V25H75.6934ZM93.6284 23.392C94.1564 23.392 94.6204 23.384 95.0204 23.368C95.4364 23.336 95.7804 23.288 96.0524 23.224V19.504C95.8924 19.424 95.6284 19.36 95.2604 19.312C94.9084 19.248 94.4764 19.216 93.9644 19.216C93.6284 19.216 93.2684 19.24 92.8844 19.288C92.5164 19.336 92.1724 19.44 91.8524 19.6C91.5484 19.744 91.2924 19.952 91.0844 20.224C90.8764 20.48 90.7724 20.824 90.7724 21.256C90.7724 22.056 91.0284 22.616 91.5404 22.936C92.0524 23.24 92.7484 23.392 93.6284 23.392ZM93.4364 12.208C94.3324 12.208 95.0844 12.328 95.6924 12.568C96.3164 12.792 96.8124 13.12 97.1804 13.552C97.5644 13.968 97.8364 14.472 97.9964 15.064C98.1564 15.64 98.2364 16.28 98.2364 16.984V24.784C98.0444 24.816 97.7724 24.864 97.4204 24.928C97.0844 24.976 96.7004 25.024 96.2684 25.072C95.8364 25.12 95.3644 25.16 94.8524 25.192C94.3564 25.24 93.8604 25.264 93.3644 25.264C92.6604 25.264 92.0124 25.192 91.4204 25.048C90.8284 24.904 90.3164 24.68 89.8844 24.376C89.4524 24.056 89.1164 23.64 88.8764 23.128C88.6364 22.616 88.5164 22 88.5164 21.28C88.5164 20.592 88.6524 20 88.9244 19.504C89.2124 19.008 89.5964 18.608 90.0764 18.304C90.5564 18 91.1164 17.776 91.7564 17.632C92.3964 17.488 93.0684 17.416 93.7724 17.416C93.9964 17.416 94.2284 17.432 94.4684 17.464C94.7084 17.48 94.9324 17.512 95.1404 17.56C95.3644 17.592 95.5564 17.624 95.7164 17.656C95.8764 17.688 95.9884 17.712 96.0524 17.728V17.104C96.0524 16.736 96.0124 16.376 95.9324 16.024C95.8524 15.656 95.7084 15.336 95.5004 15.064C95.2924 14.776 95.0044 14.552 94.6364 14.392C94.2844 14.216 93.8204 14.128 93.2444 14.128C92.5084 14.128 91.8604 14.184 91.3004 14.296C90.7564 14.392 90.3484 14.496 90.0764 14.608L89.8124 12.76C90.1004 12.632 90.5804 12.512 91.2524 12.4C91.9244 12.272 92.6524 12.208 93.4364 12.208ZM106.551 12.256C106.743 12.256 106.959 12.272 107.199 12.304C107.455 12.32 107.703 12.352 107.943 12.4C108.183 12.432 108.399 12.472 108.591 12.52C108.799 12.552 108.951 12.584 109.047 12.616L108.663 14.56C108.487 14.496 108.191 14.424 107.775 14.344C107.375 14.248 106.855 14.2 106.215 14.2C105.799 14.2 105.383 14.248 104.967 14.344C104.567 14.424 104.303 14.48 104.175 14.512V25H101.943V13.048C102.471 12.856 103.127 12.68 103.911 12.52C104.695 12.344 105.575 12.256 106.551 12.256ZM110.505 18.784C110.505 17.68 110.665 16.72 110.985 15.904C111.305 15.072 111.729 14.384 112.257 13.84C112.785 13.296 113.393 12.888 114.081 12.616C114.769 12.344 115.473 12.208 116.193 12.208C117.873 12.208 119.161 12.736 120.057 13.792C120.953 14.832 121.401 16.424 121.401 18.568C121.401 18.664 121.401 18.792 121.401 18.952C121.401 19.096 121.393 19.232 121.377 19.36H112.833C112.929 20.656 113.305 21.64 113.961 22.312C114.617 22.984 115.641 23.32 117.033 23.32C117.817 23.32 118.473 23.256 119.001 23.128C119.545 22.984 119.953 22.848 120.225 22.72L120.537 24.592C120.265 24.736 119.785 24.888 119.097 25.048C118.425 25.208 117.657 25.288 116.793 25.288C115.705 25.288 114.761 25.128 113.961 24.808C113.177 24.472 112.529 24.016 112.017 23.44C111.505 22.864 111.121 22.184 110.865 21.4C110.625 20.6 110.505 19.728 110.505 18.784ZM119.073 17.56C119.089 16.552 118.833 15.728 118.305 15.088C117.793 14.432 117.081 14.104 116.169 14.104C115.657 14.104 115.201 14.208 114.801 14.416C114.417 14.608 114.089 14.864 113.817 15.184C113.545 15.504 113.329 15.872 113.169 16.288C113.025 16.704 112.929 17.128 112.881 17.56H119.073Z" fill="#5F6982"/>
<rect x="53.75" y="0.75" width="76.5" height="30.5" rx="3.25" stroke="#5F6982" stroke-width="1.5"/>
</svg>
