<svg width="169" height="41" viewBox="0 0 169 41" fill="none" xmlns="http://www.w3.org/2000/svg">
<path d="M8.64 9.6C11.7547 9.6 14.144 10.1973 15.808 11.392C17.4933 12.5653 18.336 14.3253 18.336 16.672C18.336 17.952 18.1013 19.0507 17.632 19.968C17.184 20.864 16.5227 21.6 15.648 22.176C14.7947 22.7307 13.7493 23.136 12.512 23.392C11.2747 23.648 9.87733 23.776 8.32 23.776H5.856V32H2.752V10.144C3.62667 9.93067 4.59733 9.792 5.664 9.728C6.752 9.64267 7.744 9.6 8.64 9.6ZM8.896 12.32C7.57333 12.32 6.56 12.352 5.856 12.416V21.12H8.192C9.25867 21.12 10.2187 21.056 11.072 20.928C11.9253 20.7787 12.64 20.544 13.216 20.224C13.8133 19.8827 14.272 19.424 14.592 18.848C14.912 18.272 15.072 17.536 15.072 16.64C15.072 15.7867 14.9013 15.0827 14.56 14.528C14.24 13.9733 13.792 13.536 13.216 13.216C12.6613 12.8747 12.0107 12.64 11.264 12.512C10.5173 12.384 9.728 12.32 8.896 12.32ZM27.067 29.856C27.771 29.856 28.3897 29.8453 28.923 29.824C29.4777 29.7813 29.9363 29.7173 30.299 29.632V24.672C30.0857 24.5653 29.7337 24.48 29.243 24.416C28.7737 24.3307 28.1977 24.288 27.515 24.288C27.067 24.288 26.587 24.32 26.075 24.384C25.5843 24.448 25.1257 24.5867 24.699 24.8C24.2937 24.992 23.9523 25.2693 23.675 25.632C23.3977 25.9733 23.259 26.432 23.259 27.008C23.259 28.0747 23.6003 28.8213 24.283 29.248C24.9657 29.6533 25.8937 29.856 27.067 29.856ZM26.811 14.944C28.0057 14.944 29.0083 15.104 29.819 15.424C30.651 15.7227 31.3123 16.16 31.803 16.736C32.315 17.2907 32.6777 17.9627 32.891 18.752C33.1043 19.52 33.211 20.3733 33.211 21.312V31.712C32.955 31.7547 32.5923 31.8187 32.123 31.904C31.675 31.968 31.163 32.032 30.587 32.096C30.011 32.16 29.3817 32.2133 28.699 32.256C28.0377 32.32 27.3763 32.352 26.715 32.352C25.7763 32.352 24.9123 32.256 24.123 32.064C23.3337 31.872 22.651 31.5733 22.075 31.168C21.499 30.7413 21.051 30.1867 20.731 29.504C20.411 28.8213 20.251 28 20.251 27.04C20.251 26.1227 20.4323 25.3333 20.795 24.672C21.179 24.0107 21.691 23.4773 22.331 23.072C22.971 22.6667 23.7177 22.368 24.571 22.176C25.4243 21.984 26.3203 21.888 27.259 21.888C27.5577 21.888 27.867 21.9093 28.187 21.952C28.507 21.9733 28.8057 22.016 29.083 22.08C29.3817 22.1227 29.6377 22.1653 29.851 22.208C30.0643 22.2507 30.2137 22.2827 30.299 22.304V21.472C30.299 20.9813 30.2457 20.5013 30.139 20.032C30.0323 19.5413 29.8403 19.1147 29.563 18.752C29.2857 18.368 28.9017 18.0693 28.411 17.856C27.9417 17.6213 27.323 17.504 26.555 17.504C25.5737 17.504 24.7097 17.5787 23.963 17.728C23.2377 17.856 22.6937 17.9947 22.331 18.144L21.979 15.68C22.363 15.5093 23.003 15.3493 23.899 15.2C24.795 15.0293 25.7657 14.944 26.811 14.944ZM44.2978 15.008C44.5538 15.008 44.8418 15.0293 45.1618 15.072C45.5031 15.0933 45.8338 15.136 46.1538 15.2C46.4738 15.2427 46.7618 15.296 47.0178 15.36C47.2951 15.4027 47.4978 15.4453 47.6258 15.488L47.1138 18.08C46.8791 17.9947 46.4844 17.8987 45.9298 17.792C45.3964 17.664 44.7031 17.6 43.8498 17.6C43.2951 17.6 42.7404 17.664 42.1858 17.792C41.6524 17.8987 41.3004 17.9733 41.1298 18.016V32H38.1538V16.064C38.8578 15.808 39.7324 15.5733 40.7778 15.36C41.8231 15.1253 42.9964 15.008 44.2978 15.008ZM56.5135 22.848C57.1535 23.3387 57.8255 23.9467 58.5295 24.672C59.2548 25.3973 59.9588 26.1867 60.6415 27.04C61.3455 27.872 62.0068 28.7253 62.6255 29.6C63.2442 30.4533 63.7668 31.2533 64.1935 32H60.7055C60.2575 31.2533 59.7348 30.496 59.1375 29.728C58.5615 28.9387 57.9535 28.192 57.3135 27.488C56.6735 26.7627 56.0228 26.1013 55.3615 25.504C54.7002 24.9067 54.0708 24.4053 53.4735 24V32H50.4975V7.68L53.4735 7.168V22.336C53.9855 21.824 54.5508 21.2587 55.1695 20.64C55.7882 20.0213 56.3962 19.392 56.9935 18.752C57.5908 18.112 58.1562 17.504 58.6895 16.928C59.2228 16.3307 59.6815 15.808 60.0655 15.36H63.5535C63.0628 15.8933 62.5295 16.48 61.9535 17.12C61.3775 17.76 60.7802 18.4107 60.1615 19.072C59.5428 19.712 58.9135 20.3627 58.2735 21.024C57.6548 21.664 57.0682 22.272 56.5135 22.848Z" fill="#028894"/>
<path d="M85.904 29.792C89.1467 29.792 90.768 28.6827 90.768 26.464C90.768 25.7813 90.6187 25.2053 90.32 24.736C90.0427 24.2453 89.6587 23.8293 89.168 23.488C88.6773 23.1253 88.112 22.816 87.472 22.56C86.8533 22.304 86.192 22.048 85.488 21.792C84.6773 21.5147 83.9093 21.2053 83.184 20.864C82.4587 20.5013 81.8293 20.0853 81.296 19.616C80.7627 19.1253 80.336 18.5493 80.016 17.888C79.7173 17.2267 79.568 16.4267 79.568 15.488C79.568 13.5467 80.2293 12.032 81.552 10.944C82.8747 9.856 84.6987 9.312 87.024 9.312C88.368 9.312 89.584 9.46133 90.672 9.76C91.7813 10.0373 92.592 10.3467 93.104 10.688L92.112 13.216C91.664 12.9387 90.992 12.672 90.096 12.416C89.2213 12.1387 88.1973 12 87.024 12C86.4267 12 85.872 12.064 85.36 12.192C84.848 12.32 84.4 12.512 84.016 12.768C83.632 13.024 83.3227 13.3547 83.088 13.76C82.8747 14.144 82.768 14.6027 82.768 15.136C82.768 15.7333 82.8853 16.2347 83.12 16.64C83.3547 17.0453 83.6853 17.408 84.112 17.728C84.5387 18.0267 85.0293 18.304 85.584 18.56C86.16 18.816 86.7893 19.072 87.472 19.328C88.432 19.712 89.3067 20.096 90.096 20.48C90.9067 20.864 91.6 21.3227 92.176 21.856C92.7733 22.3893 93.232 23.0293 93.552 23.776C93.872 24.5013 94.032 25.3867 94.032 26.432C94.032 28.3733 93.3173 29.8667 91.888 30.912C90.48 31.9573 88.4853 32.48 85.904 32.48C85.0293 32.48 84.2187 32.416 83.472 32.288C82.7467 32.1813 82.096 32.0533 81.52 31.904C80.944 31.7333 80.4427 31.5627 80.016 31.392C79.6107 31.2 79.2907 31.04 79.056 30.912L79.984 28.352C80.4747 28.6293 81.2213 28.9387 82.224 29.28C83.2267 29.6213 84.4533 29.792 85.904 29.792ZM97.5913 32V7.68L100.567 7.168V15.68C101.122 15.4667 101.709 15.3067 102.327 15.2C102.967 15.072 103.597 15.008 104.215 15.008C105.538 15.008 106.637 15.2 107.511 15.584C108.386 15.9467 109.079 16.4693 109.591 17.152C110.125 17.8133 110.498 18.6133 110.711 19.552C110.925 20.4907 111.031 21.5253 111.031 22.656V32H108.055V23.296C108.055 22.272 107.981 21.3973 107.831 20.672C107.703 19.9467 107.479 19.36 107.159 18.912C106.839 18.464 106.413 18.144 105.879 17.952C105.346 17.7387 104.685 17.632 103.895 17.632C103.575 17.632 103.245 17.6533 102.903 17.696C102.562 17.7387 102.231 17.792 101.911 17.856C101.613 17.8987 101.335 17.952 101.079 18.016C100.845 18.08 100.674 18.1333 100.567 18.176V32H97.5913ZM121.505 29.856C122.209 29.856 122.827 29.8453 123.361 29.824C123.915 29.7813 124.374 29.7173 124.737 29.632V24.672C124.523 24.5653 124.171 24.48 123.681 24.416C123.211 24.3307 122.635 24.288 121.953 24.288C121.505 24.288 121.025 24.32 120.513 24.384C120.022 24.448 119.563 24.5867 119.137 24.8C118.731 24.992 118.39 25.2693 118.113 25.632C117.835 25.9733 117.697 26.432 117.697 27.008C117.697 28.0747 118.038 28.8213 118.721 29.248C119.403 29.6533 120.331 29.856 121.505 29.856ZM121.249 14.944C122.443 14.944 123.446 15.104 124.257 15.424C125.089 15.7227 125.75 16.16 126.241 16.736C126.753 17.2907 127.115 17.9627 127.329 18.752C127.542 19.52 127.649 20.3733 127.649 21.312V31.712C127.393 31.7547 127.03 31.8187 126.561 31.904C126.113 31.968 125.601 32.032 125.025 32.096C124.449 32.16 123.819 32.2133 123.137 32.256C122.475 32.32 121.814 32.352 121.153 32.352C120.214 32.352 119.35 32.256 118.561 32.064C117.771 31.872 117.089 31.5733 116.513 31.168C115.937 30.7413 115.489 30.1867 115.169 29.504C114.849 28.8213 114.689 28 114.689 27.04C114.689 26.1227 114.87 25.3333 115.233 24.672C115.617 24.0107 116.129 23.4773 116.769 23.072C117.409 22.6667 118.155 22.368 119.009 22.176C119.862 21.984 120.758 21.888 121.697 21.888C121.995 21.888 122.305 21.9093 122.625 21.952C122.945 21.9733 123.243 22.016 123.521 22.08C123.819 22.1227 124.075 22.1653 124.289 22.208C124.502 22.2507 124.651 22.2827 124.737 22.304V21.472C124.737 20.9813 124.683 20.5013 124.577 20.032C124.47 19.5413 124.278 19.1147 124.001 18.752C123.723 18.368 123.339 18.0693 122.849 17.856C122.379 17.6213 121.761 17.504 120.993 17.504C120.011 17.504 119.147 17.5787 118.401 17.728C117.675 17.856 117.131 17.9947 116.769 18.144L116.417 15.68C116.801 15.5093 117.441 15.3493 118.337 15.2C119.233 15.0293 120.203 14.944 121.249 14.944ZM138.735 15.008C138.991 15.008 139.279 15.0293 139.599 15.072C139.941 15.0933 140.271 15.136 140.591 15.2C140.911 15.2427 141.199 15.296 141.455 15.36C141.733 15.4027 141.935 15.4453 142.063 15.488L141.551 18.08C141.317 17.9947 140.922 17.8987 140.367 17.792C139.834 17.664 139.141 17.6 138.287 17.6C137.733 17.6 137.178 17.664 136.623 17.792C136.09 17.8987 135.738 17.9733 135.567 18.016V32H132.591V16.064C133.295 15.808 134.17 15.5733 135.215 15.36C136.261 15.1253 137.434 15.008 138.735 15.008ZM144.007 23.712C144.007 22.24 144.22 20.96 144.647 19.872C145.074 18.7627 145.639 17.8453 146.343 17.12C147.047 16.3947 147.858 15.8507 148.775 15.488C149.692 15.1253 150.631 14.944 151.591 14.944C153.831 14.944 155.548 15.648 156.743 17.056C157.938 18.4427 158.535 20.5653 158.535 23.424C158.535 23.552 158.535 23.7227 158.535 23.936C158.535 24.128 158.524 24.3093 158.503 24.48H147.111C147.239 26.208 147.74 27.52 148.615 28.416C149.49 29.312 150.855 29.76 152.711 29.76C153.756 29.76 154.631 29.6747 155.335 29.504C156.06 29.312 156.604 29.1307 156.967 28.96L157.383 31.456C157.02 31.648 156.38 31.8507 155.463 32.064C154.567 32.2773 153.543 32.384 152.391 32.384C150.94 32.384 149.682 32.1707 148.615 31.744C147.57 31.296 146.706 30.688 146.023 29.92C145.34 29.152 144.828 28.2453 144.487 27.2C144.167 26.1333 144.007 24.9707 144.007 23.712ZM155.431 22.08C155.452 20.736 155.111 19.6373 154.407 18.784C153.724 17.9093 152.775 17.472 151.559 17.472C150.876 17.472 150.268 17.6107 149.735 17.888C149.223 18.144 148.786 18.4853 148.423 18.912C148.06 19.3387 147.772 19.8293 147.559 20.384C147.367 20.9387 147.239 21.504 147.175 22.08H155.431Z" fill="#028894"/>
<rect x="70.75" y="0.75" width="97.5" height="39.5" rx="3.25" stroke="#028894" stroke-width="1.5"/>
</svg>
