<?xml version="1.0" encoding="UTF-8"?>
<svg id="_Слой_1" data-name="Слой 1" xmlns="http://www.w3.org/2000/svg" viewBox="0 0 578.934 550.001">
  <defs>
    <style>
      .cls-1 {
        fill: #f0f0f0;
      }

      .cls-2, .cls-3, .cls-4, .cls-5, .cls-6 {
        fill: #fff;
      }

      .cls-3 {
        opacity: .8;
      }

      .cls-3, .cls-4, .cls-7, .cls-8, .cls-5, .cls-9, .cls-10, .cls-11, .cls-6, .cls-12 {
        isolation: isolate;
      }

      .cls-13 {
        fill: #fafafa;
      }

      .cls-14 {
        fill: #37474f;
      }

      .cls-15 {
        fill: #f5f5f5;
      }

      .cls-16 {
        fill: #455a64;
      }

      .cls-17 {
        fill: #9a4a4d;
      }

      .cls-18 {
        fill: #e0e0e0;
      }

      .cls-4, .cls-11 {
        opacity: .5;
      }

      .cls-7, .cls-19 {
        opacity: .3;
      }

      .cls-8, .cls-6 {
        opacity: .2;
      }

      .cls-5 {
        opacity: .7;
      }

      .cls-20 {
        fill: #ebebeb;
      }

      .cls-9 {
        opacity: .15;
      }

      .cls-10 {
        opacity: .4;
      }

      .cls-21 {
        fill: #6ac6c6;
      }

      .cls-22 {
        fill: #b16668;
      }

      .cls-23 {
        fill: #263238;
      }

      .cls-12 {
        opacity: .25;
      }
    </style>
  </defs>
  <path class="cls-14" d="M572.31,375.842V117.867l-42.683-24.4-32.019,18.299v63.3s-16.011-9.151-16.011-9.151v-24.4l-16.01-9.149V39.507l-48.031-27.45-21.347,12.2v28.502l-21.347-12.2-21.347,12.2v52.87l-21.348,12.168v-50.697l-21.346-12.2-26.685,15.25v60.999l-26.683-15.25V18.3L225.432,0l-37.357,21.351V100.534l-16.01,9.15v32.064l-21.348,12.2V44.272l-26.682-15.25-32.021,18.3v26.046l-16.012,9.151v70.368l-21.346,12.2v-47.615l-32.02-18.299-16.01,9.15V375.842s565.684,0,565.684,0Z"/>
  <g>
    <path class="cls-16" d="M84.78,267.593c-113.043,64.605-113.039,169.35,.006,233.953,113.045,64.605,296.326,64.605,409.368,0,113.043-64.605,113.039-169.349-.006-233.953-113.046-64.605-296.325-64.605-409.368,0Z"/>
    <path class="cls-21" d="M350.633,348.752l-171.091,97.78L48.302,371.527l171.091-97.78,131.24,75.005Z"/>
    <path class="cls-5" d="M350.633,348.752l-171.091,97.78L48.302,371.527l171.091-97.78,131.24,75.005Z"/>
    <path class="cls-2" d="M172.936,386.286c2.64-1.51,4.645-3.26,6.041-5.159l37.156,8.728-3.349,7.902c-.474,1.117,.8,2.378,2.846,2.812,2.046,.435,4.087-.117,4.562-1.237l4.177-9.854c.461-1.089-.736-2.318-2.71-2.782l-14.799-3.476,31.724-18.13,12.218,2.668-2.291,1.309c-1.374,.785-1.203,2.157,.385,3.064,1.588,.908,3.988,1.006,5.362,.22l17.332-9.905c1.375-.785,1.202-2.158-.385-3.064-1.588-.908-3.987-1.007-5.362-.22l-9.438,5.393-16.253-3.548-6.697-12.013c4.38-.772,8.413-2.103,11.764-4.019,12.493-7.141,10.921-19.657-3.505-27.901-14.426-8.244-36.326-9.143-48.82-2.003-11.652,6.659-11.064,17.993,.772,26.178l-13.611,7.779c-.009,.005-.019,.01-.027,.015-.307,.176-.538,.386-.694,.615-.008,.014-.022,.026-.03,.04-.034,.052-.056,.106-.081,.161-.014,.032-.034,.062-.045,.094-.016,.044-.024,.089-.034,.134-.011,.044-.026,.088-.032,.133-.005,.038-.001,.076-.002,.114-.003,.054-.008,.107-.001,.162,.003,.033,.013,.066,.019,.099,.011,.06,.02,.121,.04,.182,.01,.031,.027,.063,.039,.093,.024,.059,.044,.117,.076,.176,.002,.005,.006,.008,.008,.013,.001,.003,.003,.005,.004,.008l16.472,29.548-14.811-3.48c1.753-6.297-2.192-13.416-11.523-18.749-14.426-8.244-36.327-9.143-48.82-2.003-12.494,7.14-10.921,19.657,3.506,27.901,14.426,8.244,36.325,9.143,48.819,2.003h-.002Zm25.707-67.929c9.748-5.571,26.836-4.87,38.092,1.563,11.257,6.433,12.483,16.199,2.736,21.771-2.421,1.383-5.295,2.379-8.419,2.997l-8.386-15.044c-.428-.769-1.523-1.407-2.865-1.668-1.343-.261-2.723-.106-3.619,.405l-17.501,10.002c-8.686-6.351-8.943-14.937-.039-20.025h.001Zm5.787,23.309l13.117-7.496,6.281,11.267c-6.573,.127-13.529-1.15-19.398-3.772h0Zm-5.017,2.868c8.014,3.785,17.751,5.556,26.817,5.215l5.217,9.358-6.083-1.328-35.507-7.783,9.556-5.462Zm-10.751,9.627l34.583,7.579h.007l7.004,1.537-27.69,15.825-13.904-24.943v.002Zm-62.303,5.505c9.749-5.57,26.836-4.869,38.093,1.564,7.054,4.031,10.168,9.371,9.11,14.169l-25.796-6.059c-1.457-.342-2.945-.177-3.871,.353-.363,.207-.638,.47-.792,.78-.55,1.102,.647,2.38,2.674,2.857l25.805,6.061c-1.068,1.322-2.529,2.543-4.396,3.611-9.749,5.572-26.837,4.87-38.094-1.562-11.256-6.433-12.483-16.199-2.734-21.771v-.003Z"/>
    <path class="cls-18" d="M227.805,533.512v12.707c93.015,11.546,194.046-3.346,266.35-44.671,56.52-32.304,84.772-74.641,84.767-116.977v-12.745c-.006-11.809-2.21-23.619-6.614-35.209l-344.503,196.895Z"/>
    <path class="cls-15" d="M577.008,352.812c-1.098-5.435-2.665-10.833-4.701-16.195l-344.502,196.895c9.365,1.172,18.816,2.076,28.317,2.699,84.765,5.594,173.01-10.186,238.033-47.352,65.024-37.166,92.638-87.596,82.853-136.047Z"/>
    <path class="cls-18" d="M540.996,354.512l-6.848,3.913,44.04,25.17c.079-.635,.146-1.271,.212-1.906,.06-.581,.132-1.16,.182-1.74,.108-1.271,.184-2.545,.241-3.818l-37.827-21.618h0Z"/>
    <path class="cls-18" d="M453.594,404.466l-6.848,3.913,88.749,50.722c.567-.522,1.12-1.046,1.676-1.57,.603-.569,1.201-1.139,1.792-1.711,.555-.539,1.115-1.076,1.658-1.617l-87.027-49.737Z"/>
    <path class="cls-18" d="M359.344,458.332l90.03,51.454c2.727-1.036,5.428-2.101,8.107-3.195l-91.289-52.172-6.848,3.913Z"/>
    <path class="cls-18" d="M320.975,536.309c4.047-.252,8.086-.555,12.115-.904l-54.3-31.034-6.848,3.914,49.033,28.022v.002Z"/>
    <path class="cls-18" d="M577.008,352.812l-320.886,183.399c-9.501-.623-18.952-1.527-28.317-2.699l344.502-196.895c2.036,5.362,3.603,10.76,4.701,16.195Z"/>
  </g>
  <path class="cls-20" d="M199.467,521.288l8.32,4.77,270.913-154.817-8.32-4.769-270.913,154.816Z"/>
  <path class="cls-18" d="M199.467,521.288l8.32,4.77v2.466l-8.32-4.77v-2.466Z"/>
  <path class="cls-9" d="M199.467,521.288l8.32,4.77v2.466l-8.32-4.77v-2.466Z"/>
  <path class="cls-18" d="M478.7,371.241v2.466l-270.913,154.817v-2.466l270.913-154.817Z"/>
  <path class="cls-20" d="M134.4,484.121l8.32,4.77,270.913-154.818-8.319-4.768L134.4,484.121Z"/>
  <path class="cls-18" d="M134.4,484.121l8.32,4.77v2.466l-8.32-4.77v-2.466Z"/>
  <path class="cls-9" d="M134.4,484.121l8.32,4.77v2.466l-8.32-4.77v-2.466Z"/>
  <path class="cls-18" d="M413.633,334.073v2.467L142.72,491.357v-2.466l270.913-154.818Z"/>
  <path class="cls-18" d="M348.84,441.735c-.275,0-.549-.071-.795-.212l-65.508-37.438c-.548-.313-.857-.918-.788-1.541l8.541-76.007c.885-7.87,5.287-12.681,11.389-12.586l26.929,.466c6.891,.12,14.284,9.893,14.926,19.734l6.897,105.905c.037,.581-.251,1.135-.749,1.442-.258,.158-.549,.237-.842,.237Zm-63.808-39.867l62.026,35.448-6.706-102.964c-.526-8.065-6.592-16.692-11.8-16.782l-26.928-.467c-.046,0-.092-.001-.136-.001-4.343,0-7.34,3.645-8.03,9.782l-8.426,74.984Z"/>
  <path class="cls-8" d="M348.84,441.735c-.275,0-.549-.071-.795-.212l-65.508-37.438c-.548-.313-.857-.918-.788-1.541l8.541-76.007c.885-7.87,5.287-12.681,11.389-12.586l26.929,.466c6.891,.12,14.284,9.893,14.926,19.734l6.897,105.905c.037,.581-.251,1.135-.749,1.442-.258,.158-.549,.237-.842,.237Zm-63.808-39.867l62.026,35.448-6.706-102.964c-.526-8.065-6.592-16.692-11.8-16.782l-26.928-.467c-.046,0-.092-.001-.136-.001-4.343,0-7.34,3.645-8.03,9.782l-8.426,74.984Z"/>
  <path class="cls-18" d="M326.927,454.235c-.275,0-.549-.071-.797-.213l-65.507-37.437c-.548-.313-.858-.917-.788-1.54l8.54-76.007c.875-7.785,5.155-12.589,11.191-12.589,.067,0,.132,0,.199,.002l26.93,.467c6.891,.12,14.283,9.894,14.924,19.734l6.898,105.903c.037,.582-.251,1.135-.751,1.443-.258,.157-.549,.237-.841,.237h.002Zm-63.808-39.867l62.025,35.448-6.706-102.963c-.572-8.782-7.074-16.701-11.798-16.783l-26.929-.466c-.046,0-.092-.001-.136-.001-4.343,0-7.34,3.644-8.03,9.781l-8.426,74.984Z"/>
  <path class="cls-9" d="M326.927,454.235c-.275,0-.549-.071-.797-.213l-65.507-37.437c-.548-.313-.858-.917-.788-1.54l8.54-76.007c.875-7.785,5.155-12.589,11.191-12.589,.067,0,.132,0,.199,.002l26.93,.467c6.891,.12,14.283,9.894,14.924,19.734l6.898,105.903c.037,.582-.251,1.135-.751,1.443-.258,.157-.549,.237-.841,.237h.002Zm-63.808-39.867l62.025,35.448-6.706-102.963c-.572-8.782-7.074-16.701-11.798-16.783l-26.929-.466c-.046,0-.092-.001-.136-.001-4.343,0-7.34,3.644-8.03,9.781l-8.426,74.984Z"/>
  <path class="cls-8" d="M417.423,407.127c-83.823-37.685-156.879-79.564-220.425-125.973-6.555-5.395-4.829-10.749,1.017-14.091,5.845-3.34,15.635-3.162,21.866,.399l220.865,126.225c6.231,3.562,6.544,9.157,.698,12.497-5.844,3.34-15.096,4.397-24.02,.944h-.001Z"/>
  <path class="cls-8" d="M237.649,511.375c-83.823-37.685-156.879-79.564-220.424-125.974-6.555-5.394-4.829-10.749,1.015-14.09,5.845-3.341,15.635-3.162,21.866,.399l220.865,126.225c6.231,3.561,6.544,9.156,.698,12.497-5.844,3.34-15.096,4.397-24.02,.944h0Z"/>
  <path class="cls-18" d="M440.779,390.16c-.275,0-.549-.071-.797-.213l-65.507-37.437c-.548-.312-.858-.917-.789-1.54l8.54-76.009c.875-7.784,5.156-12.588,11.192-12.588,.067,0,.132,0,.199,.001l26.928,.467c6.891,.119,14.283,9.894,14.925,19.733l6.898,105.905c.037,.582-.25,1.135-.749,1.443-.257,.157-.549,.237-.841,.237h0Zm-63.808-39.866l62.025,35.448-6.706-102.964c-.572-8.782-7.075-16.7-11.798-16.782l-26.928-.466c-.046,0-.09,0-.136,0-4.343,0-7.342,3.644-8.031,9.782l-8.425,74.983h0Z"/>
  <path class="cls-8" d="M440.779,390.16c-.275,0-.549-.071-.797-.213l-65.507-37.437c-.548-.312-.858-.917-.789-1.54l8.54-76.009c.875-7.784,5.156-12.588,11.192-12.588,.067,0,.132,0,.199,.001l26.928,.467c6.891,.119,14.283,9.894,14.925,19.733l6.898,105.905c.037,.582-.25,1.135-.749,1.443-.257,.157-.549,.237-.841,.237h0Zm-63.808-39.866l62.025,35.448-6.706-102.964c-.572-8.782-7.075-16.7-11.798-16.782l-26.928-.466c-.046,0-.09,0-.136,0-4.343,0-7.342,3.644-8.031,9.782l-8.425,74.983h0Z"/>
  <path class="cls-14" d="M239.956,185.517l-2.752-1.58c-6.772-3.87-13.177-5.736-18.88-5.816l.009-.008c-.169,0-.335,.01-.504,.012-1.004,.005-1.989,.054-2.946,.17-8.976,.942-14.646,3.603-19.903,10.296-6.025,7.103-7.277,16.704-6.838,25.883,0,27.259,19.323,60.401,43.172,74.021l2.752,1.58c6.776,3.87,13.175,5.736,18.881,5.817l-.009,.011c11.004-.023,19.975-4.228,25.416-13.397,2.836-3.57,4.773-11.459,4.773-19.82v-3.149c0-27.259-19.322-60.4-43.171-74.02Zm-7.266,99.417c-22.501-12.863-40.744-44.137-40.744-69.853s18.242-36.151,40.744-23.288c22.501,12.864,40.744,44.138,40.744,69.852s-18.243,36.151-40.744,23.289Z"/>
  <path class="cls-23" d="M234.066,188.231l-2.752-1.58c-11.795-6.74-22.483-7.441-30.28-3.129-10.86,6.052-13.313,19.577-12.892,30.951,0,27.259,19.323,60.401,43.172,74.021l2.752,1.579c6.929,3.959,13.47,5.834,19.272,5.834,4.023,.011,8.047-.953,11.506-2.992,7.667-4.53,12.393-14.034,12.393-27.515v-3.149c0-27.26-19.332-60.401-43.171-74.02Zm-1.376,96.702c-22.5-12.864-40.744-44.138-40.744-69.853s18.242-36.151,40.744-23.288c22.502,12.863,40.744,44.137,40.744,69.852s-18.242,36.151-40.744,23.289Z"/>
  <path class="cls-21" d="M262.992,278.336c-6.442,7.59-17.608,8.671-30.302,1.423-20.005-11.428-36.22-39.229-36.22-62.097,0-10.216,3.244-17.717,8.615-21.876-3.745,4.38-5.918,10.921-5.918,19.295,0,22.858,16.216,50.657,36.22,62.097,11.055,6.322,20.963,6.31,27.605,1.158Z"/>
  <path class="cls-8" d="M262.992,278.336c-6.442,7.59-17.608,8.671-30.302,1.423-20.005-11.428-36.22-39.229-36.22-62.097,0-10.216,3.244-17.717,8.615-21.876-3.745,4.38-5.918,10.921-5.918,19.295,0,22.858,16.216,50.657,36.22,62.097,11.055,6.322,20.963,6.31,27.605,1.158Z"/>
  <path class="cls-21" d="M232.687,191.793c-22.501-12.861-40.742-2.435-40.742,23.284s18.241,56.995,40.742,69.854c22.502,12.86,40.743,2.436,40.743-23.283s-18.241-56.995-40.743-69.855Zm0,87.964c-20-11.431-36.214-39.23-36.214-62.093s16.214-32.128,36.216-20.697c20,11.431,36.216,39.23,36.214,62.091,0,22.862-16.214,32.128-36.216,20.697v.002Z"/>
  <path class="cls-4" d="M232.687,191.793c-22.501-12.861-40.742-2.435-40.742,23.284s18.241,56.995,40.742,69.854c22.502,12.86,40.743,2.436,40.743-23.283s-18.241-56.995-40.743-69.855Zm0,87.964c-20-11.431-36.214-39.23-36.214-62.093s16.214-32.128,36.216-20.697c20,11.431,36.216,39.23,36.214,62.091,0,22.862-16.214,32.128-36.216,20.697v.002Z"/>
  <path class="cls-20" d="M267.68,247.686c-.082-.404-.172-.808-.264-1.213l-34.729-8.64,31.37-2.219c-.141-.356-.276-.714-.421-1.07l-30.949,3.289,25.654-14.023c-.185-.319-.378-.632-.567-.948l-25.087,14.971,18.269-24.766c-.242-.299-.483-.599-.727-.894l-17.542,25.66,9.725-33.786c-.309-.275-.62-.552-.932-.819l-8.79,34.605,.557-40.529c-.186-.11-.37-.228-.557-.335-.187-.106-.37-.199-.557-.303l.557,41.167-8.653-44.611c-.405-.118-.806-.222-1.206-.321l9.859,44.932-17.327-45.727c-.39,.021-.774,.057-1.156,.099l18.483,45.628-24.877-43.753c-.331,.168-.656,.343-.976,.532l25.853,43.221-30.816-38.824c-.233,.298-.457,.611-.677,.927l31.493,37.897-34.691-31.186c-.12,.386-.236,.776-.341,1.177l35.032,30.009-36.19-21.316c-.01,.384-.026,.76-.026,1.151,0,.036,.002,.073,.002,.108l36.214,20.057-35.209-9.908c.075,.401,.151,.803,.235,1.205l34.974,8.703-31.769,2.256c.134,.358,.279,.715,.418,1.071l31.351-3.327-26.107,14.285c.182,.32,.36,.643,.545,.962l25.56-15.244-18.67,25.333c.239,.302,.485,.596,.727,.894l17.943-26.227-9.955,34.639c.309,.278,.617,.56,.93,.832l9.025-35.471-.558,41.59c.186,.109,.37,.228,.556,.334,.188,.106,.371,.199,.558,.303l-.558-42.227,8.887,45.743c.404,.115,.804,.212,1.202,.307l-10.089-46.05,17.728,46.753c.387-.028,.774-.057,1.152-.106l-18.88-46.647,25.351,44.568c.324-.178,.64-.371,.953-.57l-26.304-43.998,31.226,39.334c.226-.309,.449-.621,.662-.948l-31.888-38.387,34.935,31.403c.109-.394,.209-.799,.305-1.206l-35.24-30.196,36.212,21.332c0-.035,.003-.069,.003-.105,0-.391-.016-.786-.026-1.181l-36.189-20.046,34.993,9.854v-.004Z"/>
  <path class="cls-18" d="M234.415,227.357c-2.495-1.427-4.737-1.514-6.337-.522-.331,.208-.733,.387-1.158,.638-.118,.064-.228,.141-.34,.217-.02,.014-.04,.023-.059,.038-.008,.005-.014,.012-.021,.017-.151,.108-.294,.225-.431,.352-.031,.028-.062,.058-.091,.088-.121,.119-.237,.245-.347,.381-.041,.05-.079,.102-.118,.155-.095,.127-.186,.258-.271,.398-.045,.076-.087,.156-.13,.236-.071,.131-.14,.261-.202,.402-.047,.105-.086,.216-.128,.326-.049,.13-.1,.259-.142,.395-.042,.137-.075,.284-.111,.428-.031,.126-.065,.247-.09,.377-.034,.181-.058,.374-.081,.567-.014,.108-.032,.21-.044,.321-.028,.311-.044,.632-.044,.966,0,5.545,3.936,12.288,8.787,15.065,.304,.173,.604,.326,.899,.46,.176,.081,.349,.141,.523,.208,.118,.045,.239,.101,.356,.14,.121,.04,.236,.065,.355,.099,.167,.048,.336,.101,.499,.136,.066,.013,.129,.018,.194,.029,.213,.038,.424,.074,.63,.092h.044c1.088,.08,2.056-.154,2.863-.664,.426-.248,.805-.43,1.287-.715,1.544-.921,2.495-2.847,2.495-5.567,0-5.545-3.936-12.288-8.787-15.065v.002Zm-2.509,16.713c-1.506-1.164-3.617-4.682-4.448-6.646,.458,.303,.981,.645,1.536,.93,2.285,1.17,2.229-.414,3.158,.685,.891,1.044,.754,3.798,.025,5.191-.088-.039-.178-.088-.269-.16h-.002Zm4.456-10.305c-.141,.05-.266,.106-.375,.167-.245,.137-1.237,.697-1.348,.759-.335,.188-.538,.425-.673,.664-1.131-1.14-2.443-4.785-2.34-6.5,1.969,.666,5.24,3.372,5.745,4.417,.046,.094,.073,.174,.094,.249-.349,.046-.731,.112-1.103,.244Zm-6.669-1.149c.738,2.628,1.849,3.031,1.921,3.889-1.729-.276-4.537-1.94-4.725-3.59-.18-1.539,.666-3.373,1.519-4.411,.732,.317,.683,1.96,1.285,4.112Zm4.967,13.787c-.915-.829,.101-1.635,.57-3.347,.291-1.061,.131-1.881-.023-2.492,1.798,1.404,4.497,5.095,3.801,6.189-.024,.039-.059,.072-.089,.109-1.509,.393-3.618,.129-4.258-.458h-.001Zm4.29-5.717c-1.91-2.526-2.667-1.655-3.129-3.005-.224-.653,.077-1.309,.62-1.812,1.023-.302,2.168-.13,2.768,.92,.932,1.64,1.45,4.629,1.496,6.486-.458-.674-1.027-1.636-1.755-2.589Z"/>
  <path class="cls-8" d="M234.415,227.357c-2.495-1.427-4.737-1.514-6.337-.522-.331,.208-.733,.387-1.158,.638-.118,.064-.228,.141-.34,.217-.02,.014-.04,.023-.059,.038-.008,.005-.014,.012-.021,.017-.151,.108-.294,.225-.431,.352-.031,.028-.062,.058-.091,.088-.121,.119-.237,.245-.347,.381-.041,.05-.079,.102-.118,.155-.095,.127-.186,.258-.271,.398-.045,.076-.087,.156-.13,.236-.071,.131-.14,.261-.202,.402-.047,.105-.086,.216-.128,.326-.049,.13-.1,.259-.142,.395-.042,.137-.075,.284-.111,.428-.031,.126-.065,.247-.09,.377-.034,.181-.058,.374-.081,.567-.014,.108-.032,.21-.044,.321-.028,.311-.044,.632-.044,.966,0,5.545,3.936,12.288,8.787,15.065,.304,.173,.604,.326,.899,.46,.176,.081,.349,.141,.523,.208,.118,.045,.239,.101,.356,.14,.121,.04,.236,.065,.355,.099,.167,.048,.336,.101,.499,.136,.066,.013,.129,.018,.194,.029,.213,.038,.424,.074,.63,.092h.044c1.088,.08,2.056-.154,2.863-.664,.426-.248,.805-.43,1.287-.715,1.544-.921,2.495-2.847,2.495-5.567,0-5.545-3.936-12.288-8.787-15.065v.002Zm-2.509,16.713c-1.506-1.164-3.617-4.682-4.448-6.646,.458,.303,.981,.645,1.536,.93,2.285,1.17,2.229-.414,3.158,.685,.891,1.044,.754,3.798,.025,5.191-.088-.039-.178-.088-.269-.16h-.002Zm4.456-10.305c-.141,.05-.266,.106-.375,.167-.245,.137-1.237,.697-1.348,.759-.335,.188-.538,.425-.673,.664-1.131-1.14-2.443-4.785-2.34-6.5,1.969,.666,5.24,3.372,5.745,4.417,.046,.094,.073,.174,.094,.249-.349,.046-.731,.112-1.103,.244Zm-6.669-1.149c.738,2.628,1.849,3.031,1.921,3.889-1.729-.276-4.537-1.94-4.725-3.59-.18-1.539,.666-3.373,1.519-4.411,.732,.317,.683,1.96,1.285,4.112Zm4.967,13.787c-.915-.829,.101-1.635,.57-3.347,.291-1.061,.131-1.881-.023-2.492,1.798,1.404,4.497,5.095,3.801,6.189-.024,.039-.059,.072-.089,.109-1.509,.393-3.618,.129-4.258-.458h-.001Zm4.29-5.717c-1.91-2.526-2.667-1.655-3.129-3.005-.224-.653,.077-1.309,.62-1.812,1.023-.302,2.168-.13,2.768,.92,.932,1.64,1.45,4.629,1.496,6.486-.458-.674-1.027-1.636-1.755-2.589Z"/>
  <path class="cls-18" d="M233.059,228.113c-4.852-2.769-8.788-.522-8.788,5.023s3.936,12.288,8.788,15.064c4.851,2.769,8.781,.522,8.781-5.023s-3.929-12.288-8.781-15.064Zm-2.177,.592c1.737,.022,5.912,3.376,6.488,4.568,.576,1.198-.952,.756-2.351,1.248-1.78,.621-.937,2.327-1.983,1.898-1.528-.628-3.884-7.742-2.154-7.714Zm-2.617-.264c.895,.151,.786,1.885,1.428,4.175,.814,2.904,2.091,3.09,1.91,4.175-.267,1.591-5.797-.786-6.063-3.126-.267-2.334,1.831-5.381,2.725-5.224Zm2.293,16.377c-1.897-1.463-4.78-6.701-4.801-7.799-.021-1.099,1.442,.414,3.237,1.335,2.285,1.17,2.229-.414,3.158,.685,1.369,1.606,.31,7.25-1.593,5.781v-.002Zm8.448,1.934c-.908,1.428-4.78,1.235-5.695,.407-.908-.835,.108-1.635,.576-3.354,.591-2.177-.715-3.347,.043-3.753,1.103-.593,5.984,5.273,5.075,6.701h0Zm-1.399-5.318c-1.911-2.519-2.668-1.655-3.129-3.004-.685-1.97,3.388-3.989,4.729-1.642,1.334,2.348,1.824,7.473,1.283,8.058-.54,.585-1.377-1.427-2.883-3.412Z"/>
  <path class="cls-16" d="M232.687,243.112c2.295,1.311,4.155,.248,4.155-2.374s-1.861-5.811-4.155-7.123c-2.295-1.311-4.154-.248-4.154,2.374s1.859,5.811,4.154,7.123Z"/>
  <path class="cls-21" d="M255.33,193.979l-1.928,1.659c-4.233-3.994-8.754-7.436-13.446-10.119l-2.756-1.578c-6.773-3.878-13.177-5.741-18.878-5.822l.008-.009c-.171,0-.333,.009-.504,.019-1,0-1.99,.053-2.945,.169-8.972,.936-14.645,3.602-19.905,10.298-6.025,7.099-7.276,16.709-6.835,25.88,0,8.997,2.107,18.642,5.791,28.012l-1.602,1.141s-7.864-16.173-8.863-34.164c-1-18,8.484-32.283,27.578-35.795,19.093-3.522,44.285,20.309,44.285,20.309Z"/>
  <path class="cls-7" d="M255.33,193.979l-1.928,1.659c-4.233-3.994-8.754-7.436-13.446-10.119l-2.756-1.578c-6.773-3.878-13.177-5.741-18.878-5.822l.008-.009c-.171,0-.333,.009-.504,.019-1,0-1.99,.053-2.945,.169-8.972,.936-14.645,3.602-19.905,10.298-6.025,7.099-7.276,16.709-6.835,25.88,0,8.997,2.107,18.642,5.791,28.012l-1.602,1.141s-7.864-16.173-8.863-34.164c-1-18,8.484-32.283,27.578-35.795,19.093-3.522,44.285,20.309,44.285,20.309Z"/>
  <path class="cls-21" d="M258.815,194.292c-1.432,1.721-3.405,3.112-5.521,4.119-.053,.036-.108,.062-.162,.08-.792,.375-1.594,.687-2.405,.945-.045,.009-.1,.027-.153,.036-5.242-5.429-11.7-10.689-17.626-14.256-26.2-15.727-47.582-7.836-47.698,25.596-.036,10.084,2.891,22.913,7.078,32.818-1.315-.143-2.359-.668-3.385-1.373-3.981-10.27-6.27-20.818-6.27-30.669-.502-10.343,.964-21.152,7.864-29.082,5.764-7.195,12.024-10.083,21.85-11.109,1.062-.134,2.152-.187,3.27-.196,.188,0,.368-.008,.559-.008l-.009,.008c6.341,.089,13.455,2.158,20.976,6.464l3.063,1.747c6.584,3.763,12.862,8.871,18.572,14.88h-.003Z"/>
  <path class="cls-4" d="M258.815,194.292c-1.432,1.721-3.405,3.112-5.521,4.119-.053,.036-.108,.062-.162,.08-.792,.375-1.594,.687-2.405,.945-.045,.009-.1,.027-.153,.036-5.242-5.429-11.7-10.689-17.626-14.256-26.2-15.727-47.582-7.836-47.698,25.596-.036,10.084,2.891,22.913,7.078,32.818-1.315-.143-2.359-.668-3.385-1.373-3.981-10.27-6.27-20.818-6.27-30.669-.502-10.343,.964-21.152,7.864-29.082,5.764-7.195,12.024-10.083,21.85-11.109,1.062-.134,2.152-.187,3.27-.196,.188,0,.368-.008,.559-.008l-.009,.008c6.341,.089,13.455,2.158,20.976,6.464l3.063,1.747c6.584,3.763,12.862,8.871,18.572,14.88h-.003Z"/>
  <path class="cls-21" d="M253.294,198.411v.008c-.053,.027-.107,.054-.162,.071-1.152,.562-1.234,.668-2.405,.945-.045,.009-.099,.027-.153,.036-5.242-5.429-11.7-10.69-17.626-14.256-26.2-15.727-47.582-7.836-47.698,25.596-.036,10.083,2.891,22.913,7.078,32.818-1.315-.143-2.359-.668-3.385-1.373-3.981-10.27-6.27-20.818-6.27-30.669-.465-12.638,2.261-27.659,14.32-34.387,8.665-4.787,20.544-4.012,33.649,3.478l3.053,1.756c6.98,3.985,13.601,9.486,19.599,15.977Z"/>
  <path class="cls-21" d="M369.808,251.416c-.494-.654-1.432-.786-2.092-.297l-3.82,2.833-.689-2.748-65.845,38.654s-1.219,.651-1.296,.719l-63.197-53.691c-.627-.532-1.572-.462-2.109,.16-.538,.619-.465,1.554,.162,2.087l65.512,55.656c.169,.14,.342,.254,.511,.352,.467,.266,.908,.373,1.318,.373,.703,0,1.305-.318,1.776-.68l64.624-37.75,4.848-3.594c.661-.49,.796-1.418,.3-2.073h-.003Z"/>
  <path class="cls-7" d="M369.808,251.416c-.494-.654-1.432-.786-2.092-.297l-3.82,2.833-.689-2.748-65.845,38.654s-1.219,.651-1.296,.719l-63.197-53.691c-.627-.532-1.572-.462-2.109,.16-.538,.619-.465,1.554,.162,2.087l65.512,55.656c.169,.14,.342,.254,.511,.352,.467,.266,.908,.373,1.318,.373,.703,0,1.305-.318,1.776-.68l64.624-37.75,4.848-3.594c.661-.49,.796-1.418,.3-2.073h-.003Z"/>
  <path class="cls-21" d="M297.688,295.337c-.704,0-1.329-.492-1.467-1.201l-14.496-119.988c-.144-.742,.229-1.541,.952-1.788,.881-.299,1.794,.246,1.963,1.119l14.517,120.098c.156,.803-.375,1.578-1.186,1.734-.095,.018-.191,.026-.283,.026Z"/>
  <path class="cls-7" d="M297.688,295.337c-.704,0-1.329-.492-1.467-1.201l-14.496-119.988c-.144-.742,.229-1.541,.952-1.788,.881-.299,1.794,.246,1.963,1.119l14.517,120.098c.156,.803-.375,1.578-1.186,1.734-.095,.018-.191,.026-.283,.026Z"/>
  <path class="cls-21" d="M233,238.781c-.683-.671-.509-1.806,.345-2.247l18.32-9.456c22.926-12.563,50.041-15.313,75.064-7.614,0,0,12.189,3.277,21.212,7.106,6.943,2.946,14.213,8.788,15.407,16.994l.096,.666s1.164,9.828-11.845,4.718c-13.008-5.11-37.816-14.576-49.898-17.483-12.082-2.905-19.3-6.215-20.801-11.123-10.963,1.964-24.422,7.128-46.237,18.685-.546,.289-1.225,.187-1.663-.246Z"/>
  <path class="cls-1" d="M349.103,232.105c-12.848-7.93-48.722-15.964-68.203-11.763,.245,.8,.658,1.555,1.203,2.276,18.288-1.235,35.552,2.748,45.952,8.656,8.652,4.914,9.723,10.612,9.839,12.391,5.161,1.95,9.931,3.799,13.705,5.283,6.754,2.653,9.685,1.277,10.943-.656-.203-4.626-1.521-8.829-13.439-16.187Z"/>
  <path class="cls-18" d="M299.86,278.712c-3.449-1.973-6.55-2.092-8.764-.72-.456,.285-1.013,.535-1.6,.88-.163,.089-.316,.196-.471,.301-.027,.018-.055,.033-.082,.052-.01,.008-.019,.017-.029,.025-.208,.147-.406,.31-.595,.487-.043,.039-.085,.079-.127,.121-.168,.165-.328,.339-.48,.528-.057,.068-.11,.141-.163,.213-.131,.176-.257,.357-.374,.55-.064,.105-.122,.216-.181,.326-.098,.181-.193,.362-.279,.556-.064,.145-.12,.299-.178,.452-.068,.179-.138,.356-.196,.547-.058,.189-.104,.392-.153,.592-.042,.174-.09,.341-.124,.523-.049,.25-.081,.518-.114,.783-.019,.149-.046,.29-.059,.444-.04,.429-.061,.874-.061,1.336,0,7.669,5.444,16.996,12.154,20.836,.419,.239,.834,.452,1.242,.637,.246,.113,.484,.194,.723,.287,.164,.064,.332,.139,.494,.194,.166,.057,.327,.09,.491,.136,.232,.066,.465,.139,.691,.188,.091,.02,.177,.024,.268,.04,.294,.054,.587,.104,.871,.126,.019,.001,.039,0,.059,0,1.505,.111,2.846-.212,3.959-.917,.59-.342,1.113-.595,1.779-.989,2.134-1.273,3.45-3.938,3.45-7.699,0-7.669-5.443-16.995-12.153-20.834h.002Zm-3.469,23.113c-2.084-1.608-5.003-6.474-6.152-9.19,.633,.419,1.356,.891,2.125,1.285,3.161,1.618,3.08-.572,4.367,.947,1.233,1.445,1.042,5.253,.034,7.178-.122-.053-.246-.122-.373-.221h-.001Zm6.162-14.251c-.195,.069-.368,.147-.52,.233-.339,.189-1.709,.962-1.864,1.049-.465,.26-.744,.587-.93,.918-1.564-1.577-3.38-6.618-3.237-8.989,2.723,.921,7.247,4.663,7.946,6.108,.063,.131,.101,.242,.13,.346-.484,.064-1.011,.153-1.525,.334h0Zm-9.223-1.588c1.019,3.636,2.556,4.193,2.655,5.378-2.39-.382-6.274-2.682-6.535-4.964-.249-2.127,.92-4.665,2.1-6.101,1.012,.439,.947,2.711,1.78,5.687Zm6.868,19.068c-1.265-1.144,.14-2.259,.788-4.629,.402-1.467,.18-2.601-.034-3.446,2.487,1.94,6.221,7.046,5.259,8.559-.035,.054-.083,.1-.122,.15-2.087,.544-5.005,.18-5.889-.634h-.002Zm5.933-7.906c-2.642-3.493-3.689-2.29-4.327-4.155-.31-.905,.106-1.81,.857-2.506,1.414-.418,3-.179,3.829,1.273,1.288,2.268,2.005,6.401,2.067,8.968-.633-.933-1.421-2.259-2.426-3.58Z"/>
  <path class="cls-8" d="M299.86,278.712c-3.449-1.973-6.55-2.092-8.764-.72-.456,.285-1.013,.535-1.6,.88-.163,.089-.316,.196-.471,.301-.027,.018-.055,.033-.082,.052-.01,.008-.019,.017-.029,.025-.208,.147-.406,.31-.595,.487-.043,.039-.085,.079-.127,.121-.168,.165-.328,.339-.48,.528-.057,.068-.11,.141-.163,.213-.131,.176-.257,.357-.374,.55-.064,.105-.122,.216-.181,.326-.098,.181-.193,.362-.279,.556-.064,.145-.12,.299-.178,.452-.068,.179-.138,.356-.196,.547-.058,.189-.104,.392-.153,.592-.042,.174-.09,.341-.124,.523-.049,.25-.081,.518-.114,.783-.019,.149-.046,.29-.059,.444-.04,.429-.061,.874-.061,1.336,0,7.669,5.444,16.996,12.154,20.836,.419,.239,.834,.452,1.242,.637,.246,.113,.484,.194,.723,.287,.164,.064,.332,.139,.494,.194,.166,.057,.327,.09,.491,.136,.232,.066,.465,.139,.691,.188,.091,.02,.177,.024,.268,.04,.294,.054,.587,.104,.871,.126,.019,.001,.039,0,.059,0,1.505,.111,2.846-.212,3.959-.917,.59-.342,1.113-.595,1.779-.989,2.134-1.273,3.45-3.938,3.45-7.699,0-7.669-5.443-16.995-12.153-20.834h.002Zm-3.469,23.113c-2.084-1.608-5.003-6.474-6.152-9.19,.633,.419,1.356,.891,2.125,1.285,3.161,1.618,3.08-.572,4.367,.947,1.233,1.445,1.042,5.253,.034,7.178-.122-.053-.246-.122-.373-.221h-.001Zm6.162-14.251c-.195,.069-.368,.147-.52,.233-.339,.189-1.709,.962-1.864,1.049-.465,.26-.744,.587-.93,.918-1.564-1.577-3.38-6.618-3.237-8.989,2.723,.921,7.247,4.663,7.946,6.108,.063,.131,.101,.242,.13,.346-.484,.064-1.011,.153-1.525,.334h0Zm-9.223-1.588c1.019,3.636,2.556,4.193,2.655,5.378-2.39-.382-6.274-2.682-6.535-4.964-.249-2.127,.92-4.665,2.1-6.101,1.012,.439,.947,2.711,1.78,5.687Zm6.868,19.068c-1.265-1.144,.14-2.259,.788-4.629,.402-1.467,.18-2.601-.034-3.446,2.487,1.94,6.221,7.046,5.259,8.559-.035,.054-.083,.1-.122,.15-2.087,.544-5.005,.18-5.889-.634h-.002Zm5.933-7.906c-2.642-3.493-3.689-2.29-4.327-4.155-.31-.905,.106-1.81,.857-2.506,1.414-.418,3-.179,3.829,1.273,1.288,2.268,2.005,6.401,2.067,8.968-.633-.933-1.421-2.259-2.426-3.58Z"/>
  <path class="cls-18" d="M297.986,279.759c-6.71-3.829-12.153-.721-12.153,6.948s5.443,16.995,12.153,20.835c6.711,3.829,12.145,.721,12.145-6.948s-5.434-16.995-12.145-20.835Zm-3.01,.82c2.402,.029,8.175,4.668,8.972,6.316,.798,1.659-1.316,1.047-3.25,1.727-2.463,.859-1.297,3.217-2.741,2.625-2.114-.868-5.374-10.709-2.981-10.668Zm-3.621-.366c1.237,.208,1.087,2.605,1.975,5.774,1.126,4.017,2.891,4.273,2.641,5.773-.369,2.201-8.016-1.086-8.385-4.322-.369-3.227,2.532-7.442,3.769-7.225Zm3.17,22.65c-2.622-2.023-6.61-9.267-6.64-10.787-.03-1.519,1.994,.573,4.476,1.846,3.161,1.618,3.081-.572,4.368,.948,1.894,2.22,.428,10.027-2.204,7.993Zm11.686,2.675c-1.256,1.974-6.611,1.708-7.877,.563-1.256-1.154,.149-2.261,.797-4.639,.818-3.01-.987-4.628,.061-5.192,1.525-.819,8.275,7.294,7.019,9.268Zm-1.935-7.352c-2.641-3.485-3.689-2.29-4.327-4.155-.947-2.724,4.686-5.517,6.541-2.271,1.844,3.248,2.522,10.334,1.775,11.142-.747,.81-1.904-1.973-3.987-4.718l-.002,.002Z"/>
  <path class="cls-16" d="M297.985,297.899c2.053,1.173,3.717,.222,3.717-2.124s-1.664-5.2-3.717-6.372c-2.053-1.173-3.716-.222-3.716,2.124s1.664,5.199,3.716,6.372Z"/>
  <path class="cls-21" d="M285.708,313.063c-.148,0-.298-.033-.44-.101-.494-.241-.697-.833-.453-1.322l8.216-16.471,4.313-2.464c.475-.273,1.087-.111,1.362,.362,.275,.473,.112,1.076-.366,1.348l-3.789,2.165-7.948,15.933c-.174,.35-.527,.55-.895,.55Z"/>
  <g class="cls-19">
    <path d="M285.708,313.063c-.148,0-.298-.033-.44-.101-.494-.241-.697-.833-.453-1.322l8.216-16.471,4.313-2.464c.475-.273,1.087-.111,1.362,.362,.275,.473,.112,1.076-.366,1.348l-3.789,2.165-7.948,15.933c-.174,.35-.527,.55-.895,.55Z"/>
  </g>
  <path class="cls-21" d="M289.869,314.607l-7.877-4.501c-.437-.249-.975-.249-1.41,0l-10.972,6.27c-.436,.25-.705,.711-.705,1.21v.697c0,.5,.269,.96,.705,1.209l7.892,4.511c.437,.249,.976,.249,1.413,0l10.955-6.279c.436-.25,.705-.711,.705-1.21v-.698c0-.498-.269-.96-.706-1.209Z"/>
  <path class="cls-8" d="M289.869,314.607l-7.877-4.501c-.437-.249-.975-.249-1.41,0l-10.972,6.27c-.436,.25-.705,.711-.705,1.21v.697c0,.5,.269,.96,.705,1.209l7.892,4.511c.437,.249,.976,.249,1.413,0l10.955-6.279c.436-.25,.705-.711,.705-1.21v-.698c0-.498-.269-.96-.706-1.209Z"/>
  <path class="cls-21" d="M277.552,321.721c.405,.232,.906,.232,1.311,0l11.522-6.603c-.122-.208-.299-.387-.516-.511l-2.201-1.257-5.676-3.244c-.437-.249-.975-.249-1.41,0l-1.329,.76-9.643,5.51c-.218,.125-.394,.303-.516,.512l8.459,4.834h-.001Z"/>
  <path class="cls-21" d="M315.566,296.588c-.063-8.858-1.184-14.615-12.169-23.639-9.558-7.852-55.544-28.072-55.544-28.072l-1.904,1.17,40.319,34.53,1.903-1.17s.396-1.323,1.609-2.451c1.764-.656,4.339-.647,8.051,1.163,9.065,4.423,11.908,11.185,13.004,18.092l2.827,1.546,1.903-1.17h.001Z"/>
  <path class="cls-7" d="M315.566,296.588c-.063-8.858-1.184-14.615-12.169-23.639-9.558-7.852-55.544-28.072-55.544-28.072l-1.904,1.17,40.319,34.53,1.903-1.17s.396-1.323,1.609-2.451c1.764-.656,4.339-.647,8.051,1.163,9.065,4.423,11.908,11.185,13.004,18.092l2.827,1.546,1.903-1.17h.001Z"/>
  <path class="cls-21" d="M286.268,280.578l-40.319-34.53s45.988,20.22,55.544,28.072c10.985,9.025,12.106,14.781,12.169,23.639l-2.827-1.546c-1.096-6.908-3.939-13.668-13.004-18.092-9.455-4.614-11.563,2.457-11.563,2.457Z"/>
  <path class="cls-17" d="M318.025,188.82c-3.012-4.854-10.091-11.926-10.091-11.926,0,0-18.26-24.323-38.51-12.75-4.073,2.328-6.142,5.335-7.028,9.871-.333,1.703-.218,3.718-.148,4.352,.312,2.786,.899,3.903,2.505,6.096,2.667,3.645,10.207,6.643,19.239,8.903,.647,.163,1.297,.315,1.947,.464,3.224,.735,6.475,1.353,9.717,2.004,3.213,.644,6.43,1.295,9.599,2.133,1.298,.343,2.591,.717,3.852,1.18,.518,.189,1.031,.395,1.531,.629,.679,.318,1.153,.793,1.952,.834,.468,.025,.935-.051,1.396-.135,.423-.077,.847-.163,1.246-.323,.356-.144,.688-.347,.996-.577,1.162-.869,2.002-2.123,2.476-3.486,.835-2.405,.675-5.085-.679-7.267v-.002Z"/>
  <path class="cls-22" d="M269.424,164.144c-6.137,3.507-9.497,9.965-4.672,16.558,2.667,3.646,10.207,6.642,19.239,8.904,9.032,2.261,24.476,4.298,28.292,7.385,3.816,3.088,9.278-2.464,5.741-8.169-3.012-4.855-10.092-11.927-10.092-11.927,0,0-18.259-24.323-38.509-12.75h.001Z"/>
  <path class="cls-21" d="M392.195,328.584c-.578,0-1.129-.334-1.373-.892l-9.146-20.871c-.031-.068-.055-.137-.073-.209l-14.435-53.929c-.213-.789,.262-1.601,1.061-1.812,.794-.216,1.618,.259,1.83,1.05l14.406,53.821,9.102,20.77c.33,.75-.018,1.622-.777,1.947-.194,.083-.395,.122-.593,.122l-.002,.003Z"/>
  <path class="cls-11" d="M392.195,328.584c-.578,0-1.129-.334-1.373-.892l-9.146-20.871c-.031-.068-.055-.137-.073-.209l-14.435-53.929c-.213-.789,.262-1.601,1.061-1.812,.794-.216,1.618,.259,1.83,1.05l14.406,53.821,9.102,20.77c.33,.75-.018,1.622-.777,1.947-.194,.083-.395,.122-.593,.122l-.002,.003Z"/>
  <path class="cls-14" d="M397.113,275.432l-2.751-1.58c-6.773-3.87-13.178-5.736-18.88-5.816l.008-.008c-.169,0-.335,.01-.503,.012-1.005,.005-1.989,.054-2.947,.17-8.976,.941-14.645,3.603-19.903,10.296-6.025,7.103-7.277,16.704-6.838,25.883,0,27.259,19.324,60.401,43.173,74.021l2.751,1.58c6.776,3.87,13.176,5.736,18.882,5.817l-.009,.011c11.003-.023,19.975-4.228,25.417-13.397,2.836-3.571,4.773-11.459,4.773-19.82v-3.149c0-27.259-19.322-60.401-43.173-74.022v.002Zm-7.266,99.416c-22.5-12.864-40.744-44.138-40.744-69.852s18.244-36.151,40.744-23.288c22.501,12.864,40.744,44.138,40.744,69.852s-18.243,36.151-40.744,23.288Z"/>
  <path class="cls-23" d="M391.223,278.147l-2.752-1.579c-11.794-6.741-22.483-7.442-30.279-3.13-10.86,6.052-13.314,19.578-12.893,30.951,0,27.259,19.323,60.401,43.172,74.021l2.752,1.58c6.929,3.957,13.47,5.833,19.273,5.833,4.022,.011,8.047-.953,11.505-2.991,7.667-4.53,12.394-14.035,12.394-27.516v-3.149c0-27.259-19.333-60.4-43.172-74.02Zm-1.376,96.702c-22.5-12.863-40.744-44.137-40.744-69.852s18.244-36.151,40.744-23.288c22.501,12.864,40.744,44.138,40.744,69.852s-18.243,36.151-40.744,23.288Z"/>
  <path class="cls-21" d="M420.149,368.251c-6.442,7.59-17.608,8.671-30.302,1.423-20.004-11.428-36.219-39.229-36.219-62.097,0-10.216,3.242-17.717,8.614-21.876-3.744,4.38-5.917,10.921-5.917,19.295,0,22.858,16.215,50.657,36.219,62.097,11.056,6.321,20.962,6.31,27.605,1.158Z"/>
  <path class="cls-8" d="M420.149,368.251c-6.442,7.59-17.608,8.671-30.302,1.423-20.004-11.428-36.219-39.229-36.219-62.097,0-10.216,3.242-17.717,8.614-21.876-3.744,4.38-5.917,10.921-5.917,19.295,0,22.858,16.215,50.657,36.219,62.097,11.056,6.321,20.962,6.31,27.605,1.158Z"/>
  <path class="cls-21" d="M389.845,281.709c-22.502-12.86-40.743-2.435-40.743,23.284s18.241,56.995,40.743,69.855c22.501,12.859,40.743,2.435,40.743-23.284s-18.242-56.995-40.743-69.855Zm0,87.964c-20.001-11.431-36.215-39.23-36.215-62.092s16.214-32.127,36.216-20.697c20.001,11.431,36.215,39.23,36.215,62.092s-16.216,32.127-36.216,20.697Z"/>
  <path class="cls-4" d="M389.845,281.709c-22.502-12.86-40.743-2.435-40.743,23.284s18.241,56.995,40.743,69.855c22.501,12.859,40.743,2.435,40.743-23.284s-18.242-56.995-40.743-69.855Zm0,87.964c-20.001-11.431-36.215-39.23-36.215-62.092s16.214-32.127,36.216-20.697c20.001,11.431,36.215,39.23,36.215,62.092s-16.216,32.127-36.216,20.697Z"/>
  <path class="cls-20" d="M424.839,337.601c-.083-.404-.173-.808-.264-1.213l-34.729-8.641,31.368-2.218c-.139-.356-.275-.714-.419-1.071l-30.949,3.289,25.654-14.023c-.185-.319-.379-.633-.567-.948l-25.086,14.973,18.269-24.767c-.242-.299-.483-.599-.728-.894l-17.541,25.661,9.723-33.787c-.31-.276-.619-.552-.933-.819l-8.79,34.606,.557-40.53c-.187-.11-.37-.228-.557-.335-.187-.106-.371-.199-.558-.303l.558,41.168-8.654-44.612c-.405-.118-.806-.222-1.205-.322l9.859,44.934-17.327-45.729c-.391,.02-.773,.057-1.156,.1l18.483,45.629-24.877-43.754c-.33,.168-.657,.343-.976,.532l25.853,43.223-30.815-38.826c-.233,.298-.457,.611-.677,.927l31.492,37.899-34.691-31.188c-.119,.386-.234,.776-.34,1.177l35.031,30.012-36.19-21.318c-.01,.384-.026,.76-.026,1.151,0,.037,.003,.072,.003,.109l36.213,20.058-35.209-9.91c.075,.402,.152,.804,.236,1.205l34.974,8.705-31.769,2.255c.135,.357,.278,.714,.419,1.071l31.35-3.326-26.107,14.284c.182,.32,.36,.642,.546,.961l25.56-15.245-18.67,25.333c.239,.302,.485,.596,.728,.893l17.942-26.227-9.954,34.639c.309,.277,.616,.56,.93,.831l9.025-35.47-.557,41.589c.186,.11,.37,.228,.557,.335,.187,.106,.372,.199,.558,.303l-.556-42.227,8.886,45.743c.405,.115,.803,.21,1.202,.307l-10.09-46.05,17.728,46.753c.388-.028,.774-.057,1.153-.106l-18.881-46.647,25.351,44.568c.325-.178,.64-.371,.954-.57l-26.305-43.998,31.228,39.334c.226-.309,.449-.62,.661-.947l-31.887-38.387,34.935,31.403c.108-.394,.21-.799,.305-1.206l-35.24-30.196,36.212,21.332c0-.035,.002-.069,.002-.105,0-.391-.016-.786-.026-1.181l-36.188-20.046,34.993,9.854-.004-.004Z"/>
  <path class="cls-18" d="M391.572,317.272c-2.493-1.427-4.737-1.514-6.337-.522-.331,.208-.733,.386-1.157,.638-.119,.064-.23,.141-.341,.217-.019,.014-.038,.023-.059,.038-.007,.005-.014,.012-.021,.017-.15,.108-.294,.225-.431,.352-.03,.028-.061,.057-.091,.088-.121,.12-.237,.245-.347,.381-.04,.05-.079,.102-.118,.155-.094,.127-.185,.258-.27,.398-.046,.076-.088,.156-.131,.236-.07,.131-.139,.261-.201,.402-.047,.105-.087,.216-.128,.326-.05,.131-.1,.259-.142,.396-.042,.136-.076,.283-.111,.428-.03,.125-.065,.247-.09,.378-.035,.182-.058,.373-.082,.565-.013,.108-.033,.21-.043,.321-.028,.311-.045,.632-.045,.966,0,5.545,3.936,12.288,8.789,15.066,.304,.173,.604,.326,.898,.46,.178,.081,.35,.141,.524,.208,.118,.045,.239,.101,.356,.14,.12,.041,.236,.065,.356,.099,.167,.048,.335,.102,.499,.136,.066,.015,.129,.018,.194,.029,.212,.039,.424,.075,.63,.092h.044c1.088,.08,2.058-.154,2.863-.663,.427-.247,.806-.43,1.287-.716,1.543-.92,2.494-2.847,2.494-5.566,0-5.545-3.936-12.288-8.788-15.064h-.001Zm-2.508,16.712c-1.507-1.164-3.618-4.682-4.448-6.646,.458,.303,.981,.645,1.536,.93,2.285,1.17,2.228-.414,3.157,.685,.891,1.044,.753,3.798,.025,5.191-.088-.039-.178-.088-.269-.159h-.001Zm4.455-10.306c-.14,.05-.265,.106-.375,.168-.245,.136-1.236,.696-1.347,.758-.336,.188-.538,.425-.673,.664-1.13-1.14-2.443-4.785-2.34-6.5,1.969,.666,5.24,3.373,5.744,4.418,.046,.094,.073,.175,.094,.249-.349,.047-.73,.111-1.103,.243Zm-6.669-1.149c.738,2.628,1.849,3.031,1.92,3.889-1.728-.276-4.537-1.94-4.724-3.59-.18-1.539,.665-3.373,1.519-4.411,.731,.317,.682,1.96,1.285,4.112Zm4.968,13.788c-.916-.828,.101-1.634,.57-3.347,.29-1.061,.131-1.881-.025-2.491,1.798,1.402,4.499,5.094,3.802,6.188-.025,.039-.06,.072-.089,.109-1.509,.393-3.619,.129-4.258-.458h0Zm4.29-5.717c-1.91-2.526-2.668-1.656-3.129-3.005-.225-.653,.076-1.309,.62-1.812,1.023-.303,2.169-.13,2.769,.921,.932,1.639,1.45,4.629,1.494,6.484-.456-.674-1.026-1.634-1.754-2.588Z"/>
  <path class="cls-8" d="M391.572,317.272c-2.493-1.427-4.737-1.514-6.337-.522-.331,.208-.733,.386-1.157,.638-.119,.064-.23,.141-.341,.217-.019,.014-.038,.023-.059,.038-.007,.005-.014,.012-.021,.017-.15,.108-.294,.225-.431,.352-.03,.028-.061,.057-.091,.088-.121,.12-.237,.245-.347,.381-.04,.05-.079,.102-.118,.155-.094,.127-.185,.258-.27,.398-.046,.076-.088,.156-.131,.236-.07,.131-.139,.261-.201,.402-.047,.105-.087,.216-.128,.326-.05,.131-.1,.259-.142,.396-.042,.136-.076,.283-.111,.428-.03,.125-.065,.247-.09,.378-.035,.182-.058,.373-.082,.565-.013,.108-.033,.21-.043,.321-.028,.311-.045,.632-.045,.966,0,5.545,3.936,12.288,8.789,15.066,.304,.173,.604,.326,.898,.46,.178,.081,.35,.141,.524,.208,.118,.045,.239,.101,.356,.14,.12,.041,.236,.065,.356,.099,.167,.048,.335,.102,.499,.136,.066,.015,.129,.018,.194,.029,.212,.039,.424,.075,.63,.092h.044c1.088,.08,2.058-.154,2.863-.663,.427-.247,.806-.43,1.287-.716,1.543-.92,2.494-2.847,2.494-5.566,0-5.545-3.936-12.288-8.788-15.064h-.001Zm-2.508,16.712c-1.507-1.164-3.618-4.682-4.448-6.646,.458,.303,.981,.645,1.536,.93,2.285,1.17,2.228-.414,3.157,.685,.891,1.044,.753,3.798,.025,5.191-.088-.039-.178-.088-.269-.159h-.001Zm4.455-10.306c-.14,.05-.265,.106-.375,.168-.245,.136-1.236,.696-1.347,.758-.336,.188-.538,.425-.673,.664-1.13-1.14-2.443-4.785-2.34-6.5,1.969,.666,5.24,3.373,5.744,4.418,.046,.094,.073,.175,.094,.249-.349,.047-.73,.111-1.103,.243Zm-6.669-1.149c.738,2.628,1.849,3.031,1.92,3.889-1.728-.276-4.537-1.94-4.724-3.59-.18-1.539,.665-3.373,1.519-4.411,.731,.317,.682,1.96,1.285,4.112Zm4.968,13.788c-.916-.828,.101-1.634,.57-3.347,.29-1.061,.131-1.881-.025-2.491,1.798,1.402,4.499,5.094,3.802,6.188-.025,.039-.06,.072-.089,.109-1.509,.393-3.619,.129-4.258-.458h0Zm4.29-5.717c-1.91-2.526-2.668-1.656-3.129-3.005-.225-.653,.076-1.309,.62-1.812,1.023-.303,2.169-.13,2.769,.921,.932,1.639,1.45,4.629,1.494,6.484-.456-.674-1.026-1.634-1.754-2.588Z"/>
  <path class="cls-18" d="M390.217,318.029c-4.851-2.769-8.788-.52-8.788,5.023s3.936,12.288,8.788,15.066c4.852,2.769,8.782,.52,8.782-5.025s-3.93-12.289-8.782-15.064Zm-2.177,.592c1.737,.021,5.911,3.376,6.488,4.567,.578,1.198-.951,.756-2.35,1.248-1.78,.621-.938,2.327-1.983,1.898-1.529-.628-3.885-7.743-2.155-7.714h0Zm-2.617-.264c.894,.15,.786,1.885,1.427,4.175,.815,2.904,2.09,3.09,1.91,4.174-.266,1.592-5.796-.785-6.063-3.125-.266-2.334,1.831-5.381,2.726-5.224Zm2.292,16.379c-1.896-1.464-4.78-6.702-4.801-7.8s1.443,.414,3.237,1.335c2.285,1.17,2.228-.414,3.157,.685,1.37,1.606,.31,7.25-1.594,5.781h.001Zm8.45,1.932c-.909,1.427-4.78,1.235-5.696,.407-.908-.836,.107-1.634,.576-3.354,.591-2.177-.713-3.347,.044-3.753,1.103-.593,5.984,5.274,5.074,6.701h.002Zm-1.4-5.317c-1.91-2.52-2.667-1.657-3.129-3.005-.684-1.969,3.388-3.989,4.73-1.642,1.333,2.348,1.823,7.472,1.283,8.058-.541,.585-1.377-1.428-2.884-3.411Z"/>
  <path class="cls-16" d="M389.845,333.027c2.295,1.312,4.154,.249,4.154-2.374s-1.859-5.811-4.154-7.123c-2.294-1.312-4.155-.248-4.155,2.374s1.86,5.812,4.155,7.123Z"/>
  <path class="cls-21" d="M412.488,283.896l-1.927,1.658c-4.233-3.994-8.754-7.435-13.446-10.119l-2.755-1.578c-6.773-3.877-13.178-5.741-18.878-5.822l.008-.008c-.171,0-.333,.008-.504,.017-1,0-1.991,.053-2.946,.169-8.97,.936-14.644,3.602-19.904,10.298-6.025,7.099-7.276,16.709-6.835,25.88,0,8.996,2.107,18.642,5.79,28.012l-1.603,1.141s-7.863-16.172-8.862-34.164c-1-18,8.483-32.283,27.577-35.795,19.094-3.522,44.285,20.308,44.285,20.308v.003Z"/>
  <path class="cls-7" d="M412.488,283.896l-1.927,1.658c-4.233-3.994-8.754-7.435-13.446-10.119l-2.755-1.578c-6.773-3.877-13.178-5.741-18.878-5.822l.008-.008c-.171,0-.333,.008-.504,.017-1,0-1.991,.053-2.946,.169-8.97,.936-14.644,3.602-19.904,10.298-6.025,7.099-7.276,16.709-6.835,25.88,0,8.996,2.107,18.642,5.79,28.012l-1.603,1.141s-7.863-16.172-8.862-34.164c-1-18,8.483-32.283,27.577-35.795,19.094-3.522,44.285,20.308,44.285,20.308v.003Z"/>
  <path class="cls-21" d="M415.973,284.207c-1.433,1.721-3.406,3.112-5.522,4.119-.054,.035-.107,.062-.161,.08-.793,.375-1.595,.687-2.405,.946-.046,.008-.1,.026-.153,.035-5.243-5.429-11.699-10.689-17.627-14.256-26.199-15.726-47.581-7.836-47.698,25.596-.036,10.084,2.891,22.913,7.079,32.818-1.316-.143-2.359-.668-3.386-1.373-3.98-10.27-6.268-20.817-6.268-30.668-.502-10.342,.965-21.153,7.863-29.082,5.764-7.195,12.023-10.083,21.849-11.108,1.063-.133,2.153-.187,3.27-.195,.189,0,.37-.009,.559-.009l-.009,.009c6.341,.089,13.457,2.158,20.977,6.463l3.062,1.748c6.584,3.762,12.862,8.871,18.572,14.88l-.002-.003Z"/>
  <path class="cls-4" d="M415.973,284.207c-1.433,1.721-3.406,3.112-5.522,4.119-.054,.035-.107,.062-.161,.08-.793,.375-1.595,.687-2.405,.946-.046,.008-.1,.026-.153,.035-5.243-5.429-11.699-10.689-17.627-14.256-26.199-15.726-47.581-7.836-47.698,25.596-.036,10.084,2.891,22.913,7.079,32.818-1.316-.143-2.359-.668-3.386-1.373-3.98-10.27-6.268-20.817-6.268-30.668-.502-10.342,.965-21.153,7.863-29.082,5.764-7.195,12.023-10.083,21.849-11.108,1.063-.133,2.153-.187,3.27-.195,.189,0,.37-.009,.559-.009l-.009,.009c6.341,.089,13.457,2.158,20.977,6.463l3.062,1.748c6.584,3.762,12.862,8.871,18.572,14.88l-.002-.003Z"/>
  <path class="cls-21" d="M410.453,288.326v.009c-.055,.027-.108,.054-.162,.071-1.154,.562-1.234,.669-2.405,.946-.046,.008-.1,.026-.153,.035-5.242-5.429-11.699-10.689-17.627-14.256-26.199-15.726-47.58-7.836-47.698,25.596-.035,10.084,2.891,22.913,7.079,32.818-1.315-.143-2.359-.668-3.386-1.373-3.98-10.27-6.268-20.817-6.268-30.668-.466-12.637,2.261-27.659,14.32-34.387,8.664-4.788,20.544-4.012,33.649,3.477l3.053,1.756c6.98,3.986,13.6,9.487,19.599,15.977h-.001Z"/>
  <path class="cls-21" d="M389.848,330.039c-.415,0-.827-.17-1.122-.502l-14.65-16.483c-.153-.172-.263-.376-.322-.597l-14.435-53.929c-.213-.79,.262-1.601,1.06-1.811,.795-.216,1.617,.258,1.83,1.049l14.345,53.593,14.417,16.221c.547,.614,.485,1.55-.134,2.09-.284,.248-.637,.369-.987,.369h-.002Z"/>
  <path class="cls-7" d="M389.848,330.039c-.415,0-.827-.17-1.122-.502l-14.65-16.483c-.153-.172-.263-.376-.322-.597l-14.435-53.929c-.213-.79,.262-1.601,1.06-1.811,.795-.216,1.617,.258,1.83,1.049l14.345,53.593,14.417,16.221c.547,.614,.485,1.55-.134,2.09-.284,.248-.637,.369-.987,.369h-.002Z"/>
  <path class="cls-21" d="M362.339,255.552l-5.869-55.474c-.081-1.087,3.896-1.378,3.977-.291l5.868,55.475c.082,1.087-3.9,1.328-3.976,.29Z"/>
  <path class="cls-7" d="M362.339,255.552l-5.869-55.474c-.081-1.087,3.896-1.378,3.977-.291l5.868,55.475c.082,1.087-3.9,1.328-3.976,.29Z"/>
  <path class="cls-14" d="M361.21,244.877s.562,4.239,.483,6.159c-.072,1.766-3.535,4.445-2.425,7.934,1.109,3.49,2.563,8.895,2.563,8.895,0,0,1.917,.797,2.788-1.143l-1.445-5.37c-.428-1.593,.163-3.283,1.494-4.272l.594-.441c1.184-.88,2.892-.296,3.274,1.121l1.007,3.552s1.498-.206,2.971-.206c0,0-1.709-6.86-2.58-9.68-.687-2.227-4.259-1.104-4.45-4.01l-.399-3.759c.111,1.492-3.065,2.468-3.878,1.22h.003Z"/>
  <path class="cls-9" d="M360.447,199.787c-.081-1.087-4.058-.798-3.977,.291l1.482,14.009c.949,.667,2.504,1.358,4.174,1.575l-1.679-15.875Z"/>
  <path class="cls-16" d="M401.164,177.456l-3.175-5.429,13.424-7.673,.002,.004c.407-.246,.975-.221,1.604,.139,1.238,.707,2.241,2.427,2.241,3.841,0,.689-.241,1.173-.627,1.412l.004,.005-.03,.017-.006,.004-13.437,7.68Z"/>
  <path class="cls-14" d="M401.816,176.022c0,1.414-1.004,1.987-2.241,1.281-1.238-.707-2.241-2.427-2.241-3.842s1.003-1.988,2.241-1.28c1.237,.707,2.241,2.426,2.241,3.841Z"/>
  <path class="cls-18" d="M400.535,175.277c0,.237-.06,.433-.169,.563l-.339,.188-17.538,10.027c-2.035,1.165-3.301,3.336-3.301,5.665,0,3.376-1.835,6.534-4.796,8.221l-12.153,6.948-1.496-2.566,12.155-6.948c2.033-1.165,3.301-3.326,3.301-5.655,0-3.386,1.844-6.533,4.796-8.231l17.618-10.058,.179-.108c.18-.07,.419-.03,.668,.108,.589,.346,1.076,1.166,1.076,1.846h-.001Z"/>
  <path class="cls-14" d="M371.196,203.29c-.029-.88-.656-1.775-1.869-2.467l-7.832-4.477-8.1,4.629-.003,4.629,7.833,4.477c2.383,1.363,6.129,1.431,8.367,.152,1.101-.629,1.625-1.464,1.59-2.313,0,0,.042-3.779,.013-4.629h.001Z"/>
  <path class="cls-16" d="M361.494,196.346l7.833,4.477c2.384,1.363,2.505,3.504,.268,4.781-2.237,1.279-5.983,1.211-8.368-.152l-7.833-4.477,8.1-4.629Z"/>
  <path class="cls-18" d="M360.355,207.482c0,.266-.081,.473-.21,.602l-.22,.128c-.01,0-.02,0-.029,.01l-9.801,5.606c-2.044,1.175-3.46,.849-4.287,.375-.917-.523-2.004-1.757-2.004-4.688,0-1.5-.369-2.043-.518-2.121-.12-.07-.578-.03-1.296,.375l-28.345,16.204-1.496-2.566,28.347-16.205c2.043-1.165,3.459-.848,4.287-.374,.918,.522,2.014,1.766,2.014,4.687,0,1.51,.369,2.043,.508,2.131,.13,.07,.579,.03,1.296-.384l9.861-5.636s.01,0,.01-.009l.139-.07c.19-.079,.42-.049,.678,.099,.588,.336,1.066,1.154,1.066,1.836Z"/>
  <path class="cls-16" d="M310.949,227.47l-3.176-5.429,13.426-7.671,.002,.002c.408-.245,.974-.221,1.604,.14,1.238,.707,2.241,2.426,2.241,3.841,0,.687-.241,1.172-.627,1.412l.003,.005-.03,.017s-.005,.002-.007,.003l-13.437,7.679h.001Z"/>
  <path class="cls-23" d="M311.6,226.036c0,1.415-1.003,1.989-2.24,1.282-1.238-.708-2.241-2.427-2.241-3.842s1.003-1.988,2.241-1.281c1.237,.707,2.24,2.427,2.24,3.841Z"/>
  <path class="cls-21" d="M375.563,211.957c-1.63-.865-9.998-1.669-14.171,.769-4.139,2.418,2.923,10.521,6.258,12.426l7.913-13.195Z"/>
  <path class="cls-4" d="M375.563,211.957c-1.63-.865-9.998-1.669-14.171,.769-4.139,2.418,2.923,10.521,6.258,12.426l7.913-13.195Z"/>
  <path class="cls-21" d="M371.721,212.357c3.032-1.732,5.488-.327,5.488,3.137s-2.456,7.676-5.487,9.409c-3.031,1.732-5.488,.327-5.488-3.136s2.457-7.677,5.487-9.41Z"/>
  <path class="cls-3" d="M371.721,212.357c3.032-1.732,5.488-.327,5.488,3.137s-2.456,7.676-5.487,9.409c-3.031,1.732-5.488,.327-5.488-3.136s2.457-7.677,5.487-9.41Z"/>
  <path class="cls-21" d="M371.721,215.821c1.357-.776,2.458-.147,2.458,1.405s-1.101,3.438-2.458,4.213c-1.357,.776-2.458,.147-2.458-1.404s1.101-3.438,2.458-4.214Z"/>
  <path class="cls-18" d="M418.865,402.662c-.275,0-.549-.071-.797-.213l-65.508-37.438c-.547-.313-.857-.917-.788-1.54l8.539-76.009c.875-7.784,5.157-12.588,11.193-12.588,.066,0,.133,0,.198,.002l26.929,.467c6.892,.119,14.284,9.894,14.925,19.733l6.898,105.905c.037,.581-.25,1.135-.749,1.442-.258,.158-.549,.237-.841,.237v.002Zm-63.807-39.868l62.026,35.449-6.707-102.964c-.571-8.782-7.074-16.7-11.798-16.782l-26.929-.466c-4.414-.054-7.471,3.578-8.167,9.779l-8.424,74.984h-.001Z"/>
  <path class="cls-9" d="M418.865,402.662c-.275,0-.549-.071-.797-.213l-65.508-37.438c-.547-.313-.857-.917-.788-1.54l8.539-76.009c.875-7.784,5.157-12.588,11.193-12.588,.066,0,.133,0,.198,.002l26.929,.467c6.892,.119,14.284,9.894,14.925,19.733l6.898,105.905c.037,.581-.25,1.135-.749,1.442-.258,.158-.549,.237-.841,.237v.002Zm-63.807-39.868l62.026,35.449-6.707-102.964c-.571-8.782-7.074-16.7-11.798-16.782l-26.929-.466c-4.414-.054-7.471,3.578-8.167,9.779l-8.424,74.984h-.001Z"/>
  <path class="cls-18" d="M258.379,492.925c-.276,0-.55-.071-.796-.213l-65.508-37.437c-.548-.312-.857-.917-.788-1.54l8.539-76.007c.886-7.871,5.276-12.66,11.39-12.586l26.93,.466c6.891,.12,14.283,9.894,14.925,19.734l6.898,105.903c.037,.582-.251,1.135-.749,1.443-.258,.157-.549,.237-.841,.237Zm-63.809-39.867l62.026,35.449-6.708-102.963c-.572-8.781-7.074-16.7-11.798-16.782l-26.93-.467c-.045,0-.091-.001-.135-.001-4.343,0-7.34,3.644-8.03,9.782l-8.425,74.982Z"/>
  <path class="cls-8" d="M258.379,492.925c-.276,0-.55-.071-.796-.213l-65.508-37.437c-.548-.312-.857-.917-.788-1.54l8.539-76.007c.886-7.871,5.276-12.66,11.39-12.586l26.93,.466c6.891,.12,14.283,9.894,14.925,19.734l6.898,105.903c.037,.582-.251,1.135-.749,1.443-.258,.157-.549,.237-.841,.237Zm-63.809-39.867l62.026,35.449-6.708-102.963c-.572-8.781-7.074-16.7-11.798-16.782l-26.93-.467c-.045,0-.091-.001-.135-.001-4.343,0-7.34,3.644-8.03,9.782l-8.425,74.982Z"/>
  <path class="cls-21" d="M215.871,429.052l-.129-.27c-5.015-10.459-8.454-21.588-10.208-33.033l-6.249-40.765c-.121-.725-.485-3.088-2.519-1.857-1.972,1.193-1.848,1.892-1.742,2.632l6.187,40.317c1.933,12.602,5.907,24.813,11.771,36.163,.543,.511,1.605,.66,2.698-.315,1.093-.959,.673-1.908,.193-2.872h-.002Z"/>
  <path class="cls-10" d="M215.871,429.052l-.129-.27c-5.015-10.459-8.454-21.588-10.208-33.033l-6.249-40.765c-.121-.725-.485-3.088-2.519-1.857-1.972,1.193-1.848,1.892-1.742,2.632l6.187,40.317c1.933,12.602,5.907,24.813,11.771,36.163,.543,.511,1.605,.66,2.698-.315,1.093-.959,.673-1.908,.193-2.872h-.002Z"/>
  <path class="cls-14" d="M217.768,376.719l-2.888-1.562c-7.103-3.827-13.772-5.59-19.668-5.526l.008-.009c-.174,.003-.346,.019-.519,.025-1.038,.031-2.055,.108-3.042,.252-9.253,1.204-15.044,4.101-20.304,11.154-6.041,7.497-7.082,17.458-6.387,26.931,.716,28.178,21.561,61.939,46.571,75.404l2.887,1.563c7.106,3.825,13.77,5.59,19.67,5.526l-.008,.011c.059,0,.117-.006,.177-.008,.078-.002,.158,.004,.236,.003,.391-.009,.772-.029,1.154-.06,.134-.003,.248-.006,.371-.019,.328-.028,.659-.056,.987-.106,.174-.015,.339-.041,.494-.064,.088-.011,.174-.029,.261-.043,9.559-1.277,15.566-4.492,20.789-11.948,.226-.314,.444-.639,.659-.969,.026-.04,.051-.079,.077-.118,.246-.381,.439-.801,.717-1.171,2.837-3.765,4.633-11.969,4.413-20.611l-.081-3.255c-.717-28.178-21.562-61.938-46.572-75.404l-.002,.004Zm-4.899,102.955c-23.597-12.718-43.277-44.576-43.952-71.157-.676-26.593,17.908-37.84,41.505-25.122,23.597,12.717,43.276,44.576,43.953,71.157,.676,26.593-17.91,37.838-41.506,25.122Z"/>
  <path class="cls-23" d="M211.75,379.677l-2.885-1.562c-12.369-6.664-23.436-7.113-31.384-2.454-11.068,6.538-13.245,20.578-12.512,32.326,.717,28.178,21.561,61.938,46.571,75.404l2.888,1.562c7.266,3.912,14.077,5.683,20.076,5.534,.391-.01,.772-.029,1.153-.06,.135-.004,.248-.006,.372-.019,.328-.029,.659-.057,.987-.107,.174-.014,.339-.04,.493-.063,.33-.039,.658-.099,.976-.158,.299-.047,.586-.106,.863-.174,.286-.058,.564-.116,.83-.195,.532-.135,1.055-.29,1.556-.467,.215-.068,.429-.143,.644-.22,.246-.088,.48-.175,.706-.273,.203-.086,.397-.163,.591-.258,.428-.185,.846-.379,1.253-.604,.204-.096,.408-.215,.611-.332,.051-.032,.101-.064,.163-.095,.083-.033,.153-.086,.234-.138,.132-.065,.255-.149,.387-.225,7.806-4.881,12.442-14.827,12.088-28.762l-.083-3.255c-.716-28.178-21.571-61.94-46.573-75.404h-.005Zm1.119,99.996c-23.597-12.718-43.277-44.576-43.952-71.157-.676-26.593,17.908-37.84,41.506-25.122,23.596,12.717,43.276,44.576,43.952,71.157,.676,26.593-17.91,37.838-41.506,25.122Z"/>
  <path class="cls-21" d="M244.019,472.074c-6.459,8.011-17.975,9.416-31.286,2.251-20.979-11.299-38.471-39.619-39.072-63.258-.269-10.56,2.887-18.397,8.33-22.836-3.756,4.624-5.83,11.442-5.61,20.098,.6,23.628,18.091,51.947,39.072,63.257,11.594,6.25,21.834,5.985,28.566,.488Z"/>
  <path class="cls-8" d="M244.019,472.074c-6.459,8.011-17.975,9.416-31.286,2.251-20.979-11.299-38.471-39.619-39.072-63.258-.269-10.56,2.887-18.397,8.33-22.836-3.756,4.624-5.83,11.442-5.61,20.098,.6,23.628,18.091,51.947,39.072,63.257,11.594,6.25,21.834,5.985,28.566,.488Z"/>
  <path class="cls-21" d="M210.419,383.395c-23.597-12.713-42.179-1.468-41.504,25.118,.675,26.587,20.353,58.447,43.951,71.16,23.597,12.713,42.179,1.468,41.504-25.118-.675-26.586-20.354-58.446-43.952-71.16h.001Zm2.312,90.929c-20.975-11.3-38.466-39.62-39.067-63.252-.6-23.632,15.916-33.629,36.892-22.326,20.975,11.301,38.466,39.62,39.067,63.252,.6,23.632-15.916,33.628-36.892,22.327h0Z"/>
  <path class="cls-4" d="M210.419,383.395c-23.597-12.713-42.179-1.468-41.504,25.118,.675,26.587,20.353,58.447,43.951,71.16,23.597,12.713,42.179,1.468,41.504-25.118-.675-26.586-20.354-58.446-43.952-71.16h.001Zm2.312,90.929c-20.975-11.3-38.466-39.62-39.067-63.252-.6-23.632,15.916-33.629,36.892-22.326,20.975,11.301,38.466,39.62,39.067,63.252,.6,23.632-15.916,33.628-36.892,22.327h0Z"/>
  <path class="cls-20" d="M248.061,440.271c-.096-.415-.2-.832-.305-1.247l-36.125-8.038,32.367-3.101c-.154-.365-.304-.733-.463-1.097l-31.904,4.198,26.15-15.157c-.2-.325-.409-.644-.612-.966l-25.538,16.123,18.233-26.072c-.258-.303-.514-.606-.776-.905l-17.457,26.977,9.162-35.175c-.328-.277-.655-.556-.986-.824l-8.176,35.998-.49-41.91c-.195-.108-.388-.226-.585-.332-.195-.105-.389-.197-.584-.298l1.659,42.54-10.119-45.891c-.422-.113-.839-.21-1.254-.303l11.373,46.194-19.114-46.823c-.403,.03-.798,.079-1.192,.132l20.306,46.691-26.867-44.588c-.337,.183-.67,.371-.995,.575l27.862,44.013-32.876-39.341c-.233,.315-.457,.642-.675,.976l33.551,38.365-36.681-31.346c-.114,.402-.224,.807-.323,1.225l37.001,30.121-37.969-21.105c0,.396-.007,.786,.002,1.189,0,.038,.004,.076,.007,.113l37.96,19.802-36.656-9.338c.089,.413,.177,.827,.275,1.241l36.381,8.098-32.781,3.149c.15,.366,.307,.73,.462,1.096l32.319-4.245-26.612,15.437c.197,.326,.389,.656,.59,.979l26.022-16.416-18.633,26.668c.254,.306,.515,.604,.774,.905l17.859-27.573-9.38,36.063c.327,.28,.653,.563,.984,.835l8.396-36.898,.516,43.006c.195,.109,.388,.226,.585,.331,.196,.107,.388,.198,.584,.298l-1.685-43.635,10.388,47.056c.422,.109,.836,.198,1.25,.287l-11.638-47.342,19.554,47.874c.4-.039,.798-.08,1.188-.141l-20.742-47.733,27.377,45.418c.33-.193,.651-.401,.969-.615l-28.346-44.804,33.313,39.856c.224-.324,.448-.652,.659-.996l-33.972-38.86,36.938,31.562c.102-.411,.196-.83,.284-1.255l-37.219-30.307,37.992,21.12c0-.038,0-.072,0-.11-.011-.405-.038-.814-.059-1.22l-37.935-19.791,36.431,9.284v.003Z"/>
  <path class="cls-18" d="M213.14,420.112c-2.616-1.411-4.937-1.442-6.565-.375-.335,.223-.747,.418-1.18,.688-.121,.07-.234,.152-.347,.233-.02,.015-.04,.026-.061,.041-.007,.006-.013,.013-.02,.019-.153,.115-.298,.24-.436,.375-.031,.031-.062,.061-.093,.092-.122,.127-.238,.26-.349,.403-.04,.054-.079,.109-.118,.163-.094,.135-.185,.272-.269,.418-.046,.08-.087,.164-.13,.247-.069,.137-.138,.273-.197,.42-.045,.11-.084,.226-.124,.341-.048,.135-.096,.27-.135,.413-.041,.144-.072,.295-.104,.445-.028,.13-.06,.257-.083,.394-.03,.188-.05,.388-.069,.586-.011,.112-.029,.217-.037,.332-.021,.321-.028,.654-.019,1,.145,5.732,4.391,12.602,9.48,15.346,.319,.171,.632,.322,.942,.453,.185,.079,.364,.136,.546,.201,.124,.043,.251,.098,.372,.136,.126,.039,.245,.061,.37,.091,.174,.046,.35,.096,.519,.129,.068,.013,.134,.014,.202,.025,.22,.034,.441,.066,.654,.078h.044c1.126,.054,2.123-.212,2.941-.759,.435-.266,.822-.466,1.312-.772,1.569-.992,2.503-3.008,2.432-5.819-.147-5.731-4.391-12.602-9.481-15.346l.003,.002Zm-2.155,17.341c-1.588-1.164-3.863-4.746-4.774-6.754,.482,.302,1.031,.641,1.613,.921,2.394,1.151,2.293-.486,3.282,.628,.949,1.056,.879,3.906,.162,5.364-.093-.038-.185-.087-.283-.159Zm4.335-10.766c-.145,.055-.272,.116-.384,.183-.249,.148-1.259,.751-1.373,.82-.343,.202-.546,.453-.679,.703-1.198-1.15-2.651-4.883-2.59-6.657,2.053,.637,5.506,3.35,6.055,4.417,.049,.096,.08,.179,.103,.256-.36,.057-.751,.134-1.134,.279h.002Zm-6.925-1.017c.833,2.698,1.992,3.085,2.088,3.97-1.794-.24-4.74-1.888-4.979-3.588-.227-1.585,.6-3.504,1.454-4.6,.765,.309,.758,2.01,1.436,4.219h0Zm5.497,14.123c-.967-.833,.062-1.692,.501-3.475,.273-1.104,.085-1.948-.091-2.576,1.895,1.405,4.783,5.15,4.092,6.3-.024,.04-.06,.075-.088,.113-1.55,.446-3.739,.229-4.415-.364v.002Zm4.285-6.019c-2.041-2.563-2.801-1.643-3.313-3.026-.248-.67,.043-1.355,.592-1.889,1.05-.34,2.239-.189,2.886,.881,1.006,1.669,1.622,4.747,1.715,6.663-.491-.685-1.104-1.662-1.881-2.629h.001Z"/>
  <path class="cls-8" d="M213.14,420.112c-2.616-1.411-4.937-1.442-6.565-.375-.335,.223-.747,.418-1.18,.688-.121,.07-.234,.152-.347,.233-.02,.015-.04,.026-.061,.041-.007,.006-.013,.013-.02,.019-.153,.115-.298,.24-.436,.375-.031,.031-.062,.061-.093,.092-.122,.127-.238,.26-.349,.403-.04,.054-.079,.109-.118,.163-.094,.135-.185,.272-.269,.418-.046,.08-.087,.164-.13,.247-.069,.137-.138,.273-.197,.42-.045,.11-.084,.226-.124,.341-.048,.135-.096,.27-.135,.413-.041,.144-.072,.295-.104,.445-.028,.13-.06,.257-.083,.394-.03,.188-.05,.388-.069,.586-.011,.112-.029,.217-.037,.332-.021,.321-.028,.654-.019,1,.145,5.732,4.391,12.602,9.48,15.346,.319,.171,.632,.322,.942,.453,.185,.079,.364,.136,.546,.201,.124,.043,.251,.098,.372,.136,.126,.039,.245,.061,.37,.091,.174,.046,.35,.096,.519,.129,.068,.013,.134,.014,.202,.025,.22,.034,.441,.066,.654,.078h.044c1.126,.054,2.123-.212,2.941-.759,.435-.266,.822-.466,1.312-.772,1.569-.992,2.503-3.008,2.432-5.819-.147-5.731-4.391-12.602-9.481-15.346l.003,.002Zm-2.155,17.341c-1.588-1.164-3.863-4.746-4.774-6.754,.482,.302,1.031,.641,1.613,.921,2.394,1.151,2.293-.486,3.282,.628,.949,1.056,.879,3.906,.162,5.364-.093-.038-.185-.087-.283-.159Zm4.335-10.766c-.145,.055-.272,.116-.384,.183-.249,.148-1.259,.751-1.373,.82-.343,.202-.546,.453-.679,.703-1.198-1.15-2.651-4.883-2.59-6.657,2.053,.637,5.506,3.35,6.055,4.417,.049,.096,.08,.179,.103,.256-.36,.057-.751,.134-1.134,.279h.002Zm-6.925-1.017c.833,2.698,1.992,3.085,2.088,3.97-1.794-.24-4.74-1.888-4.979-3.588-.227-1.585,.6-3.504,1.454-4.6,.765,.309,.758,2.01,1.436,4.219h0Zm5.497,14.123c-.967-.833,.062-1.692,.501-3.475,.273-1.104,.085-1.948-.091-2.576,1.895,1.405,4.783,5.15,4.092,6.3-.024,.04-.06,.075-.088,.113-1.55,.446-3.739,.229-4.415-.364v.002Zm4.285-6.019c-2.041-2.563-2.801-1.643-3.313-3.026-.248-.67,.043-1.355,.592-1.889,1.05-.34,2.239-.189,2.886,.881,1.006,1.669,1.622,4.747,1.715,6.663-.491-.685-1.104-1.662-1.881-2.629h.001Z"/>
  <path class="cls-18" d="M211.759,420.929c-5.087-2.737-9.097-.311-8.953,5.421,.146,5.732,4.391,12.602,9.481,15.345,5.088,2.738,9.091,.313,8.944-5.419-.146-5.732-4.384-12.601-9.472-15.347Zm-2.236,.669c1.797-.024,6.2,3.336,6.827,4.554,.628,1.224-.964,.806-2.396,1.352-1.824,.688-.907,2.428-1.999,2.013-1.597-.61-4.222-7.904-2.432-7.919Zm-2.712-.206c.928,.132,.863,1.928,1.586,4.279,.919,2.981,2.241,3.14,2.085,4.266-.235,1.651-6.013-.662-6.351-3.075-.335-2.405,1.752-5.609,2.68-5.47Zm2.8,16.871c-1.998-1.463-5.116-6.804-5.168-7.939-.051-1.136,1.501,.391,3.381,1.296,2.394,1.151,2.293-.486,3.282,.628,1.459,1.623,.511,7.487-1.495,6.015Zm8.785,1.782c-.902,1.499-4.909,1.398-5.876,.567-.962-.841,.068-1.692,.508-3.482,.554-2.265-.825-3.442-.054-3.882,1.124-.64,6.324,5.297,5.422,6.797Zm-1.586-5.461c-2.041-2.554-2.801-1.642-3.313-3.024-.76-2.019,3.398-4.211,4.846-1.818,1.441,2.392,2.081,7.676,1.538,8.295-.543,.618-1.461-1.439-3.071-3.453Z"/>
  <path class="cls-16" d="M211.769,436.443c2.406,1.296,4.3,.149,4.232-2.561-.069-2.711-2.076-5.959-4.482-7.256-2.406-1.296-4.301-.149-4.232,2.561,.068,2.712,2.076,5.959,4.482,7.256Z"/>
  <path class="cls-18" d="M233.883,385.072l-1.95,1.763c-4.48-4.018-9.244-7.46-14.165-10.112l-2.891-1.561c-7.102-3.835-13.771-5.597-19.668-5.532l.009-.01c-.177,.005-.344,.019-.522,.032-1.033,.027-2.056,.108-3.039,.25-9.249,1.2-15.044,4.101-20.305,11.159-6.041,7.494-7.083,17.46-6.386,26.929,.236,9.299,2.668,19.216,6.724,28.807l-1.628,1.22s-8.552-16.515-10.058-35.087c-1.507-18.58,7.921-33.589,27.566-37.711,19.646-4.132,46.312,19.853,46.312,19.853h.001Z"/>
  <path class="cls-7" d="M233.883,385.072l-1.95,1.763c-4.48-4.018-9.244-7.46-14.165-10.112l-2.891-1.561c-7.102-3.835-13.771-5.597-19.668-5.532l.009-.01c-.177,.005-.344,.019-.522,.032-1.033,.027-2.056,.108-3.039,.25-9.249,1.2-15.044,4.101-20.305,11.159-6.041,7.494-7.083,17.46-6.386,26.929,.236,9.299,2.668,19.216,6.724,28.807l-1.628,1.22s-8.552-16.515-10.058-35.087c-1.507-18.58,7.921-33.589,27.566-37.711,19.646-4.132,46.312,19.853,46.312,19.853h.001Z"/>
  <path class="cls-13" d="M237.494,385.305c-1.436,1.816-3.438,3.304-5.599,4.399-.054,.038-2.728,1.156-2.783,1.167-5.563-5.478-12.376-10.748-18.596-14.283-27.496-15.582-49.392-6.875-48.633,27.687,.227,10.424,3.59,23.611,8.179,33.741-1.362-.113-2.456-.63-3.536-1.332-4.385-10.515-7.027-21.358-7.286-31.542-.791-10.676,.439-21.889,7.365-30.264,5.769-7.586,12.163-10.733,22.294-12.046,1.096-.165,2.22-.249,3.375-.287,.196-.004,.381-.018,.576-.023l-.009,.01c6.557-.071,13.965,1.883,21.853,6.141l3.212,1.727c6.904,3.72,13.526,8.839,19.588,14.903v.002Z"/>
  <path class="cls-18" d="M231.895,389.705c-.004,.01-2.73,1.166-2.784,1.167-5.562-5.478-12.375-10.748-18.595-14.283-27.496-15.582-49.392-6.875-48.633,27.687,.227,10.425,3.59,23.612,8.179,33.741-1.362-.113-2.457-.63-3.536-1.332-4.385-10.515-7.027-21.358-7.286-31.542-.813-13.05,1.61-28.648,13.899-35.914,8.831-5.171,21.131-4.675,34.875,2.729l3.202,1.737c7.32,3.94,14.307,9.455,20.678,16.01h0Z"/>
  <path class="cls-14" d="M61.9,292.67l-2.888-1.561c-7.103-3.828-13.772-5.591-19.671-5.527l.009-.008c-.174,.005-.345,.019-.519,.026-1.036,.03-2.054,.107-3.04,.252-9.255,1.205-15.046,4.103-20.304,11.156-6.042,7.497-7.085,17.46-6.389,26.934,.717,28.18,21.563,61.942,46.575,75.409l2.886,1.562c7.107,3.826,13.771,5.59,19.673,5.526l-.009,.013c.059,0,.117-.008,.177-.009,.079,0,.159,.005,.236,.004,.393-.01,.773-.028,1.154-.059,.135-.004,.248-.006,.37-.019,.33-.029,.659-.057,.987-.107,.174-.013,.341-.039,.494-.063,.089-.01,.174-.03,.261-.042,9.56-1.277,15.568-4.493,20.79-11.95,.227-.313,.444-.638,.658-.968,.026-.04,.052-.079,.077-.12,.245-.381,.438-.801,.717-1.17,2.836-3.764,4.633-11.969,4.412-20.611l-.083-3.255c-.717-28.179-21.562-61.943-46.575-75.409l.003-.004Zm-4.9,102.962c-23.599-12.718-43.28-44.579-43.955-71.162-.676-26.595,17.909-37.841,41.508-25.123,23.599,12.718,43.28,44.578,43.955,71.163,.676,26.595-17.909,37.84-41.508,25.122Z"/>
  <path class="cls-23" d="M55.882,295.628l-2.887-1.561c-12.371-6.665-23.438-7.114-31.385-2.455-11.068,6.541-13.248,20.58-12.514,32.328,.717,28.181,21.563,61.943,46.575,75.409l2.886,1.563c7.267,3.913,14.078,5.683,20.077,5.532,.393-.009,.773-.028,1.154-.058,.134-.004,.248-.006,.37-.02,.329-.028,.659-.056,.987-.106,.174-.014,.341-.039,.494-.064,.329-.038,.657-.097,.976-.156,.296-.049,.584-.106,.861-.175,.287-.058,.565-.117,.83-.194,.533-.135,1.055-.292,1.556-.468,.216-.067,.431-.144,.645-.221,.245-.088,.48-.176,.705-.272,.205-.087,.398-.164,.592-.261,.428-.184,.847-.378,1.254-.603,.203-.097,.407-.215,.611-.332,.05-.033,.101-.065,.162-.095,.082-.033,.153-.086,.234-.139,.132-.064,.254-.149,.386-.224,7.806-4.88,12.443-14.827,12.088-28.765l-.083-3.255c-.717-28.18-21.574-61.942-46.575-75.409h.001Zm1.118,100.005c-23.599-12.718-43.28-44.579-43.955-71.162-.676-26.595,17.909-37.841,41.508-25.123,23.599,12.718,43.28,44.578,43.955,71.163,.676,26.595-17.909,37.84-41.508,25.122Z"/>
  <path class="cls-21" d="M88.151,388.031c-6.458,8.012-17.975,9.417-31.288,2.251-20.98-11.3-38.472-39.621-39.073-63.261-.269-10.56,2.887-18.399,8.331-22.836-3.756,4.623-5.831,11.443-5.61,20.099,.601,23.629,18.094,51.95,39.075,63.261,11.594,6.25,21.837,5.983,28.566,.486Z"/>
  <path class="cls-8" d="M88.151,388.031c-6.458,8.012-17.975,9.417-31.288,2.251-20.98-11.3-38.472-39.621-39.073-63.261-.269-10.56,2.887-18.399,8.331-22.836-3.756,4.623-5.831,11.443-5.61,20.099,.601,23.629,18.094,51.95,39.075,63.261,11.594,6.25,21.837,5.983,28.566,.486Z"/>
  <path class="cls-21" d="M54.551,299.346c-23.6-12.716-42.183-1.469-41.507,25.118,.676,26.589,20.355,58.451,43.955,71.165s42.183,1.468,41.506-25.118c-.675-26.589-20.354-58.451-43.954-71.165Zm2.312,90.934c-20.977-11.302-38.469-39.622-39.07-63.256-.601-23.633,15.918-33.631,36.895-22.329,20.976,11.302,38.469,39.623,39.071,63.257,.599,23.633-15.919,33.63-36.895,22.329h0Z"/>
  <path class="cls-4" d="M54.551,299.346c-23.6-12.716-42.183-1.469-41.507,25.118,.676,26.589,20.355,58.451,43.955,71.165s42.183,1.468,41.506-25.118c-.675-26.589-20.354-58.451-43.954-71.165Zm2.312,90.934c-20.977-11.302-38.469-39.622-39.07-63.256-.601-23.633,15.918-33.631,36.895-22.329,20.976,11.302,38.469,39.623,39.071,63.257,.599,23.633-15.919,33.63-36.895,22.329h0Z"/>
  <path class="cls-20" d="M92.195,356.225c-.096-.416-.2-.831-.304-1.247l-36.129-8.039,32.369-3.101c-.154-.366-.302-.732-.463-1.096l-31.906,4.197,26.151-15.159c-.2-.325-.409-.643-.612-.966l-25.539,16.125,18.233-26.074c-.258-.304-.515-.607-.776-.905l-17.459,26.979,9.164-35.177c-.329-.277-.655-.555-.987-.823l-8.177,36.001-.489-41.912c-.195-.11-.39-.226-.586-.333-.195-.106-.387-.195-.583-.298l1.658,42.543-10.119-45.895c-.421-.111-.839-.209-1.255-.302l11.374,46.197-19.114-46.827c-.404,.032-.799,.079-1.192,.132l20.306,46.695-26.867-44.592c-.338,.182-.671,.371-.994,.577l27.862,44.015-32.876-39.344c-.233,.315-.457,.643-.675,.976l33.551,38.368-36.681-31.348c-.114,.402-.223,.809-.322,1.224l37.003,30.124-37.972-21.107c0,.396-.006,.787,.004,1.191,0,.038,.005,.075,.005,.113l37.963,19.803-36.659-9.339c.089,.413,.178,.827,.275,1.241l36.384,8.098-32.783,3.148c.149,.367,.307,.732,.462,1.097l32.322-4.245-26.613,15.438c.196,.326,.389,.654,.589,.979l26.024-16.417-18.635,26.669c.255,.306,.516,.604,.776,.905l17.859-27.574-9.38,36.065c.328,.28,.653,.563,.984,.836l8.398-36.901,.517,43.01c.195,.109,.389,.225,.585,.331,.196,.106,.389,.196,.584,.298l-1.686-43.639,10.389,47.059c.421,.108,.836,.197,1.251,.287l-11.64-47.346,19.554,47.877c.4-.039,.8-.081,1.19-.141l-20.744-47.736,27.378,45.421c.331-.193,.654-.401,.971-.615l-28.349-44.806,33.315,39.859c.226-.326,.448-.654,.659-.997l-33.974-38.862,36.942,31.565c.102-.412,.196-.831,.284-1.256l-37.223-30.308,37.996,21.121v-.11c-.011-.404-.038-.813-.058-1.22l-37.937-19.792,36.434,9.285h-.005Z"/>
  <path class="cls-18" d="M57.27,336.065c-2.616-1.411-4.936-1.441-6.564-.375-.336,.222-.748,.419-1.179,.689-.121,.069-.234,.151-.347,.233-.02,.015-.041,.026-.061,.039-.007,.007-.013,.013-.021,.02-.153,.114-.297,.239-.435,.375-.032,.029-.062,.061-.094,.091-.121,.127-.238,.26-.348,.403-.041,.054-.079,.109-.118,.164-.094,.134-.185,.271-.269,.418-.046,.079-.087,.163-.13,.246-.069,.137-.137,.274-.197,.42-.045,.11-.084,.228-.125,.342-.047,.136-.096,.269-.136,.413-.04,.143-.07,.295-.103,.445-.027,.13-.061,.256-.083,.393-.032,.188-.051,.388-.07,.586-.011,.113-.029,.218-.036,.334-.021,.321-.028,.653-.02,.999,.147,5.733,4.391,12.602,9.481,15.346,.318,.172,.632,.323,.942,.455,.185,.078,.365,.136,.546,.2,.123,.044,.249,.099,.371,.137,.126,.037,.246,.059,.369,.091,.174,.044,.351,.097,.521,.128,.068,.013,.132,.015,.2,.026,.222,.034,.442,.066,.654,.078,.016,0,.03,0,.044,0,1.127,.055,2.123-.211,2.942-.759,.434-.268,.822-.466,1.311-.772,1.571-.992,2.504-3.009,2.434-5.819-.147-5.733-4.393-12.603-9.481-15.347h.002Zm-2.154,17.343c-1.588-1.164-3.863-4.746-4.774-6.755,.481,.301,1.03,.641,1.613,.922,2.393,1.15,2.292-.486,3.283,.626,.948,1.057,.878,3.907,.16,5.366-.091-.038-.185-.087-.282-.158h0Zm4.334-10.769c-.144,.054-.271,.118-.383,.182-.251,.148-1.26,.751-1.374,.82-.343,.203-.545,.453-.677,.705-1.198-1.151-2.652-4.885-2.59-6.66,2.053,.637,5.506,3.351,6.056,4.417,.049,.097,.08,.178,.102,.257-.36,.057-.752,.134-1.134,.279Zm-6.923-1.016c.832,2.699,1.99,3.087,2.088,3.972-1.794-.242-4.741-1.889-4.979-3.588-.227-1.587,.599-3.504,1.454-4.601,.765,.309,.757,2.009,1.437,4.218h0Zm5.497,14.124c-.969-.833,.062-1.691,.5-3.475,.274-1.104,.086-1.948-.09-2.575,1.895,1.404,4.783,5.151,4.092,6.301-.024,.04-.06,.075-.089,.113-1.549,.445-3.737,.229-4.413-.364Zm4.284-6.02c-2.042-2.562-2.801-1.643-3.313-3.025-.249-.67,.044-1.355,.592-1.89,1.05-.338,2.238-.189,2.886,.881,1.006,1.671,1.62,4.749,1.715,6.665-.491-.685-1.103-1.662-1.88-2.631Z"/>
  <path class="cls-8" d="M57.27,336.065c-2.616-1.411-4.936-1.441-6.564-.375-.336,.222-.748,.419-1.179,.689-.121,.069-.234,.151-.347,.233-.02,.015-.041,.026-.061,.039-.007,.007-.013,.013-.021,.02-.153,.114-.297,.239-.435,.375-.032,.029-.062,.061-.094,.091-.121,.127-.238,.26-.348,.403-.041,.054-.079,.109-.118,.164-.094,.134-.185,.271-.269,.418-.046,.079-.087,.163-.13,.246-.069,.137-.137,.274-.197,.42-.045,.11-.084,.228-.125,.342-.047,.136-.096,.269-.136,.413-.04,.143-.07,.295-.103,.445-.027,.13-.061,.256-.083,.393-.032,.188-.051,.388-.07,.586-.011,.113-.029,.218-.036,.334-.021,.321-.028,.653-.02,.999,.147,5.733,4.391,12.602,9.481,15.346,.318,.172,.632,.323,.942,.455,.185,.078,.365,.136,.546,.2,.123,.044,.249,.099,.371,.137,.126,.037,.246,.059,.369,.091,.174,.044,.351,.097,.521,.128,.068,.013,.132,.015,.2,.026,.222,.034,.442,.066,.654,.078,.016,0,.03,0,.044,0,1.127,.055,2.123-.211,2.942-.759,.434-.268,.822-.466,1.311-.772,1.571-.992,2.504-3.009,2.434-5.819-.147-5.733-4.393-12.603-9.481-15.347h.002Zm-2.154,17.343c-1.588-1.164-3.863-4.746-4.774-6.755,.481,.301,1.03,.641,1.613,.922,2.393,1.15,2.292-.486,3.283,.626,.948,1.057,.878,3.907,.16,5.366-.091-.038-.185-.087-.282-.158h0Zm4.334-10.769c-.144,.054-.271,.118-.383,.182-.251,.148-1.26,.751-1.374,.82-.343,.203-.545,.453-.677,.705-1.198-1.151-2.652-4.885-2.59-6.66,2.053,.637,5.506,3.351,6.056,4.417,.049,.097,.08,.178,.102,.257-.36,.057-.752,.134-1.134,.279Zm-6.923-1.016c.832,2.699,1.99,3.087,2.088,3.972-1.794-.242-4.741-1.889-4.979-3.588-.227-1.587,.599-3.504,1.454-4.601,.765,.309,.757,2.009,1.437,4.218h0Zm5.497,14.124c-.969-.833,.062-1.691,.5-3.475,.274-1.104,.086-1.948-.09-2.575,1.895,1.404,4.783,5.151,4.092,6.301-.024,.04-.06,.075-.089,.113-1.549,.445-3.737,.229-4.413-.364Zm4.284-6.02c-2.042-2.562-2.801-1.643-3.313-3.025-.249-.67,.044-1.355,.592-1.89,1.05-.338,2.238-.189,2.886,.881,1.006,1.671,1.62,4.749,1.715,6.665-.491-.685-1.103-1.662-1.88-2.631Z"/>
  <path class="cls-18" d="M55.889,336.883c-5.087-2.738-9.097-.313-8.952,5.419,.146,5.733,4.391,12.602,9.481,15.347,5.088,2.738,9.092,.312,8.945-5.42-.146-5.731-4.385-12.602-9.474-15.346Zm-2.234,.668c1.796-.023,6.2,3.338,6.828,4.555,.627,1.225-.964,.806-2.397,1.352-1.824,.687-.908,2.428-1.999,2.012-1.597-.609-4.221-7.903-2.432-7.919Zm-2.712-.205c.928,.132,.862,1.926,1.585,4.278,.918,2.983,2.244,3.141,2.084,4.267-.234,1.652-6.012-.662-6.35-3.075-.337-2.406,1.753-5.609,2.681-5.47Zm2.801,16.871c-1.999-1.464-5.117-6.805-5.17-7.939-.051-1.136,1.502,.391,3.382,1.297,2.394,1.15,2.292-.486,3.283,.626,1.457,1.626,.511,7.487-1.495,6.016Zm8.785,1.782c-.901,1.498-4.908,1.398-5.877,.566-.961-.84,.068-1.691,.508-3.482,.554-2.265-.825-3.442-.054-3.881,1.124-.642,6.325,5.297,5.423,6.797Zm-1.586-5.461c-2.042-2.555-2.802-1.643-3.313-3.025-.76-2.018,3.398-4.212,4.846-1.819,1.44,2.393,2.081,7.677,1.538,8.297-.544,.618-1.462-1.442-3.071-3.453Z"/>
  <path class="cls-16" d="M55.899,352.398c2.408,1.296,4.302,.149,4.233-2.561-.068-2.71-2.076-5.96-4.482-7.257-2.406-1.296-4.301-.149-4.232,2.561,.068,2.711,2.075,5.96,4.481,7.256h0Z"/>
  <path class="cls-18" d="M78.015,301.024l-1.95,1.764c-4.481-4.02-9.244-7.46-14.165-10.114l-2.89-1.561c-7.103-3.835-13.773-5.596-19.669-5.532l.009-.01c-.178,.005-.344,.019-.521,.032-1.034,.026-2.057,.107-3.041,.252-9.249,1.198-15.044,4.1-20.305,11.157-6.042,7.495-7.082,17.463-6.386,26.931,.237,9.299,2.667,19.218,6.723,28.809l-1.627,1.22s-8.553-16.516-10.058-35.089c-1.507-18.582,7.923-33.59,27.568-37.713,19.647-4.132,46.315,19.855,46.315,19.855h-.001Z"/>
  <path class="cls-7" d="M78.015,301.024l-1.95,1.764c-4.481-4.02-9.244-7.46-14.165-10.114l-2.89-1.561c-7.103-3.835-13.773-5.596-19.669-5.532l.009-.01c-.178,.005-.344,.019-.521,.032-1.034,.026-2.057,.107-3.041,.252-9.249,1.198-15.044,4.1-20.305,11.157-6.042,7.495-7.082,17.463-6.386,26.931,.237,9.299,2.667,19.218,6.723,28.809l-1.627,1.22s-8.553-16.516-10.058-35.089c-1.507-18.582,7.923-33.59,27.568-37.713,19.647-4.132,46.315,19.855,46.315,19.855h-.001Z"/>
  <path class="cls-13" d="M81.628,301.256c-1.437,1.816-3.439,3.304-5.601,4.401-.054,.038-2.728,1.155-2.783,1.166-5.563-5.478-12.376-10.749-18.596-14.282-27.497-15.584-49.394-6.877-48.636,27.689,.227,10.424,3.59,23.611,8.179,33.744-1.363-.114-2.457-.631-3.538-1.333-4.385-10.515-7.027-21.359-7.286-31.544-.792-10.677,.44-21.892,7.365-30.266,5.77-7.586,12.164-10.734,22.294-12.047,1.097-.164,2.221-.249,3.375-.287,.195-.003,.381-.018,.577-.023l-.01,.01c6.556-.072,13.966,1.883,21.855,6.141l3.21,1.728c6.906,3.72,13.529,8.839,19.591,14.904h.002Z"/>
  <path class="cls-18" d="M76.026,305.657c.005,.008-2.724,1.161-2.784,1.166-5.562-5.478-12.375-10.749-18.595-14.282-27.497-15.584-49.394-6.877-48.636,27.689,.227,10.424,3.59,23.611,8.179,33.744-1.363-.114-2.456-.631-3.537-1.333-4.385-10.515-7.027-21.359-7.286-31.544-.813-13.05,1.609-28.652,13.901-35.915,8.831-5.173,21.132-4.678,34.876,2.727l3.201,1.737c7.321,3.939,14.309,9.456,20.681,16.011Z"/>
  <path class="cls-21" d="M122.648,403.375c-.637-.024-1.187-.492-1.286-1.138l-17.607-114.798c-.112-.733,.396-1.417,1.137-1.528,.739-.11,3.005,.022,3.118,.754l17.605,114.796c.113,.733-1.97,1.788-2.709,1.899-.088,.014-.173,.019-.258,.015Z"/>
  <path class="cls-8" d="M122.648,403.375c-.637-.024-1.187-.492-1.286-1.138l-17.607-114.798c-.112-.733,.396-1.417,1.137-1.528,.739-.11,3.005,.022,3.118,.754l17.605,114.796c.113,.733-1.97,1.788-2.709,1.899-.088,.014-.173,.019-.258,.015Z"/>
  <path class="cls-21" d="M110.09,307.59l67.947,36.626,2.42-3.799-69.518-37.456c-2.531-1.408-4.047,2.906-.849,4.629Z"/>
  <path class="cls-7" d="M110.09,307.59l67.947,36.626,2.42-3.799-69.518-37.456c-2.531-1.408-4.047,2.906-.849,4.629Z"/>
  <path class="cls-21" d="M193.601,346.546c-.533-.671-1.516-.784-2.192-.256l-3.911,3.056-24.47,19.052-2.325-4.941c2.492-1.143,4.846-2.459,7.04-3.943,11.437-7.741,18.678-19.789,21.52-35.806,.15-.841-.419-1.642-1.268-1.791-.851-.145-2.143-.765-2.293,.075-2.689,15.167-9.488,26.535-20.205,33.789-12.401,8.393-29.974,10.51-48.855,6.787l-50.821-15.451,47.798-13.678c.828-.241-.272-5.383-1.095-5.137l-58.702,17.071c-.061,.018-.109,.055-.166,.078-.065,.028-.128,.055-.19,.09-.126,.075-.234,.166-.333,.271-.025,.026-.058,.038-.081,.068-.007,.006-.008,.014-.013,.023-.116,.146-.203,.311-.261,.49-.018,.055-.018,.108-.029,.163-.019,.096-.048,.19-.049,.29,0,.031,.014,.061,.015,.093,.003,.068,.018,.131,.031,.199,.023,.118,.055,.232,.104,.34,.028,.06,.055,.116,.089,.173,.073,.117,.161,.219,.262,.313,.03,.027,.043,.065,.074,.09l67.592,54.553c.181,.143,.364,.256,.542,.354,.495,.265,.959,.365,1.386,.354,.734-.018,1.355-.366,1.837-.756l63.748-49.966,4.965-3.877c.677-.529,.793-1.501,.258-2.171h-.002Zm-70.557,51.979c-.712,.546-1.136,.921-1.334,.783l-60.255-48.637,54.465,16.615c.05,.016,.101,.028,.154,.038,6.5,1.287,12.904,1.842,19.037,1.69,7.589-.189,14.756-1.478,21.191-3.782l2.838,6.215-36.096,27.078Z"/>
  <path class="cls-8" d="M193.601,346.546c-.533-.671-1.516-.784-2.192-.256l-3.911,3.056-24.47,19.052-2.325-4.941c2.492-1.143,4.846-2.459,7.04-3.943,11.437-7.741,18.678-19.789,21.52-35.806,.15-.841-.419-1.642-1.268-1.791-.851-.145-2.143-.765-2.293,.075-2.689,15.167-9.488,26.535-20.205,33.789-12.401,8.393-29.974,10.51-48.855,6.787l-50.821-15.451,47.798-13.678c.828-.241-.272-5.383-1.095-5.137l-58.702,17.071c-.061,.018-.109,.055-.166,.078-.065,.028-.128,.055-.19,.09-.126,.075-.234,.166-.333,.271-.025,.026-.058,.038-.081,.068-.007,.006-.008,.014-.013,.023-.116,.146-.203,.311-.261,.49-.018,.055-.018,.108-.029,.163-.019,.096-.048,.19-.049,.29,0,.031,.014,.061,.015,.093,.003,.068,.018,.131,.031,.199,.023,.118,.055,.232,.104,.34,.028,.06,.055,.116,.089,.173,.073,.117,.161,.219,.262,.313,.03,.027,.043,.065,.074,.09l67.592,54.553c.181,.143,.364,.256,.542,.354,.495,.265,.959,.365,1.386,.354,.734-.018,1.355-.366,1.837-.756l63.748-49.966,4.965-3.877c.677-.529,.793-1.501,.258-2.171h-.002Zm-70.557,51.979c-.712,.546-1.136,.921-1.334,.783l-60.255-48.637,54.465,16.615c.05,.016,.101,.028,.154,.038,6.5,1.287,12.904,1.842,19.037,1.69,7.589-.189,14.756-1.478,21.191-3.782l2.838,6.215-36.096,27.078Z"/>
  <path class="cls-8" d="M184.291,328.247l1.313,8.558c.544-1.37,1.048-2.775,1.504-4.226l-1.529-9.96c-.36,1.941-.792,3.815-1.289,5.629h.001Z"/>
  <path class="cls-21" d="M191.151,351.691c-.637-.025-1.187-.492-1.286-1.138l-5.503-35.863c-.113-.733,.397-1.417,1.137-1.528,.739-.111,3.004,.022,3.117,.753l5.503,35.862c.112,.733-1.971,1.788-2.711,1.899-.087,.012-.173,.017-.258,.014h.001Z"/>
  <path class="cls-10" d="M191.151,351.691c-.637-.025-1.187-.492-1.286-1.138l-5.503-35.863c-.113-.733,.397-1.417,1.137-1.528,.739-.111,3.004,.022,3.117,.753l5.503,35.862c.112,.733-1.971,1.788-2.711,1.899-.087,.012-.173,.017-.258,.014h.001Z"/>
  <path class="cls-8" d="M189.566,320.1l-.949-6.185c-.112-.732-2.378-.864-3.117-.753-.74,.111-1.25,.795-1.136,1.528l.596,3.883c1.036,.611,3.005,1.309,4.606,1.527Z"/>
  <path class="cls-21" d="M213.573,430.499c-8.677-8.194-14.36-19.008-16.159-30.745l-6.121-39.925c-.121-.725-.485-3.088-2.52-1.857-1.972,1.194-1.848,1.892-1.74,2.634l6.327,41.244c1.8,11.737,7.485,22.549,16.163,30.743l1.159,1.095c.543,.51,1.605,.659,2.698-.315,1.093-.959,.734-2.362,.191-2.874h.002Z"/>
  <path class="cls-10" d="M213.573,430.499c-8.677-8.194-14.36-19.008-16.159-30.745l-6.121-39.925c-.121-.725-.485-3.088-2.52-1.857-1.972,1.194-1.848,1.892-1.74,2.634l6.327,41.244c1.8,11.737,7.485,22.549,16.163,30.743l1.159,1.095c.543,.51,1.605,.659,2.698-.315,1.093-.959,.734-2.362,.191-2.874h.002Z"/>
  <path class="cls-14" d="M188.622,342.462s.403,2.635,.729,4.754c.279,1.824-3.505,5.683-2.927,9.459,.6,3.909,1.098,7.183,1.098,7.183,.248,1.606,4.239-.889,4.008-2.424l-.42-2.739c-.329-2.148-.513-3.341,.744-4.069l1.15-.705c1.449-.791,1.846,.652,2.131,2.509l.468,3.06c.221,1.447,4.321-.329,4.004-2.4,0,0-.686-4.478-1.153-7.522-.375-2.451-4.782-2.675-5.246-5.699l-.519-3.417c.156,1.555-3.187,3.293-4.068,2.01h0Z"/>
  <path class="cls-18" d="M123.029,386.513c-3.617-1.952-6.827-1.995-9.078-.52-.465,.309-1.034,.579-1.633,.952-.166,.097-.322,.21-.48,.323-.027,.02-.054,.036-.082,.056-.011,.008-.02,.018-.031,.026-.211,.158-.411,.331-.602,.517-.043,.043-.085,.086-.127,.129-.169,.176-.33,.36-.483,.558-.055,.073-.108,.149-.163,.226-.13,.184-.256,.373-.371,.577-.063,.11-.12,.226-.179,.341-.095,.19-.19,.379-.273,.582-.063,.151-.116,.312-.171,.471-.066,.187-.132,.373-.188,.57-.055,.198-.097,.408-.143,.616-.039,.181-.083,.355-.115,.543-.043,.262-.067,.539-.096,.814-.016,.154-.039,.302-.05,.46-.029,.445-.04,.904-.028,1.383,.202,7.928,6.075,17.429,13.113,21.225,.439,.237,.874,.445,1.3,.627,.257,.109,.505,.189,.756,.278,.171,.061,.346,.136,.515,.188,.174,.054,.339,.084,.511,.128,.24,.062,.485,.133,.719,.176,.094,.017,.184,.021,.278,.035,.306,.048,.609,.092,.904,.108,.02,.002,.041,0,.06,0,1.559,.076,2.936-.295,4.07-1.051,.599-.367,1.134-.643,1.813-1.067,2.173-1.372,3.463-4.16,3.365-8.048-.201-7.927-6.074-17.428-13.112-21.224h.001Zm-2.979,23.985c-2.197-1.61-5.342-6.565-6.602-9.344,.666,.417,1.426,.886,2.23,1.274,3.309,1.592,3.17-.67,4.538,.867,1.313,1.461,1.215,5.404,.225,7.42-.127-.052-.257-.12-.391-.217Zm5.995-14.892c-.199,.075-.375,.161-.531,.253-.345,.204-1.741,1.038-1.899,1.132-.472,.281-.753,.626-.937,.973-1.657-1.59-3.667-6.755-3.582-9.21,2.839,.883,7.614,4.635,8.375,6.11,.068,.133,.111,.247,.142,.355-.497,.079-1.04,.185-1.568,.385v.002Zm-9.576-1.405c1.15,3.733,2.754,4.269,2.887,5.491-2.481-.332-6.557-2.611-6.885-4.962-.314-2.192,.828-4.846,2.01-6.362,1.058,.429,1.048,2.779,1.988,5.833Zm7.602,19.535c-1.339-1.151,.085-2.341,.692-4.807,.377-1.526,.118-2.693-.126-3.561,2.622,1.942,6.616,7.124,5.661,8.713-.033,.056-.083,.105-.122,.159-2.143,.614-5.169,.314-6.105-.504Zm5.926-8.325c-2.823-3.545-3.874-2.272-4.583-4.185-.344-.927,.062-1.874,.821-2.613,1.451-.469,3.096-.263,3.991,1.217,1.392,2.311,2.241,6.566,2.372,9.219-.678-.949-1.528-2.3-2.601-3.638Z"/>
  <path class="cls-8" d="M123.029,386.513c-3.617-1.952-6.827-1.995-9.078-.52-.465,.309-1.034,.579-1.633,.952-.166,.097-.322,.21-.48,.323-.027,.02-.054,.036-.082,.056-.011,.008-.02,.018-.031,.026-.211,.158-.411,.331-.602,.517-.043,.043-.085,.086-.127,.129-.169,.176-.33,.36-.483,.558-.055,.073-.108,.149-.163,.226-.13,.184-.256,.373-.371,.577-.063,.11-.12,.226-.179,.341-.095,.19-.19,.379-.273,.582-.063,.151-.116,.312-.171,.471-.066,.187-.132,.373-.188,.57-.055,.198-.097,.408-.143,.616-.039,.181-.083,.355-.115,.543-.043,.262-.067,.539-.096,.814-.016,.154-.039,.302-.05,.46-.029,.445-.04,.904-.028,1.383,.202,7.928,6.075,17.429,13.113,21.225,.439,.237,.874,.445,1.3,.627,.257,.109,.505,.189,.756,.278,.171,.061,.346,.136,.515,.188,.174,.054,.339,.084,.511,.128,.24,.062,.485,.133,.719,.176,.094,.017,.184,.021,.278,.035,.306,.048,.609,.092,.904,.108,.02,.002,.041,0,.06,0,1.559,.076,2.936-.295,4.07-1.051,.599-.367,1.134-.643,1.813-1.067,2.173-1.372,3.463-4.16,3.365-8.048-.201-7.927-6.074-17.428-13.112-21.224h.001Zm-2.979,23.985c-2.197-1.61-5.342-6.565-6.602-9.344,.666,.417,1.426,.886,2.23,1.274,3.309,1.592,3.17-.67,4.538,.867,1.313,1.461,1.215,5.404,.225,7.42-.127-.052-.257-.12-.391-.217Zm5.995-14.892c-.199,.075-.375,.161-.531,.253-.345,.204-1.741,1.038-1.899,1.132-.472,.281-.753,.626-.937,.973-1.657-1.59-3.667-6.755-3.582-9.21,2.839,.883,7.614,4.635,8.375,6.11,.068,.133,.111,.247,.142,.355-.497,.079-1.04,.185-1.568,.385v.002Zm-9.576-1.405c1.15,3.733,2.754,4.269,2.887,5.491-2.481-.332-6.557-2.611-6.885-4.962-.314-2.192,.828-4.846,2.01-6.362,1.058,.429,1.048,2.779,1.988,5.833Zm7.602,19.535c-1.339-1.151,.085-2.341,.692-4.807,.377-1.526,.118-2.693-.126-3.561,2.622,1.942,6.616,7.124,5.661,8.713-.033,.056-.083,.105-.122,.159-2.143,.614-5.169,.314-6.105-.504Zm5.926-8.325c-2.823-3.545-3.874-2.272-4.583-4.185-.344-.927,.062-1.874,.821-2.613,1.451-.469,3.096-.263,3.991,1.217,1.392,2.311,2.241,6.566,2.372,9.219-.678-.949-1.528-2.3-2.601-3.638Z"/>
  <path class="cls-18" d="M121.119,387.641c-7.038-3.786-12.582-.432-12.383,7.496,.202,7.928,6.075,17.429,13.113,21.225,7.036,3.786,12.571,.432,12.371-7.495-.201-7.927-6.064-17.428-13.101-21.226Zm-3.092,.925c2.485-.032,8.576,4.616,9.443,6.299,.867,1.692-1.334,1.115-3.315,1.868-2.524,.952-1.256,3.36-2.767,2.785-2.207-.843-5.835-10.931-3.361-10.952Zm-3.751-.285c1.284,.182,1.192,2.665,2.193,5.918,1.271,4.124,3.101,4.343,2.882,5.9-.323,2.285-8.315-.916-8.781-4.252-.466-3.327,2.422-7.759,3.706-7.566Zm3.873,23.334c-2.763-2.023-7.077-9.409-7.148-10.981-.071-1.57,2.076,.541,4.676,1.793,3.309,1.592,3.17-.67,4.538,.867,2.017,2.248,.707,10.355-2.067,8.321h.001Zm12.15,2.465c-1.247,2.073-6.788,1.935-8.127,.784-1.329-1.16,.095-2.34,.703-4.816,.765-3.132-1.142-4.759-.074-5.367,1.556-.887,8.746,7.327,7.499,9.399h-.001Zm-2.192-7.551c-2.823-3.534-3.873-2.272-4.583-4.185-1.05-2.791,4.7-5.823,6.702-2.515,1.993,3.31,2.879,10.619,2.127,11.474-.751,.856-2.021-1.991-4.246-4.774Z"/>
  <path class="cls-16" d="M121.594,406.394c2.152,1.16,3.848,.135,3.786-2.292-.062-2.426-1.857-5.333-4.01-6.492-2.153-1.16-3.848-.134-3.786,2.291,.061,2.425,1.857,5.334,4.01,6.493Z"/>
  <path class="cls-21" d="M109.301,422.387c-.153,.003-.311-.026-.457-.094-.517-.236-.743-.843-.504-1.355l8.061-17.239,4.392-2.658c.484-.296,1.121-.143,1.418,.338,.299,.482,.144,1.109-.342,1.404l-3.859,2.335-7.798,16.677c-.17,.364-.531,.583-.911,.592Z"/>
  <g class="cls-19">
    <path d="M109.301,422.387c-.153,.003-.311-.026-.457-.094-.517-.236-.743-.843-.504-1.355l8.061-17.239,4.392-2.658c.484-.296,1.121-.143,1.418,.338,.299,.482,.144,1.109-.342,1.404l-3.859,2.335-7.798,16.677c-.17,.364-.531,.583-.911,.592Z"/>
  </g>
  <path class="cls-21" d="M117.333,425.938l-15.758-8.488c-.458-.247-1.014-.233-1.458,.036l-11.178,6.764c-.445,.269-.71,.753-.697,1.269l.019,.722c.012,.517,.303,.986,.761,1.233l15.772,8.499c.459,.247,1.016,.232,1.461-.038l11.16-6.774c.444-.268,.71-.752,.696-1.267l-.018-.722c-.013-.516-.304-.986-.762-1.232l.002-.002Z"/>
  <path class="cls-8" d="M117.333,425.938l-15.758-8.488c-.458-.247-1.014-.233-1.458,.036l-11.178,6.764c-.445,.269-.71,.753-.697,1.269l.019,.722c.012,.517,.303,.986,.761,1.233l15.772,8.499c.459,.247,1.016,.232,1.461-.038l11.16-6.774c.444-.268,.71-.752,.696-1.267l-.018-.722c-.013-.516-.304-.986-.762-1.232l.002-.002Z"/>
  <path class="cls-21" d="M104.788,433.611c.426,.229,.943,.216,1.356-.034l11.736-7.122c-.13-.213-.318-.391-.546-.515l-6.058-3.264-9.7-5.225c-.457-.247-1.013-.233-1.458,.037l-1.355,.819-9.822,5.946c-.222,.134-.4,.322-.521,.541l16.368,8.819v-.002Z"/>
  <path class="cls-17" d="M131.031,293.752c-2.985-4.551-9.894-11.114-9.894-11.114,0,0-17.969-22.72-36.965-11.224-3.82,2.312-5.718,5.223-6.452,9.563-.275,1.628-.117,3.544-.036,4.145,.364,2.644,.95,3.693,2.532,5.743,2.628,3.406,9.877,6.081,18.53,8.019,.621,.14,1.242,.27,1.866,.396,3.087,.622,6.195,1.133,9.297,1.676,3.073,.538,6.153,1.081,9.188,1.804,1.244,.295,2.485,.62,3.695,1.032,.499,.168,.992,.351,1.474,.563,.654,.286,.914,.394,1.674,.574,.434,.102,1.092,.102,1.529,.012,.401-.083,.803-.175,1.178-.336,.336-.145,.645-.347,.934-.573,1.086-.855,1.854-2.067,2.273-3.377,.738-2.308,.519-4.855-.822-6.9v-.003Z"/>
  <path class="cls-22" d="M84.172,271.415c-5.756,3.483-8.799,9.71-4.047,15.873,2.628,3.406,9.877,6.081,18.53,8.019,8.652,1.937,23.401,3.51,27.109,6.36,3.707,2.848,8.774-2.567,5.267-7.912-2.985-4.551-9.894-11.115-9.894-11.115,0,0-17.969-22.719-36.965-11.224h0Z"/>
  <path class="cls-21" d="M227.235,243.97l-3.459-5.584,13.81-8.358v.003c.42-.267,1.013-.256,1.681,.103,1.31,.706,2.403,2.476,2.44,3.952,.019,.72-.219,1.232-.617,1.49l.003,.007-.03,.018s-.005,.002-.007,.004l-13.822,8.366h0Z"/>
  <path class="cls-21" d="M227.878,242.458c.037,1.475-.995,2.1-2.305,1.394-1.31-.706-2.403-2.474-2.44-3.951-.037-1.476,.994-2.1,2.304-1.395,1.311,.706,2.404,2.476,2.441,3.953h0Z"/>
  <path class="cls-10" d="M227.878,242.458c.037,1.475-.995,2.1-2.305,1.394-1.31-.706-2.403-2.474-2.44-3.951-.037-1.476,.994-2.1,2.304-1.395,1.311,.706,2.404,2.476,2.441,3.953h0Z"/>
  <path class="cls-23" d="M226.322,242.009c.005,.238-.037,.446-.145,.576l-.379,.248-19.903,12.03c-3.875,2.338-5.069,7.737-5.663,13.424-.038,.398-.076,.796-.113,1.194-.301,3.344-.575,6.419-.853,9.428-.441,4.714-.855,9.285-1.3,14.507-.684,7.788-3.846,10.931-10.659,15.058l-1.675-2.706c6.355-3.845,8.574-6.203,9.133-12.622,.446-5.222,.875-9.793,1.299-14.523,.241-2.565,.479-5.176,.714-7.962,.051-.477,.087-.955,.138-1.45,.075-.875,.164-1.752,.271-2.628,.747-5.993,2.353-11.61,7.032-14.443l.316-.199,19.919-12.047c.191-.037,.401-.01,.645,.126,.652,.365,1.203,1.242,1.223,1.987v.002Z"/>
  <path class="cls-21" d="M194.361,307.822c-.054-.917-.731-1.836-2.016-2.527l-8.295-4.469-8.332,5.043,.121,4.831,8.295,4.469c2.525,1.36,6.438,1.335,8.739-.058,1.132-.685,1.657-1.572,1.598-2.456,0,0-.057-3.947-.107-4.833h-.003Z"/>
  <path class="cls-21" d="M184.049,300.826l8.295,4.469c2.525,1.361,2.707,3.592,.406,4.984-2.301,1.393-6.213,1.42-8.739,.059l-8.295-4.469,8.332-5.043h0Z"/>
  <path class="cls-4" d="M184.049,300.826l8.295,4.469c2.525,1.361,2.707,3.592,.406,4.984-2.301,1.393-6.213,1.42-8.739,.059l-8.295-4.469,8.332-5.043h0Z"/>
  <path class="cls-23" d="M180.952,311.781c.006,.285-.068,.509-.208,.641l-.238,.149c-.049,.032-1.276,.704-1.323,.737-2.485,1.412-4.469,2.272-6.153,2.314-.69,.017-1.319-.094-1.904-.383-.243-.106-.473-.241-.669-.381-1.603-1.151-2.139-3.346-2.428-5.214-.693-4.527-1.338-8.467-1.988-12.534-.419-2.58-.839-5.208-1.297-8.088-.668-4.194-1.531-6.556-2.57-7.023-.568-.272-1.489,.149-2.153,.562l-21.893,13.258-1.674-2.708,21.894-13.258c1.944-1.176,3.671-1.425,5.182-.733,2.728,1.251,3.713,5.263,4.382,9.408,.458,2.866,.877,5.509,1.295,8.072,.649,4.083,1.296,8.025,2.005,12.567,.368,2.452,.945,3.059,1.254,3.194,.828,.377,2.89-.58,4.569-1.495,.142-.083,1.464-.821,1.591-.888,.128-.066,.271-.149,.381-.216,.014-.016,.032-.016,.032-.016,.206-.1,.43-.075,.723,.077,.634,.35,1.171,1.211,1.19,1.956v.002Z"/>
  <path class="cls-21" d="M129.37,302.667l-3.459-5.584,13.81-8.358,.003,.002c.418-.266,1.01-.255,1.678,.104,1.31,.706,2.403,2.476,2.44,3.953,.019,.718-.218,1.229-.616,1.49l.003,.003-.03,.019s-.005,.002-.007,.003l-13.822,8.368Z"/>
  <path class="cls-21" d="M130.013,301.154c.037,1.476-.995,2.1-2.306,1.394-1.31-.706-2.404-2.475-2.441-3.952-.037-1.477,.995-2.101,2.306-1.395,1.31,.705,2.404,2.476,2.441,3.953Z"/>
  <path class="cls-10" d="M130.013,301.154c.037,1.476-.995,2.1-2.306,1.394-1.31-.706-2.404-2.475-2.441-3.952-.037-1.477,.995-2.101,2.306-1.395,1.31,.705,2.404,2.476,2.441,3.953Z"/>
  <path class="cls-18" d="M236.464,505.425c-.275,0-.549-.07-.796-.212l-65.507-37.437c-.548-.313-.857-.917-.788-1.54l8.539-76.008c.875-7.785,5.156-12.588,11.192-12.588,.067,0,.132,0,.199,.002l26.929,.467c6.891,.119,14.283,9.894,14.924,19.733l6.899,105.904c.037,.581-.251,1.135-.749,1.442-.258,.158-.549,.237-.842,.237Zm-63.808-39.866l62.025,35.448-6.706-102.963c-.572-8.782-7.075-16.701-11.798-16.783l-26.928-.466h-.136c-4.344,0-7.341,3.644-8.031,9.781l-8.425,74.984h0Z"/>
  <path class="cls-9" d="M236.464,505.425c-.275,0-.549-.07-.796-.212l-65.507-37.437c-.548-.313-.857-.917-.788-1.54l8.539-76.008c.875-7.785,5.156-12.588,11.192-12.588,.067,0,.132,0,.199,.002l26.929,.467c6.891,.119,14.283,9.894,14.924,19.733l6.899,105.904c.037,.581-.251,1.135-.749,1.442-.258,.158-.549,.237-.842,.237Zm-63.808-39.866l62.025,35.448-6.706-102.963c-.572-8.782-7.075-16.701-11.798-16.783l-26.928-.466h-.136c-4.344,0-7.341,3.644-8.031,9.781l-8.425,74.984h0Z"/>
  <path class="cls-23" d="M511.215,46.306V386.117l3.676-2.102V44.164l-3.676,2.142Z"/>
  <path class="cls-14" d="M505.333,42.907V382.756l5.882,3.361V46.306l-5.882-3.399Z"/>
  <path class="cls-16" d="M505.333,42.907l5.882,3.399,3.676-2.142-5.88-3.357-3.678,2.101Z"/>
  <path class="cls-21" d="M538.654,72.54l-58.199-33.261c-1.092-.624-2.078-.674-2.785-.253-.533,.317-2.559,1.462-3.107,1.775-.704,.403-1.141,1.267-1.141,2.498V172.89c0,2.469,1.751,5.47,3.91,6.703l58.198,33.26c1.076,.614,2.048,.673,2.753,.271,.549-.312,2.633-1.482,3.187-1.822,.676-.415,1.092-1.267,1.092-2.468V79.244c0-2.468-1.749-5.47-3.908-6.704Z"/>
  <path class="cls-5" d="M538.654,72.54l-58.199-33.261c-1.092-.624-2.078-.674-2.785-.253-.533,.317-2.559,1.462-3.107,1.775-.704,.403-1.141,1.267-1.141,2.498V172.89c0,2.469,1.751,5.47,3.91,6.703l58.198,33.26c1.076,.614,2.048,.673,2.753,.271,.549-.312,2.633-1.482,3.187-1.822,.676-.415,1.092-1.267,1.092-2.468V79.244c0-2.468-1.749-5.47-3.908-6.704Z"/>
  <path class="cls-21" d="M538.284,213.125c.549-.312,2.632-1.482,3.187-1.822,.676-.415,1.092-1.266,1.092-2.468V79.244c.001-.995-.294-2.075-.775-3.092l-6.259,3.576V212.854c1.076,.615,2.049,.673,2.755,.271Z"/>
  <path class="cls-12" d="M538.284,213.125c.549-.312,2.632-1.482,3.187-1.822,.676-.415,1.092-1.266,1.092-2.468V79.244c.001-.995-.294-2.075-.775-3.092l-6.259,3.576V212.854c1.076,.615,2.049,.673,2.755,.271Z"/>
  <path class="cls-21" d="M535.531,74.326l-58.199-33.262c-2.159-1.233-3.91-.233-3.91,2.234V172.89c0,2.469,1.751,5.47,3.91,6.703l58.197,33.26c2.159,1.234,3.91,.233,3.91-2.234V81.028c0-2.468-1.749-5.468-3.908-6.702Z"/>
  <path class="cls-2" d="M479.006,48.407l53.733,30.706c.428,.245,1.117,1.424,1.117,1.914v124.483l-53.733-30.703c-.438-.25-1.117-1.415-1.117-1.918V48.407Zm-1.395-2.394v126.877c0,.991,.949,2.621,1.816,3.115l55.825,31.899V81.027c0-.988-.948-2.617-1.816-3.112l-55.825-31.902Z"/>
  <path class="cls-2" d="M516.768,88.242c2.421,4.697,3.629,9.911,3.629,15.64,0,3.287-.421,6.119-1.25,8.51-.829,2.391-2.191,3.97-4.069,4.74-1.878,.769-4.304,.305-7.284-1.401l-5.095-2.907v17.409l-7.109-4.066v-54.997l10.933,6.255c4.41,2.518,7.826,6.13,10.246,10.817h0Zm-5.783,17.399c.814-.464,1.404-1.211,1.761-2.243,.361-1.043,.536-2.138,.536-3.276,0-1.948-.372-4.044-1.122-6.288-.755-2.253-2.209-3.991-4.368-5.223l-5.096-2.918v16.588l5.049,2.886c1.341,.77,2.421,.927,3.24,.474Z"/>
  <path class="cls-2" d="M519.697,167.183c-.989-.566-1.939-.882-2.824-.975l-4.101-13.574,3.219-.405c.455-.058,.629-.703,.388-1.442-.24-.738-.804-1.291-1.261-1.233l-4.013,.504c-.445,.056-.622,.671-.405,1.393l1.634,5.407-11.891-6.796-1.415-4.426,.859,.491c.515,.294,.932-.019,.932-.699s-.417-1.469-.932-1.765l-6.497-3.713c-.515-.294-.932,.019-.932,.699s.417,1.469,.932,1.764l3.538,2.021,1.883,5.887-2.685,4.403c-1.074-1.263-2.267-2.31-3.523-3.028-4.682-2.676-8.492,.175-8.492,6.355s3.808,13.385,8.492,16.061c4.367,2.496,7.973,.183,8.44-5.154l5.102,2.915,.009,.006c.116,.066,.227,.1,.332,.108,.007,0,.013,.002,.019,.002,.023,0,.046-.002,.068-.004,.013-.001,.027,0,.039-.002,.018-.003,.034-.01,.051-.015,.017-.005,.033-.008,.049-.014,.014-.007,.025-.014,.038-.021,.019-.01,.037-.019,.053-.03,.01-.007,.019-.017,.029-.025,.017-.015,.036-.03,.052-.047,.008-.008,.014-.02,.023-.03,.015-.018,.031-.036,.043-.058,0,0,.002-.003,.003-.006,0,0,0-.001,.002-.002l6.603-10.83,1.634,5.411c-2.393,.617-3.989,3.218-3.989,7.216,0,6.18,3.811,13.384,8.493,16.06,4.682,2.676,8.493-.174,8.493-6.354s-3.809-13.385-8.493-16.062v.007Zm-27.092,4.47c-3.653-2.088-6.625-7.71-6.625-12.532s2.972-7.046,6.625-4.959c.907,.518,1.772,1.256,2.561,2.144l-3.361,5.513c-.172,.282-.177,.753-.01,1.233,.166,.48,.476,.896,.812,1.087l6.559,3.749c-.456,3.981-3.224,5.673-6.561,3.765Zm6.559-6.228l-4.916-2.809,2.518-4.129c1.273,2.088,2.158,4.563,2.398,6.94v-.002Zm1.881,1.075c-.26-3.284-1.505-6.744-3.315-9.594l2.091-3.429,.704,2.203,4.103,12.868-3.582-2.047h0Zm5.171,1.649l-3.995-12.532v-.003l-.811-2.538,10.379,5.931-5.573,9.142Zm13.481,18.987c-3.653-2.088-6.626-7.71-6.626-12.532,0-3.022,1.167-5.023,2.939-5.583l2.848,9.424c.16,.533,.493,.98,.841,1.178,.136,.078,.274,.117,.405,.108,.464-.03,.659-.654,.436-1.394l-2.848-9.428c.634,.095,1.308,.336,2.007,.735,3.654,2.089,6.627,7.711,6.627,12.533s-2.972,7.047-6.627,4.958h-.002Z"/>
  <path class="cls-21" d="M64.011,161.274v-5.365c0-6.684,1.257-13.721,3.507-20.627v-.018c5.684-17.434,17.649-34.069,31.492-41.978,8.814-5.032,16.862-5.662,23.014-2.637l-12.117-6.907c-2.907-1.912-6.302-2.915-10.072-2.915-.562,0-1.125,.018-1.706,.074-.581,.037-1.164,.112-1.763,.204-.6,.075-1.201,.186-1.8,.335-.6,.129-1.219,.297-1.839,.482-1.256,.372-2.513,.836-3.808,1.393-.637,.278-1.294,.593-1.95,.91-.657,.333-1.313,.686-1.969,1.057-19.319,11.048-34.98,39.081-34.98,62.623v5.365c0,23.542,31.979,49.126,31.979,49.126l12.96,7.24c-.224-.131-.45-.297-.656-.482-9.547-8.727-30.291-29.761-30.291-47.882v.002Zm38.185-49.497c.112,.576,.187,1.17,.224,1.801,.02,.204,.039,.408,.039,.631,.037,.353,.037,.706,.037,1.076,0,11.029-7.822,24.47-17.499,29.984-.356,.204-.694,.39-1.05,.557-.338,.186-.694,.335-1.031,.483-.338,.149-.675,.278-1.013,.408-.037,.018-.057,.018-.094,.037,1.5,8.447,8.609,11.399,17.199,6.518,9.658-5.533,17.48-18.956,17.48-30.003,0-9.784-6.152-14.425-14.292-11.492Z"/>
  <path class="cls-8" d="M102.197,111.777c.112,.576,.187,1.17,.224,1.801,.02,.204,.039,.408,.039,.631,.037,.353,.037,.706,.037,1.076,0,11.029-7.822,24.47-17.499,29.984-.356,.204-.694,.39-1.05,.557-.338,.186-.694,.335-1.031,.483-.338,.149-.675,.278-1.013,.408-.037,.018-.057,.018-.094,.038,1.5,8.446,8.609,11.398,17.199,6.517,9.658-5.533,17.48-18.956,17.48-30.003,0-9.784-6.152-14.425-14.292-11.492Z"/>
  <path class="cls-21" d="M133.987,115.918c0-23.544-15.665-33.678-34.987-22.634-19.322,11.043-34.987,39.08-34.987,62.625v5.358c0,18.129,20.747,39.166,30.289,47.882,2.325,2.125,6.049,1.443,7.439-1.372,8.242-16.697,32.247-66.999,32.246-86.5v-5.358h0Zm-34.987,37.35c-9.661,5.522-17.493,1.046-17.493-9.998s7.832-24.471,17.493-29.993c9.662-5.521,17.494-1.045,17.494,9.998s-7.832,24.471-17.494,29.993Z"/>
  <path class="cls-6" d="M133.987,115.918c0-23.544-15.665-33.678-34.987-22.634-19.322,11.043-34.987,39.08-34.987,62.625v5.358c0,18.129,20.747,39.166,30.289,47.882,2.325,2.125,6.049,1.443,7.439-1.372,8.242-16.697,32.247-66.999,32.246-86.5v-5.358h0Zm-34.987,37.35c-9.661,5.522-17.493,1.046-17.493-9.998s7.832-24.471,17.493-29.993c9.662-5.521,17.494-1.045,17.494,9.998s-7.832,24.471-17.494,29.993Z"/>
  <path class="cls-21" d="M122.022,90.649l-12.116-6.907c-2.907-1.912-6.303-2.915-10.072-2.915-.563,0-1.125,.018-1.706,.074-.582,.037-1.164,.112-1.764,.204-.599,.075-1.2,.186-1.8,.335-.599,.129-1.219,.297-1.838,.482-1.256,.372-2.514,.836-3.808,1.393-.638,.278-1.294,.593-1.951,.91-.656,.333-1.312,.686-1.969,1.057-13.065,7.471-24.45,22.714-30.456,39.08l13.991,7.996c6.015-16.355,17.405-31.605,30.476-39.073,8.815-5.031,16.861-5.662,23.013-2.636Z"/>
  <path class="cls-4" d="M122.022,90.649l-12.116-6.907c-2.907-1.912-6.303-2.915-10.072-2.915-.563,0-1.125,.018-1.706,.074-.582,.037-1.164,.112-1.764,.204-.599,.075-1.2,.186-1.8,.335-.599,.129-1.219,.297-1.838,.482-1.256,.372-2.514,.836-3.808,1.393-.638,.278-1.294,.593-1.951,.91-.656,.333-1.312,.686-1.969,1.057-13.065,7.471-24.45,22.714-30.456,39.08l13.991,7.996c6.015-16.355,17.405-31.605,30.476-39.073,8.815-5.031,16.861-5.662,23.013-2.636Z"/>
  <path class="cls-13" d="M99.016,93.282l-2.074,1.413c-.686,.476-1.408,.899-2.041,1.446-1.284,1.064-2.654,2.019-3.833,3.199-1.229,1.121-2.472,2.224-3.585,3.462l-1.717,1.802-1.602,1.906c-4.255,5.085-7.927,10.649-10.899,16.559-3.047,5.873-5.403,12.095-7.016,18.504-.443,1.594-.692,3.23-1.05,4.844-.295,1.626-.454,3.274-.694,4.911-.123,1.648-.239,3.299-.324,4.957l-.152,4.983-.15-4.983c-.002-1.663,.029-3.332,.07-5.002,.18-1.657,.296-3.327,.54-4.978,.309-1.64,.511-3.305,.907-4.928,1.455-6.53,3.85-12.833,6.854-18.815,3.094-5.938,6.8-11.583,11.252-16.612,4.447-5.011,9.6-9.485,15.515-12.666v-.002Z"/>
</svg>