<svg width="435" height="466" viewBox="0 0 435 466" fill="none" xmlns="http://www.w3.org/2000/svg">
<path d="M286.792 0H15.3039C6.85179 0 0 6.83142 0 15.2584V449.648C0 458.075 6.85179 464.906 15.3039 464.906H286.792C295.244 464.906 302.096 458.075 302.096 449.648V15.2584C302.096 6.83142 295.244 0 286.792 0Z" fill="#263238"/>
<path d="M148.713 455.719C155.115 455.719 160.304 450.154 160.304 443.289C160.304 436.424 155.115 430.859 148.713 430.859C142.312 430.859 137.123 436.424 137.123 443.289C137.123 450.154 142.312 455.719 148.713 455.719Z" fill="#455A64"/>
<path d="M194.931 13.3902H107.164C106.275 13.3902 105.554 14.1089 105.554 14.9954V16.9204C105.554 17.8069 106.275 18.5256 107.164 18.5256H194.931C195.821 18.5256 196.541 17.8069 196.541 16.9204V14.9954C196.541 14.1089 195.821 13.3902 194.931 13.3902Z" fill="#455A64"/>
<path d="M293.232 424.453H8.86377V30.8974H293.232V424.453ZM10.1889 423.132H291.907V32.2185H10.1889V423.132Z" fill="#263238"/>
<path d="M11.5837 378.818L9.52637 379.13V388.004L10.5285 387.872L11.5837 378.818Z" fill="#455A64"/>
<path d="M20.4229 326.052C16.7364 327.519 13.0883 328.741 9.52637 329.778V342.061H26.1315V361.888H9.52637V371.098L57.3104 363.862C42.6612 353.613 30.0579 340.707 20.4229 326.052Z" fill="#455A64"/>
<path d="M259.701 116.35L167.471 133.135L172.923 161.587L256.161 171.963L259.701 116.35ZM199.395 159.535H181.549V134.842H199.395V159.535ZM207.368 160.797V139.685H250.77L249.522 165.353L207.368 160.797Z" fill="#E8505B"/>
<path d="M14.4092 387.36L74.232 379.481L64.8766 370.748L15.4719 378.23L14.4092 387.36Z" fill="#455A64"/>
<path d="M264.829 35.82L157.688 82.0695L166.792 129.589L259.938 112.637L264.829 35.82ZM196.267 113.612L180.221 117.765L176.576 80.6994L196.267 72.2253V113.612ZM208.219 117.825V74.3895L254.069 54.6575L250.77 106.807L208.217 117.824L208.219 117.825Z" fill="#E8505B"/>
<path d="M94.0283 148.113C89.7494 144.39 86.2683 140.091 83.1092 135.649L73.1787 144.568C74.6231 146.475 76.0489 148.241 77.4695 149.684C88.7635 161.157 105.007 170.74 121.6 174.347C128.353 175.815 132.258 182.529 129.959 188.733L125.14 201.742C134.111 202.526 142.519 204.367 149.595 206.281L163.804 168.449L149.695 166.69C127.782 163.958 108.466 160.675 94.0283 148.113Z" fill="#E8505B"/>
<g opacity="0.2">
<path d="M94.0283 148.113C89.7494 144.39 86.2683 140.091 83.1092 135.649L73.1787 144.568C74.6231 146.475 76.0489 148.241 77.4695 149.684C88.7635 161.157 105.007 170.74 121.6 174.347C128.353 175.815 132.258 182.529 129.959 188.733L125.14 201.742C134.111 202.526 142.519 204.367 149.595 206.281L163.804 168.449L149.695 166.69C127.782 163.958 108.466 160.675 94.0283 148.113Z" fill="black"/>
</g>
<path d="M254.708 179.782L172.276 169.506L157.979 207.571L245.83 209.169L254.708 179.782ZM175.981 175.157H186.865V179.843H175.981V175.157ZM183.448 201.931V185.709H239.767V201.931H183.448Z" fill="#455A64"/>
<path d="M69.5376 370.042L78.9791 378.856L127.467 372.469C132.281 371.835 136.953 374.319 138.899 378.55L155.02 413.601C156.618 417.075 156.03 420.931 153.833 423.792H173.245L143.33 358.868L69.5389 370.042H69.5376Z" fill="#455A64"/>
<path d="M223.546 282.918L232.875 252.04H182.313L223.546 282.918Z" fill="#455A64"/>
<path d="M48.9185 98.2924C37.0149 90.866 24.2341 86.3951 13.8663 83.7487C12.4259 83.3814 10.9788 83.0353 9.52783 82.7063V88.0426H11.4519V98.9768H9.52783V117.278C10.4342 118.627 11.2691 120.013 12.027 121.434L48.9185 98.2924ZM19.6783 92.6047H31.195V103.539H19.6783V92.6047Z" fill="#263238"/>
<path d="M124.559 138.857C119.64 141.37 116.283 146.334 115.869 151.614C126.054 155.439 137.925 157.224 150.782 158.827L164.226 160.503L159.125 133.884C150.674 133.986 142.214 134.76 133.909 136.186C130.908 136.701 127.463 137.373 124.559 138.857ZM145.193 138.372C147.081 138.04 149.07 137.717 150.883 138.318C153.837 139.3 155.369 142.419 155.904 145.347C156.441 148.274 156.321 151.346 157.461 154.114C156.54 154.414 155.618 154.714 154.695 155.014L153.068 154.824C147.211 154.183 141.354 153.542 135.496 152.901C133.668 152.702 131.808 152.493 130.127 151.783C128.446 151.074 126.941 149.774 126.498 148.078C125.903 145.798 127.399 143.401 129.454 142.094C131.508 140.787 134.017 140.331 136.448 139.905C139.362 139.393 142.278 138.882 145.192 138.371L145.193 138.372Z" fill="#455A64"/>
<path d="M147.324 235.938L139.127 257.761C136.936 263.593 133.268 268.569 128.671 272.429L189.609 356.598L210.495 359.528L221.353 291.375L147.324 235.938ZM138.171 276.247L152.314 247.037L166.349 257.694L151.968 289.047L138.171 276.247ZM156.617 293.359L171.262 261.425L193.8 278.54L177.933 313.135L156.616 293.359H156.617ZM182.583 317.447L198.715 282.272L212.874 293.024L204.711 337.975L182.583 317.447Z" fill="#455A64"/>
<path d="M32.5226 81.3284C41.768 78.1681 49.7307 74.7991 54.5595 68.3477C57.2614 64.7382 58.9496 60.0916 59.5764 54.536C60.1475 49.4772 59.7964 44.2373 59.4558 39.1706L63.2457 38.942C63.5955 44.1594 63.9573 49.5551 63.3504 54.9205C62.6547 61.097 60.7372 66.3184 57.655 70.4365C52.915 76.769 45.8388 80.3428 37.5859 83.3855C44.1691 86.2181 50.8862 89.7589 57.3051 94.1611L148.156 76.6276L139.521 31.5579H9.52637V74.5731C11.7022 75.0422 13.8728 75.5376 16.0341 76.0899C21.096 77.382 26.7066 79.1009 32.5226 81.3284ZM71.5052 36.0077H132.95V68.6912H71.5052V36.0077ZM32.7134 40.394H48.9237V62.0232H32.7134V40.394ZM9.55287 40.394H25.7631V62.0232H9.55287V40.394Z" fill="#455A64"/>
<path d="M292.569 71.1354V61.6413C289.3 60.2435 285.884 59.2592 282.366 58.8338C280.203 58.5722 278.651 56.7239 278.824 54.6602L279.784 43.1368C279.921 41.4919 281.132 40.1073 282.81 39.6753L292.568 37.1663V31.5579H273.467L271.274 65.992C278.699 66.0013 286.055 67.8034 292.568 71.1367L292.569 71.1354Z" fill="#455A64"/>
<path d="M254.519 31.5579H148.01L156.146 74.0235L254.519 31.5579ZM159.33 42.5806L194.792 44.816C197.409 44.9812 198.066 48.3528 195.685 49.3966L163.271 63.6007C161.763 64.2613 160.005 63.388 159.717 61.8356L156.669 45.396C156.385 43.8608 157.691 42.4762 159.33 42.5806Z" fill="#455A64"/>
<path d="M267.667 367.552L292.569 371.046V356.41L277.636 354.919L288.286 335.717H292.569V330.503H291.178L292.569 327.993V314.925C290.942 317.081 289.368 319.227 287.868 321.423C278.188 335.6 271.877 351.268 267.666 367.552H267.667Z" fill="#455A64"/>
<path d="M284.445 301.02C286.371 298.532 288.254 296.093 290.053 293.655H229.438L218.76 360.69L252.676 365.449C257.243 347.284 264.215 329.557 275.126 313.579C278.095 309.228 281.325 305.056 284.445 301.02ZM270.076 307.422C259.501 321.371 251.728 337.371 247.16 353.991C246.677 355.752 244.872 356.881 242.974 356.623L230.892 354.981C228.81 354.698 227.372 352.858 227.689 350.884L235.11 304.76C235.392 303.007 236.981 301.711 238.849 301.712L267.024 301.72C270.116 301.72 271.882 305.04 270.076 307.422Z" fill="#455A64"/>
<path d="M270.771 73.9219L264.462 172.999L292.569 176.503V168.178L272.674 166.075L273.864 144.477H292.571V138.543H274.151L275.348 116.809L292.571 117.271V80.4538C286.268 76.1467 278.551 73.8228 270.772 73.9192L270.771 73.9219Z" fill="#455A64"/>
<path d="M231.388 285.724H292.569V235.717H283.178V218.053H292.569V210.171H264.573L270.483 190.055L292.569 192.168V184.501L263.081 180.824L231.388 285.724ZM270.801 223.46V243.648H290.645V278.736H246.349L261.536 223.462H270.801V223.46Z" fill="#455A64"/>
<path d="M150.284 228.054L177.5 248.435H233.965L244.744 212.755L156.633 211.151L150.284 228.054ZM201.866 218.054H235.084L227.238 242.808H201.866V218.054ZM169.652 215.531H185.726V220.578H169.652V215.531ZM169.652 223.689H185.726V228.736H169.652V223.689ZM185.726 231.848V236.894H169.652V231.848H185.726Z" fill="#455A64"/>
<path d="M152.708 359.438L182.36 423.792H244.427C245.481 407.408 247.227 390.2 250.868 373.212L152.708 359.438ZM207.087 396.016H180.6L173.956 374.055H207.087V396.016ZM218.254 402.143V376.216H231.287V402.143H218.254Z" fill="#455A64"/>
<path d="M104.61 281.191C102.773 281.191 100.922 281.056 99.064 280.78C98.5552 280.704 98.0476 280.619 97.5414 280.527C88.8857 278.931 80.7667 274.737 74.4803 268.834C71.0482 282.306 63.5811 295.212 52.7005 305.654C43.8129 314.183 33.832 320.248 23.9307 324.579C33.9486 339.685 47.2145 352.862 62.6495 363.056L139.87 351.362L107.487 281.08C106.534 281.154 105.574 281.193 104.611 281.193L104.61 281.191ZM72.5337 344.536L43.5611 331.221L69.6025 294.839L90.1724 302.65L72.5337 344.536ZM113.974 317.89L128.894 343.283C129.727 344.702 128.806 346.475 127.113 346.71L102.917 350.065C101.142 350.31 99.7014 348.717 100.227 347.089L109.503 318.34C110.134 316.386 112.926 316.105 113.974 317.89Z" fill="#455A64"/>
<path d="M32.0495 155.783C27.0989 146.413 29.7001 134.839 38.6685 128.726C45.6334 123.979 53.5312 124.233 59.7963 128.774C63.7757 131.658 67.4423 136.768 70.9698 141.589L80.9904 132.588C79.9833 131.099 78.9961 129.607 78.0195 128.125C75.4395 124.204 72.7707 120.148 69.8421 116.508C65.7501 111.42 61.0844 107.052 56.131 103.273L15.2178 128.937C15.2907 129.163 15.3715 129.385 15.4404 129.611C17.2439 135.512 17.6759 141.017 18.0575 145.874C18.251 148.35 18.4325 150.672 18.7731 152.612C20.2095 160.79 25.514 168.545 32.247 176.371L41.2141 168.315C37.6773 164.48 34.4904 160.405 32.0469 155.781L32.0495 155.783ZM55.7348 107.273L60.3913 112.555L50.8014 120.175L46.1462 114.893L55.7362 107.273H55.7348Z" fill="#E8505B"/>
<g opacity="0.2">
<path d="M32.0495 155.783C27.0989 146.413 29.7001 134.839 38.6685 128.726C45.6334 123.979 53.5312 124.233 59.7963 128.774C63.7757 131.658 67.4423 136.768 70.9698 141.589L80.9904 132.588C79.9833 131.099 78.9961 129.607 78.0195 128.125C75.4395 124.204 72.7707 120.148 69.8421 116.508C65.7501 111.42 61.0844 107.052 56.131 103.273L15.2178 128.937C15.2907 129.163 15.3715 129.385 15.4404 129.611C17.2439 135.512 17.6759 141.017 18.0575 145.874C18.251 148.35 18.4325 150.672 18.7731 152.612C20.2095 160.79 25.514 168.545 32.247 176.371L41.2141 168.315C37.6773 164.48 34.4904 160.405 32.0469 155.781L32.0495 155.783ZM55.7348 107.273L60.3913 112.555L50.8014 120.175L46.1462 114.893L55.7362 107.273H55.7348Z" fill="black"/>
</g>
<path d="M99.1297 272.74C99.5365 272.815 99.9473 272.884 100.359 272.944C113.629 274.926 126.631 267.418 131.259 255.098L148.313 209.691C139.379 207.302 131.313 205.831 123.843 205.24L105.001 256.093C103.512 260.303 97.1102 259.927 96.1906 255.571C93.1825 241.315 87.9351 227.522 80.6588 214.713C76.5681 217.379 73.0128 220.525 70.1426 224.064C72.3105 228.653 74.0583 233.512 75.1993 238.71C76.6304 245.235 76.9696 251.963 76.2938 258.668C81.6486 265.857 90.0314 271.06 99.1324 272.738L99.1297 272.74Z" fill="#E8505B"/>
<g opacity="0.2">
<path d="M99.1297 272.74C99.5365 272.815 99.9473 272.884 100.359 272.944C113.629 274.926 126.631 267.418 131.259 255.098L148.313 209.691C139.379 207.302 131.313 205.831 123.843 205.24L105.001 256.093C103.512 260.303 97.1102 259.927 96.1906 255.571C93.1825 241.315 87.9351 227.522 80.6588 214.713C76.5681 217.379 73.0128 220.525 70.1426 224.064C72.3105 228.653 74.0583 233.512 75.1993 238.71C76.6304 245.235 76.9696 251.963 76.2938 258.668C81.6486 265.857 90.0314 271.06 99.1324 272.738L99.1297 272.74Z" fill="#E8505B"/>
</g>
<g opacity="0.2">
<path d="M99.1297 272.74C99.5365 272.815 99.9473 272.884 100.359 272.944C113.629 274.926 126.631 267.418 131.259 255.098L148.313 209.691C139.379 207.302 131.313 205.831 123.843 205.24L105.001 256.093C103.512 260.303 97.1102 259.927 96.1906 255.571C93.1825 241.315 87.9351 227.522 80.6588 214.713C76.5681 217.379 73.0128 220.525 70.1426 224.064C72.3105 228.653 74.0583 233.512 75.1993 238.71C76.6304 245.235 76.9696 251.963 76.2938 258.668C81.6486 265.857 90.0314 271.06 99.1324 272.738L99.1297 272.74Z" fill="#E8505B"/>
</g>
<g opacity="0.2">
<path d="M99.1297 272.74C99.5365 272.815 99.9473 272.884 100.359 272.944C113.629 274.926 126.631 267.418 131.259 255.098L148.313 209.691C139.379 207.302 131.313 205.831 123.843 205.24L105.001 256.093C103.512 260.303 97.1102 259.927 96.1906 255.571C93.1825 241.315 87.9351 227.522 80.6588 214.713C76.5681 217.379 73.0128 220.525 70.1426 224.064C72.3105 228.653 74.0583 233.512 75.1993 238.71C76.6304 245.235 76.9696 251.963 76.2938 258.668C81.6486 265.857 90.0314 271.06 99.1324 272.738L99.1297 272.74Z" fill="black"/>
</g>
<path d="M78.8131 211.546C72.7281 201.444 65.3551 191.999 56.755 183.5C52.4603 179.255 47.9443 175.231 43.7648 170.988L34.6851 179.144C37.1736 181.92 39.8014 184.711 42.4689 187.54C51.5698 197.197 61.5056 207.748 68.3194 220.447C71.2798 217.099 74.8205 214.11 78.8131 211.546Z" fill="#E8505B"/>
<g opacity="0.2">
<path d="M78.8131 211.546C72.7281 201.444 65.3551 191.999 56.755 183.5C52.4603 179.255 47.9443 175.231 43.7648 170.988L34.6851 179.144C37.1736 181.92 39.8014 184.711 42.4689 187.54C51.5698 197.197 61.5056 207.748 68.3194 220.447C71.2798 217.099 74.8205 214.11 78.8131 211.546Z" fill="black"/>
</g>
<path d="M115.855 279.459L148.758 350.867L184.48 355.879L125.705 274.697C122.692 276.747 119.371 278.355 115.855 279.458V279.459ZM163.83 335.693L150.094 339.537L145.762 331.277L157.983 327.006L163.83 335.691V335.693ZM155.889 323.897L144.059 328.031L138.169 316.798L148.643 313.135L155.889 323.897Z" fill="#455A64"/>
<path d="M76.4809 111.695C79.6466 115.63 82.4214 119.846 85.1048 123.922C89.5943 130.743 93.8347 137.187 99.6719 142.266C103.41 145.518 107.627 148.059 112.227 150.109C113.133 144.097 117.107 138.57 122.761 135.682C126.153 133.95 129.946 133.202 133.233 132.637C141.535 131.211 149.991 130.429 158.437 130.293L149.65 84.4305L65.7314 100.627C69.5571 103.929 73.1826 107.595 76.4809 111.695ZM112.447 98.7324L145.606 92.6034V104.499H112.447V98.7324ZM100.947 109.548H145.607V127.319L100.947 132.069V109.548ZM82.9276 103.329L95.5521 100.906V116.576H82.9276V103.329Z" fill="#455A64"/>
<path d="M272.863 399.98V386.477H292.569V379.063L265.822 375.31C262.35 391.283 260.672 407.708 259.633 423.791H292.569V399.979L272.863 399.98Z" fill="#455A64"/>
<path d="M9.52637 388.004V396.482L10.5285 387.872L9.52637 388.004Z" fill="#455A64"/>
<path d="M14.4097 387.36L10.168 423.791H121.699L74.2325 379.481L14.4097 387.36Z" fill="#455A64"/>
<path d="M155.019 413.599L138.897 378.548C136.952 374.319 132.281 371.834 127.465 372.468L78.9775 378.855L127.113 423.791H153.831C156.028 420.929 156.617 417.074 155.019 413.599Z" fill="#263238"/>
<path d="M284.445 301.02C281.325 305.054 278.095 309.228 275.126 313.579C264.214 329.559 257.243 347.284 252.675 365.449L267.668 367.552C271.879 351.268 278.188 335.6 287.869 321.423C289.369 319.227 290.942 317.083 292.571 314.925V293.655H290.054C288.255 296.093 286.371 298.532 284.445 301.02Z" fill="#263238"/>
<path d="M250.867 373.212C247.227 390.2 245.481 407.408 244.427 423.792H259.633C260.671 407.708 262.348 391.285 265.821 375.311L250.867 373.213V373.212Z" fill="#263238"/>
<path d="M18.4047 322.894L21.6791 321.07C22.4092 322.251 23.1606 323.419 23.9292 324.578C33.8305 320.247 43.8114 314.181 52.699 305.653C63.5796 295.21 71.0467 282.304 74.4788 268.833C71.9875 266.494 69.7759 263.894 67.9472 261.069L75.0631 256.916C75.4501 257.513 75.8635 258.095 76.2915 258.669C76.9673 251.964 76.6281 245.236 75.197 238.711C74.056 233.513 72.3082 228.654 70.1403 224.066C69.324 225.072 68.5448 226.099 67.8438 227.166L64.6211 225.26C65.721 223.583 66.964 221.982 68.3196 220.448C61.5058 207.749 51.57 197.198 42.469 187.541C39.8015 184.711 37.1738 181.921 34.6852 179.145L31.7236 181.806L29.1144 179.187L32.2483 176.372C25.5153 168.547 20.2109 160.791 18.7744 152.613C18.4339 150.674 18.2523 148.351 18.0588 145.875C17.6772 141.017 17.2452 135.512 15.4417 129.613C15.3728 129.387 15.292 129.163 15.2191 128.939L12.5238 130.63L9.52769 126.324V144.002C9.60057 144.843 9.66815 145.676 9.73176 146.483C9.93848 149.125 10.1333 151.621 10.5361 153.918C13.0486 168.223 24.3161 180.177 36.2475 192.834C48.6812 206.025 62.7739 220.977 67.0196 240.329C71.5264 260.866 63.7638 283.761 46.7611 300.078C35.3942 310.985 21.9865 317.541 9.52637 321.469V329.78C13.0896 328.743 16.7377 327.521 20.4229 326.055C19.7365 325.01 19.0606 323.958 18.4047 322.896V322.894Z" fill="#263238"/>
<path d="M9.52637 117.278V123.003L12.0264 121.434C11.2669 120.013 10.4317 118.627 9.52637 117.278Z" fill="#E8505B"/>
<path d="M67.0198 240.328C62.7741 220.974 48.6813 206.023 36.2477 192.833C24.3162 180.176 13.0487 168.222 10.5363 153.917C10.1334 151.62 9.9373 149.124 9.7319 146.481C9.66829 145.674 9.60071 144.842 9.52783 144V178.123C24.4673 199.732 50.624 216.861 56.2412 242.462C60.1848 260.438 52.5361 279.672 38.935 292.724C30.6967 300.63 20.5211 306.417 9.52783 310.343V321.468C21.988 317.54 35.3956 310.984 46.7626 300.076C63.7639 283.76 71.5265 260.866 67.0198 240.328Z" fill="#263238"/>
<path d="M56.2397 242.459C50.6225 216.858 24.4658 199.729 9.52637 178.12V310.341C20.5183 306.414 30.6939 300.627 38.9336 292.721C52.536 279.668 60.1846 260.435 56.2397 242.459Z" fill="#455A64"/>
<path d="M264.2 177.124L264.074 177.543L263.082 180.826L292.57 184.503V176.504L264.462 172.999L264.2 177.124Z" fill="#263238"/>
<path d="M255.918 175.775L256.16 171.965L172.924 161.588L173.708 165.688L172.274 169.506L254.708 179.782L255.918 175.775Z" fill="#263238"/>
<path d="M48.9183 98.2925L54.7064 94.6619L57.3037 94.1598C50.8847 89.7576 44.169 86.2181 37.5844 83.3842C35.6524 84.0963 33.6554 84.7807 31.6081 85.4624L30.3506 82.0604C31.0821 81.8159 31.8042 81.5728 32.5211 81.3271C26.7065 79.0983 21.0946 77.3794 16.0326 76.0886C13.8713 75.5377 11.7008 75.0422 9.5249 74.5719V82.7038C10.9759 83.0328 12.4229 83.3789 13.8634 83.7462C24.2311 86.3912 37.012 90.8634 48.9156 98.2898L48.9183 98.2925Z" fill="#E8505B"/>
<path d="M69.8424 116.508C72.771 120.149 75.4398 124.204 78.0198 128.125C78.9951 129.607 79.9836 131.1 80.9907 132.588L84.3115 129.605L86.9207 132.223L83.1096 135.646C86.2687 140.088 89.7498 144.389 94.0287 148.111C108.466 160.672 127.781 163.956 149.695 166.688L163.803 168.446L165.091 165.018L164.226 160.499L150.782 158.823C137.925 157.22 126.054 155.435 115.869 151.61C115.855 151.793 115.835 151.974 115.828 152.156L112.034 152.021C112.06 151.378 112.133 150.74 112.228 150.106C107.628 148.055 103.412 145.514 99.6723 142.262C93.8352 137.183 89.5948 130.74 85.1052 123.918C82.4219 119.841 79.6471 115.627 76.4813 111.691C73.1831 107.591 69.5575 103.923 65.7306 100.623L57.9587 102.123L56.1313 103.268C61.0833 107.048 65.7504 111.416 69.8424 116.502V116.508Z" fill="#263238"/>
<path d="M59.7976 128.774C53.5324 124.234 45.6346 123.979 38.6697 128.726C29.7013 134.838 27.1001 146.413 32.0507 155.783C34.4929 160.405 37.6812 164.481 41.218 168.317L70.9723 141.59C67.4462 136.769 63.7796 131.658 59.7989 128.775L59.7976 128.774Z" fill="#E8505B"/>
<g opacity="0.1">
<path d="M59.7976 128.774C53.5324 124.234 45.6346 123.979 38.6697 128.726C29.7013 134.838 27.1001 146.413 32.0507 155.783C34.4929 160.405 37.6812 164.481 41.218 168.317L70.9723 141.59C67.4462 136.769 63.7796 131.658 59.7989 128.775L59.7976 128.774Z" fill="#E8505B"/>
</g>
<g opacity="0.2">
<path d="M59.7976 128.774C53.5324 124.234 45.6346 123.979 38.6697 128.726C29.7013 134.838 27.1001 146.413 32.0507 155.783C34.4929 160.405 37.6812 164.481 41.218 168.317L70.9723 141.59C67.4462 136.769 63.7796 131.658 59.7989 128.775L59.7976 128.774Z" fill="#E8505B"/>
</g>
<path d="M107.321 205.441C97.3122 206.578 88.1119 209.855 80.6567 214.714C87.933 227.523 93.1805 241.316 96.1885 255.572C97.1082 259.927 103.51 260.304 104.999 256.094L123.841 205.241C118.016 204.78 112.55 204.849 107.32 205.442L107.321 205.441Z" fill="#E8505B"/>
<path d="M121.598 174.347C105.005 170.74 88.7618 161.157 77.4677 149.684C76.0472 148.241 74.6214 146.475 73.177 144.568L59.0405 157.266L101.645 202.669C103.362 202.345 105.099 202.063 106.868 201.862C113.051 201.159 119.212 201.224 125.136 201.742L129.956 188.733C132.255 182.529 128.35 175.815 121.597 174.347H121.598Z" fill="#E8505B"/>
<path d="M43.7661 170.988C47.9456 175.231 52.4616 179.256 56.7563 183.5C65.3564 191.999 72.7281 201.444 78.8144 211.546C84.2792 208.036 90.5881 205.323 97.4271 203.59L56.2833 159.744L43.7661 170.987V170.988Z" fill="#E8505B"/>
<path d="M157.688 82.0696L264.829 35.82L265.101 31.5579H254.52L156.146 74.0235L157.688 82.0696Z" fill="#263238"/>
<path d="M15.2191 128.937L56.131 103.273L57.9584 102.126L65.7303 100.627L149.649 84.4318L148.154 76.6276L57.3038 94.1597L54.7065 94.6618L48.9184 98.2924L12.0269 121.434L9.52637 123.003V126.323L12.5238 130.628L15.2191 128.937Z" fill="#263238"/>
<path d="M99.0624 280.779C100.92 281.056 102.773 281.19 104.608 281.19C105.573 281.19 106.531 281.152 107.484 281.078L106.441 278.813L114.093 275.634L115.854 279.458C119.369 278.355 122.689 276.747 125.704 274.698L123.276 271.346L126.406 269.303L128.67 272.429C133.267 268.567 136.935 263.593 139.125 257.761L147.322 235.938L140.917 231.141L146.09 224.914L150.284 228.054L156.633 211.151L154.728 211.117L154.608 211.477C152.46 210.831 150.366 210.239 148.312 209.691L131.258 255.098C126.63 267.418 113.63 274.926 100.358 272.944C99.9463 272.884 99.5355 272.815 99.1287 272.74C90.0277 271.06 81.645 265.859 76.2901 258.669C75.8634 258.095 75.4487 257.513 75.0617 256.916L67.9458 261.069C69.7758 263.894 71.9874 266.494 74.4773 268.833C80.7637 274.736 88.8828 278.929 97.5385 280.525C98.0447 280.618 98.5522 280.704 99.0611 280.779H99.0624Z" fill="#263238"/>
<path d="M149.649 84.4318L158.436 130.294C159.861 130.272 161.285 130.261 162.708 130.276L162.669 133.881C161.488 133.869 160.306 133.871 159.125 133.885L164.226 160.505L165.091 165.023L163.803 168.451L149.594 206.284C151.218 206.724 152.771 207.164 154.246 207.597V207.504L157.978 207.572L172.274 169.507L173.708 165.69L172.922 161.589L167.471 133.137L164.309 133.712L163.595 130.173L166.792 129.591L157.688 82.0722L156.146 74.0261L148.01 31.5605H139.52L148.155 76.6302L149.649 84.4344V84.4318Z" fill="#263238"/>
<path d="M145.883 358.481L143.327 358.868L173.243 423.791H182.36L152.707 359.439L145.883 358.481Z" fill="#263238"/>
<path d="M114.094 275.635L106.442 278.814L107.485 281.079L139.868 351.361L145.834 350.457L148.758 350.867L115.856 279.459L114.094 275.635Z" fill="#263238"/>
<path d="M11.8415 376.591L15.6155 376.986L15.471 378.23L64.877 370.748L64.2304 370.144L66.8925 367.573L69.5375 370.042L143.328 358.868L145.885 358.481L152.709 359.438L250.869 373.212L265.823 375.31L292.571 379.063V371.046L267.669 367.552L252.677 365.449L218.761 360.69L218.135 364.623L209.875 363.438L210.498 359.53L189.611 356.599L190.71 358.117L187.58 360.159L184.482 355.879L148.76 350.867L145.836 350.457L139.87 351.361L62.6495 363.055C63.9508 363.913 65.2613 364.758 66.5931 365.574L64.5325 368.602C62.0744 367.095 59.668 365.512 57.3119 363.863L9.52783 371.099V379.129L11.5831 378.818L11.8428 376.59L11.8415 376.591Z" fill="#263238"/>
<path d="M224.397 293.655L221.354 291.376L210.495 359.53L209.874 363.438L218.134 364.623L218.76 360.69L229.438 293.655H224.397Z" fill="#263238"/>
<path d="M259.938 112.638L263.696 111.955L264.41 115.494L259.702 116.352L256.161 171.966L255.919 175.776L254.709 179.783L245.83 209.171L249.559 209.238L249.486 212.842L244.746 212.756L233.966 248.436H236.941V252.04H232.877L223.548 282.918L227.297 285.724H231.39L263.083 180.826L264.076 177.543L264.202 177.124L264.464 172.999L270.773 73.9218C270.254 73.9284 269.734 73.9416 269.215 73.9694L268.738 66.0515C269.585 66.0052 270.431 65.9907 271.278 65.992L273.471 31.5579H265.103L264.831 35.82L259.94 112.638H259.938Z" fill="#263238"/>
<path d="M56.2838 159.745L55.8598 159.293L58.6942 156.894L59.0427 157.266L73.1792 144.568L83.1097 135.649L86.9207 132.225L84.3116 129.606L80.9921 132.589L70.9715 141.59L41.2171 168.317L32.2487 176.372L29.1147 179.186L31.7239 181.805L34.6856 179.144L43.7667 170.988L56.2838 159.745Z" fill="#263238"/>
<path d="M80.6573 214.714C88.1111 209.855 97.3128 206.578 107.321 205.441C112.55 204.848 118.018 204.779 123.843 205.24C131.313 205.831 139.379 207.302 148.313 209.691C150.367 210.241 152.461 210.831 154.609 211.477L154.729 211.117L154.175 211.106L154.246 207.594C152.772 207.161 151.218 206.72 149.593 206.281C142.517 204.367 134.11 202.525 125.138 201.741C119.213 201.224 113.053 201.16 106.87 201.862C105.102 202.062 103.365 202.345 101.646 202.669L102.362 203.433L99.5271 205.831L97.4254 203.591C90.5865 205.324 84.2775 208.036 78.8127 211.547C74.8201 214.112 71.2794 217.1 68.319 220.448C66.9634 221.981 65.7205 223.583 64.6206 225.26L67.8433 227.166C68.5443 226.099 69.3235 225.072 70.1397 224.066C73.01 220.526 76.5666 217.382 80.6573 214.714Z" fill="#263238"/>
<path d="M58.6938 156.894L55.8594 159.293L56.2834 159.745L97.4272 203.591L99.5289 205.831L102.363 203.433L101.646 202.669L59.0423 157.266L58.6938 156.894Z" fill="#263238"/>
<path d="M145.606 109.548H100.945V132.069L145.606 127.319V109.548Z" fill="#263238"/>
<path d="M145.606 92.6047L112.446 98.7337V104.501H145.606V92.6047Z" fill="#263238"/>
<path d="M95.5512 100.906L82.9268 103.329V116.578H95.5512V100.906Z" fill="#263238"/>
<path d="M126.501 148.079C126.943 149.774 128.448 151.075 130.13 151.785C131.812 152.494 133.671 152.702 135.498 152.903C141.355 153.543 147.212 154.184 153.071 154.825L154.698 155.015C155.62 154.715 156.541 154.415 157.463 154.115C156.325 151.347 156.443 148.276 155.906 145.348C155.37 142.42 153.839 139.301 150.886 138.319C149.074 137.717 147.084 138.042 145.195 138.373C142.281 138.885 139.366 139.396 136.452 139.907C134.021 140.334 131.512 140.789 129.458 142.097C127.404 143.403 125.908 145.801 126.502 148.08L126.501 148.079Z" fill="#263238"/>
<path d="M122.76 135.682C117.105 138.57 113.133 144.097 112.226 150.109C112.131 150.744 112.058 151.382 112.033 152.025L115.827 152.16C115.833 151.978 115.853 151.797 115.868 151.614C116.281 146.334 119.638 141.37 124.558 138.857C127.461 137.375 130.905 136.701 133.908 136.184C142.212 134.759 150.672 133.984 159.124 133.883C160.306 133.868 161.486 133.867 162.667 133.879L162.707 130.273C161.284 130.259 159.859 130.269 158.435 130.292C149.988 130.428 141.533 131.21 133.231 132.635C129.943 133.2 126.151 133.947 122.758 135.681L122.76 135.682Z" fill="#263238"/>
<path d="M132.95 36.009H71.5049V68.6926H132.95V36.009Z" fill="#263238"/>
<path d="M48.9236 40.394H32.7134V62.0231H48.9236V40.394Z" fill="#263238"/>
<path d="M25.763 40.394H9.55273V62.0231H25.763V40.394Z" fill="#263238"/>
<path d="M57.655 70.4366C60.7372 66.3184 62.6547 61.0971 63.3504 54.9205C63.9559 49.5552 63.5955 44.1594 63.2457 38.9421L59.4558 39.1706C59.795 44.2374 60.1475 49.4772 59.5764 54.5361C58.9496 60.0916 57.2614 64.7383 54.5595 68.3478C49.7307 74.8004 41.768 78.1681 32.5226 81.3284C31.8057 81.5728 31.0835 81.8173 30.3521 82.0617L31.6096 85.4637C33.6569 84.7807 35.6526 84.0976 37.5859 83.3855C45.8388 80.3428 52.915 76.769 57.655 70.4366Z" fill="#263238"/>
<path d="M60.3896 112.555L55.7345 107.272L46.1445 114.893L50.7997 120.174L60.3896 112.555Z" fill="#263238"/>
<path d="M264.41 115.493L263.695 111.954L259.938 112.638L166.792 129.589L163.595 130.171L164.31 133.711L167.472 133.136L259.701 116.35L264.41 115.493Z" fill="#263238"/>
<path d="M268.736 66.0516L269.213 73.9694C269.732 73.9417 270.252 73.9285 270.771 73.9219C278.55 73.8254 286.267 76.1494 292.57 80.4565V71.1368C286.057 67.8035 278.701 66.0027 271.276 65.9921C270.429 65.9921 269.583 66.0053 268.736 66.0516Z" fill="#263238"/>
<path d="M227.295 285.724L223.546 282.918L182.313 252.04H173.163V248.435H177.499L150.283 228.054L146.089 224.914L140.917 231.141L147.323 235.938L221.353 291.376L224.396 293.655H229.437H290.053H292.569V285.724H231.388H227.295Z" fill="#263238"/>
<path d="M267.024 301.721L238.849 301.713C236.98 301.713 235.392 303.008 235.109 304.761L227.689 350.885C227.371 352.859 228.81 354.698 230.891 354.982L242.974 356.624C244.871 356.882 246.676 355.754 247.16 353.993C251.728 337.373 259.502 321.373 270.075 307.423C271.882 305.041 270.114 301.724 267.024 301.722V301.721Z" fill="#263238"/>
<path d="M279.786 43.1367L278.825 54.6601C278.653 56.7238 280.205 58.5735 282.367 58.8338C285.885 59.2579 289.3 60.2435 292.571 61.6413V37.1663L282.812 39.6752C281.135 40.1059 279.925 41.4918 279.787 43.1367H279.786Z" fill="#263238"/>
<path d="M23.9292 324.578C23.1607 323.419 22.4093 322.251 21.6792 321.07L18.4048 322.895C19.0607 323.957 19.7365 325.008 20.423 326.053C30.058 340.708 42.6612 353.615 57.3105 363.863C59.6666 365.512 62.073 367.095 64.5311 368.602L66.5917 365.574C65.2613 364.758 63.9494 363.915 62.6481 363.055C47.213 352.862 33.9472 339.684 23.9292 324.578Z" fill="#263238"/>
<path d="M154.728 211.117L156.632 211.151L244.745 212.755L249.484 212.841L249.557 209.237L245.828 209.169L157.977 207.571L154.247 207.502L154.246 207.594L154.174 211.106L154.728 211.117Z" fill="#263238"/>
<path d="M207.368 139.685V160.797L249.521 165.355L250.77 139.685H207.368Z" fill="#E8505B"/>
<path d="M207.368 139.685V160.797L249.521 165.355L250.77 139.685H207.368Z" fill="#E8505B"/>
<g opacity="0.1">
<path d="M207.368 139.685V160.797L249.521 165.355L250.77 139.685H207.368Z" fill="black"/>
</g>
<path d="M199.394 134.842H181.549V159.535H199.394V134.842Z" fill="#E8505B"/>
<g opacity="0.1">
<path d="M199.394 134.842H181.549V159.535H199.394V134.842Z" fill="black"/>
</g>
<path d="M180.222 117.765L196.268 113.612V72.2254L176.576 80.6996L180.222 117.765Z" fill="#E8505B"/>
<g opacity="0.1">
<path d="M180.222 117.765L196.268 113.612V72.2254L176.576 80.6996L180.222 117.765Z" fill="black"/>
</g>
<path d="M208.218 74.3896V117.825L250.769 106.809L254.069 54.6576L208.218 74.3896Z" fill="#E8505B"/>
<path d="M208.218 74.3896V117.825L250.769 106.809L254.069 54.6576L208.218 74.3896Z" fill="#E8505B"/>
<g opacity="0.1">
<path d="M208.218 74.3896V117.825L250.769 106.809L254.069 54.6576L208.218 74.3896Z" fill="black"/>
</g>
<path d="M31.1934 92.6047H19.6768V103.539H31.1934V92.6047Z" fill="#263238"/>
<path d="M11.4511 88.0413H9.52637V98.9754H11.4511V88.0413Z" fill="#263238"/>
<path d="M246.349 278.736H290.645V243.648H270.802V223.462H261.536L246.349 278.736Z" fill="#263238"/>
<path d="M264.573 210.172H292.569V192.169L270.483 190.057L264.573 210.172Z" fill="#263238"/>
<path d="M292.569 218.054H283.178V235.718H292.569V218.054Z" fill="#263238"/>
<path d="M156.67 45.3947L159.717 61.8342C160.005 63.3866 161.763 64.2599 163.271 63.5994L195.685 49.3953C198.067 48.3515 197.409 44.9798 194.792 44.8147L159.33 42.5792C157.691 42.4762 156.385 43.8581 156.67 45.3934V45.3947Z" fill="#263238"/>
<path d="M152.314 247.037L138.169 276.249L151.968 289.048L166.348 257.695L152.314 247.037Z" fill="#263238"/>
<path d="M171.262 261.426L156.615 293.361L177.934 313.136L193.8 278.541L171.262 261.426Z" fill="#263238"/>
<path d="M198.714 282.273L182.582 317.449L204.71 337.976L212.874 293.025L198.714 282.273Z" fill="#263238"/>
<path d="M180.6 396.014H207.087V374.053H173.956L180.6 396.014Z" fill="#263238"/>
<path d="M231.289 376.216H218.255V402.143H231.289V376.216Z" fill="#263238"/>
<path d="M239.767 185.708H183.448V201.929H239.767V185.708Z" fill="#263238"/>
<path d="M186.865 175.156H175.98V179.843H186.865V175.156Z" fill="#263238"/>
<path d="M235.085 218.054H206.608H201.866V242.808H227.238L235.085 218.054Z" fill="#263238"/>
<path d="M185.726 215.531H169.652V220.578H185.726V215.531Z" fill="#263238"/>
<path d="M185.726 223.689H169.652V228.736H185.726V223.689Z" fill="#263238"/>
<path d="M185.726 231.847H169.652V236.894H185.726V231.847Z" fill="#263238"/>
<path d="M173.164 248.435V252.04H182.314H232.875H236.939V248.435H233.964H177.499H173.164Z" fill="#263238"/>
<path d="M100.226 347.088C99.7 348.717 101.14 350.31 102.916 350.063L127.112 346.709C128.805 346.474 129.726 344.702 128.893 343.282L113.973 317.888C112.925 316.104 110.133 316.385 109.502 318.339L100.226 347.088Z" fill="#263238"/>
<path d="M274.15 138.544H292.57V117.273L275.347 116.81L274.15 138.544Z" fill="#263238"/>
<path d="M272.674 166.076L292.569 168.179V144.479H273.862L272.674 166.076Z" fill="#263238"/>
<path d="M292.57 330.503V327.993L291.178 330.503H292.57Z" fill="#263238"/>
<path d="M277.637 354.919L292.57 356.41V335.717H288.287L277.637 354.919Z" fill="#263238"/>
<path d="M69.5371 370.042L66.8922 367.573L64.23 370.143L64.8767 370.748L74.232 379.481L121.698 423.791H127.113L78.9786 378.856L69.5371 370.042Z" fill="#263238"/>
<path d="M15.4722 378.23L15.6166 376.987L11.8414 376.592L11.583 378.818L10.5282 387.872L9.52637 396.482V423.791H10.1677L14.4095 387.361L15.4722 378.23Z" fill="#263238"/>
<path d="M126.408 269.304L123.278 271.346L125.705 274.698L184.48 355.879L187.578 360.159L190.708 358.117L189.608 356.599L128.671 272.43L126.408 269.304Z" fill="#263238"/>
<path d="M292.57 386.477H272.864V399.981H292.57V386.477Z" fill="#263238"/>
<path d="M26.1315 342.062H9.52637V361.889H26.1315V342.062Z" fill="#263238"/>
<path d="M43.561 331.219L72.5336 344.534L90.1724 302.649L69.6024 294.838L43.561 331.219Z" fill="#263238"/>
<path d="M150.094 339.539L163.83 335.693L157.983 327.007L145.762 331.277L150.094 339.539Z" fill="#263238"/>
<path d="M144.061 328.033L155.889 323.899L148.643 313.136L138.169 316.8L144.061 328.033Z" fill="#263238"/>
<path d="M230.09 87.7006C230.09 82.0142 224.097 78.4113 217.986 81.2611C216.607 81.9045 215.465 82.9945 214.772 84.3329C213.234 87.3016 213.913 90.6931 215.307 93.5072L220.063 105.523C220.748 107.255 223.21 107.245 223.881 105.508L228.544 93.4279C230.158 89.7484 230.09 87.7006 230.09 87.7006ZM224.35 92.6497C220.242 95.0305 216.08 90.6296 218.331 86.2856C218.63 85.7082 219.089 85.2233 219.635 84.9062C223.743 82.5241 227.906 86.9263 225.654 91.2704C225.354 91.8478 224.896 92.3326 224.35 92.6497Z" fill="white"/>
<path d="M88.74 184.141C88.74 178.454 82.7465 174.851 76.6363 177.701C75.2568 178.345 74.1146 179.435 73.4215 180.773C71.8844 183.742 72.5629 187.133 73.9569 189.947L78.7128 201.964C79.3978 203.696 81.8599 203.685 82.5305 201.948L87.1936 189.868C88.8076 186.19 88.74 184.138 88.74 184.138V184.141ZM82.9995 189.09C78.8916 191.471 74.7294 187.07 76.9808 182.726C77.2803 182.148 77.7388 181.663 78.2847 181.346C82.3926 178.964 86.5562 183.366 84.3035 187.711C84.004 188.288 83.5455 188.773 82.9995 189.09Z" fill="white"/>
<path d="M355.717 459.793V448.073L377.737 447.933L377.918 465.079L376.553 465.176C370.479 465.551 345.644 466.657 341.574 465.455C337.035 464.114 355.717 459.793 355.717 459.793Z" fill="#028894"/>
<path d="M341.053 464.38C341.053 464.587 349.289 464.756 359.447 464.756C369.606 464.756 377.844 464.587 377.844 464.38C377.844 464.173 369.61 464.004 359.447 464.004C349.285 464.004 341.053 464.173 341.053 464.38Z" fill="#263238"/>
<path d="M355.329 462.185C355.51 462.085 355.351 461.455 354.877 460.844C354.404 460.231 353.833 459.916 353.691 460.064C353.545 460.216 353.846 460.737 354.28 461.301C354.717 461.862 355.145 462.288 355.329 462.185Z" fill="#263238"/>
<path d="M353.924 462.958C354.115 462.882 354.014 462.177 353.581 461.445C353.149 460.71 352.579 460.281 352.42 460.412C352.257 460.545 352.532 461.147 352.931 461.827C353.334 462.503 353.729 463.035 353.924 462.958Z" fill="#263238"/>
<path d="M371.21 464.303C371.297 464.365 371.627 464.055 372.109 463.535C372.593 463.021 373.23 462.293 374.057 461.688C374.881 461.089 375.772 460.788 376.429 460.712C377.09 460.626 377.525 460.717 377.56 460.607C377.598 460.525 377.193 460.232 376.414 460.18C375.646 460.121 374.559 460.39 373.614 461.081C372.677 461.768 372.072 462.606 371.686 463.213C371.305 463.828 371.13 464.242 371.212 464.303H371.21Z" fill="#263238"/>
<path d="M355.262 459.982C355.158 460.158 355.541 460.575 356.168 460.795C356.795 461.015 357.355 460.929 357.385 460.726C357.415 460.519 356.97 460.282 356.418 460.085C355.865 459.894 355.368 459.8 355.262 459.982Z" fill="#263238"/>
<path d="M355.608 458.85C355.59 459.056 356.176 459.232 356.919 459.242C357.663 459.253 358.254 459.092 358.24 458.884C358.226 458.678 357.639 458.502 356.929 458.492C356.218 458.483 355.627 458.644 355.608 458.85Z" fill="#263238"/>
<path d="M332.487 455.639L329.008 444.445L349.998 437.81L355.262 454.133L353.988 454.629C348.297 456.78 324.902 465.166 320.658 465.219C315.926 465.279 332.487 455.639 332.487 455.639Z" fill="#028894"/>
<path d="M319.843 464.349C319.904 464.547 327.822 462.276 337.524 459.277C347.23 456.276 355.045 453.685 354.984 453.489C354.923 453.292 347.008 455.56 337.302 458.561C327.599 461.56 319.781 464.151 319.843 464.349Z" fill="#263238"/>
<path d="M332.828 458.037C332.972 457.891 332.632 457.334 331.997 456.89C331.364 456.444 330.725 456.313 330.633 456.497C330.539 456.684 330.982 457.093 331.564 457.503C332.148 457.912 332.684 458.189 332.828 458.037Z" fill="#263238"/>
<path d="M331.716 459.189C331.876 459.061 331.571 458.418 330.937 457.847C330.306 457.274 329.634 457.032 329.522 457.202C329.405 457.377 329.846 457.871 330.43 458.402C331.016 458.93 331.551 459.321 331.714 459.189H331.716Z" fill="#263238"/>
<path d="M348.625 455.371C348.725 455.405 348.949 455.013 349.254 454.374C349.564 453.739 349.956 452.857 350.567 452.035C351.176 451.22 351.938 450.67 352.543 450.402C353.149 450.125 353.591 450.084 353.594 449.969C353.605 449.88 353.13 449.719 352.371 449.899C351.62 450.069 350.661 450.648 349.964 451.586C349.274 452.519 348.944 453.498 348.755 454.191C348.572 454.893 348.528 455.339 348.625 455.372V455.371Z" fill="#E8505B"/>
<path d="M332.11 455.952C332.062 456.151 332.552 456.437 333.217 456.46C333.881 456.486 334.391 456.238 334.358 456.036C334.326 455.83 333.83 455.734 333.244 455.711C332.66 455.691 332.157 455.748 332.11 455.952Z" fill="#263238"/>
<path d="M332.103 454.769C332.147 454.971 332.759 454.967 333.472 454.757C334.186 454.547 334.701 454.219 334.627 454.025C334.551 453.831 333.939 453.836 333.258 454.037C332.578 454.238 332.061 454.567 332.103 454.769Z" fill="#263238"/>
<path d="M295.985 351.924C303.391 381.952 325.116 455.106 325.116 455.106L347.4 449.026C347.345 453.605 347.313 456.213 347.313 456.213L385.329 456.71L390.226 222.212L346.434 225.75L319.805 227.789C319.805 227.789 289.809 326.878 295.985 351.924ZM326.889 342.566C327.09 336.171 348.256 255.137 348.256 255.137C349.05 266.396 348.394 358.438 347.814 412.563C338.556 383.854 326.767 346.455 326.89 342.567L326.889 342.566Z" fill="#263238"/>
<path d="M347.106 447.304C347.106 447.512 355.609 447.679 366.096 447.679C376.583 447.679 385.088 447.512 385.088 447.304C385.088 447.097 376.586 446.929 366.096 446.929C355.607 446.929 347.106 447.097 347.106 447.304Z" fill="#455A64"/>
<path d="M347.435 438.879C347.396 438.78 346.186 439.218 343.955 439.985C341.481 440.848 338.525 441.878 335.257 443.017C331.986 444.154 329.027 445.182 326.553 446.042C324.328 446.827 322.961 447.344 322.993 447.444C323.023 447.542 324.446 447.204 326.716 446.547C328.986 445.892 332.099 444.91 335.503 443.724C338.907 442.54 341.957 441.376 344.142 440.482C346.328 439.586 347.472 438.973 347.435 438.879Z" fill="#455A64"/>
<path d="M347.932 407.824C347.886 407.824 347.848 408.478 347.821 409.66C347.802 410.969 347.777 412.648 347.748 414.659C347.683 419.008 347.598 424.773 347.504 431.146C347.329 437.519 347.171 443.285 347.052 447.632C346.996 449.643 346.95 451.321 346.913 452.63C346.89 453.811 346.899 454.465 346.946 454.468C346.992 454.47 347.072 453.82 347.175 452.644C347.28 451.467 347.402 449.763 347.529 447.654C347.785 443.438 348.043 437.607 348.18 431.161C348.315 424.717 348.303 418.88 348.226 414.658C348.188 412.546 348.139 410.838 348.083 409.657C348.029 408.476 347.978 407.824 347.932 407.824Z" fill="#455A64"/>
<path d="M313.179 341.857C313.165 342.064 316.37 342.473 320.34 342.769C324.31 343.066 327.542 343.139 327.558 342.933C327.573 342.727 324.369 342.317 320.396 342.021C316.427 341.725 313.194 341.651 313.179 341.857Z" fill="#455A64"/>
<path d="M315.654 346.112C315.711 346.31 318.168 345.777 321.14 344.923C324.113 344.066 326.474 343.21 326.417 343.012C326.359 342.814 323.903 343.345 320.931 344.201C317.96 345.057 315.597 345.911 315.654 346.112Z" fill="#455A64"/>
<path d="M345.916 226.041C345.823 226.041 345.753 227.749 345.715 230.509C345.676 233.269 345.671 237.081 345.707 241.291C345.735 243.387 345.761 245.383 345.786 247.23C345.814 249.06 346.053 250.775 346.687 252.067C347.302 253.363 348.173 254.183 348.826 254.619C349.485 255.063 349.918 255.168 349.93 255.137C349.956 255.084 349.565 254.898 348.985 254.409C348.407 253.93 347.645 253.108 347.125 251.871C346.587 250.643 346.405 249.028 346.41 247.219C346.402 245.374 346.393 243.38 346.384 241.286C346.348 237.075 346.278 233.265 346.193 230.506C346.108 227.748 346.009 226.041 345.916 226.042V226.041Z" fill="#455A64"/>
<path d="M369.022 70.85C371.123 75.7727 375.162 79.842 380.077 81.9889C381.481 82.602 383.187 83.3418 383.38 84.8586C383.531 86.0397 382.609 87.1138 381.566 87.6925C379.809 88.6675 377.546 88.6649 375.79 87.6859C376.291 88.7798 376.801 89.928 376.737 91.1276C376.674 92.3272 375.83 93.5797 374.626 93.6682C373.077 93.7832 372.079 92.1119 371.467 90.689C372.317 92.5637 371.52 95.0185 369.731 96.0424C367.942 97.0663 365.414 96.5141 364.219 94.8388" fill="#263238"/>
<path d="M367.383 115.432L345.291 117.061C344.995 114.513 344.567 104.609 344.567 104.609C344.567 104.609 335.34 103.754 334.665 94.6511C333.989 85.5481 334.278 64.5307 334.278 64.5307C344.574 59.3477 356.878 60.1272 366.435 66.5666L367.852 67.5232L367.385 115.432H367.383Z" fill="#E5BAAB"/>
<path d="M339.327 79.9186C339.84 79.3941 339.828 78.5551 339.303 78.0438C338.777 77.5325 337.935 77.5431 337.422 78.0676C336.909 78.5921 336.92 79.4311 337.446 79.9424C337.972 80.4537 338.814 80.4431 339.327 79.9186Z" fill="#263238"/>
<path d="M335.084 78.0557C335.236 78.205 336.091 77.4612 337.348 77.3779C338.606 77.2762 339.56 77.8866 339.69 77.7175C339.753 77.6422 339.593 77.366 339.176 77.0886C338.766 76.8125 338.077 76.5641 337.293 76.6222C336.509 76.6803 335.864 77.0265 335.5 77.3594C335.127 77.695 335.011 77.9896 335.084 78.0557Z" fill="#263238"/>
<path d="M350.74 78.3171C350.14 78.7386 349.995 79.5656 350.417 80.1641C350.84 80.7626 351.669 80.9066 352.27 80.4852C352.87 80.0637 353.015 79.2367 352.592 78.6382C352.169 78.0397 351.339 77.8957 350.739 78.3171H350.74Z" fill="#263238"/>
<path d="M348.483 78.3793C348.635 78.5286 349.49 77.7847 350.749 77.7015C352.007 77.5998 352.961 78.2102 353.091 78.041C353.154 77.9657 352.994 77.6896 352.576 77.4122C352.167 77.136 351.478 76.8876 350.693 76.9458C349.91 77.0039 349.265 77.3501 348.901 77.683C348.528 78.0186 348.412 78.3145 348.484 78.3806L348.483 78.3793Z" fill="#263238"/>
<path d="M344.338 89.0413C344.341 88.9475 343.552 88.8445 342.275 88.7507C341.945 88.7361 341.672 88.6806 341.631 88.4944C341.556 88.2896 341.664 87.9289 341.806 87.5286C342.076 86.683 342.352 85.8216 342.642 84.9179C343.793 81.2001 344.581 78.1442 344.402 78.0887C344.223 78.0332 343.145 81.0019 341.996 84.7184C341.724 85.6274 341.464 86.4954 341.211 87.3449C341.111 87.732 340.914 88.1865 341.113 88.7084C341.219 88.9687 341.484 89.1457 341.701 89.1893C341.92 89.2408 342.106 89.2303 342.263 89.2289C343.543 89.1999 344.335 89.1338 344.338 89.0413Z" fill="#263238"/>
<path d="M348.511 90.1762C349.774 89.3175 345.019 92.3113 342.45 92.3443C342.45 92.3443 344.064 94.5956 346.638 93.4713C349.311 92.3047 348.51 90.1762 348.51 90.1762H348.511Z" fill="white"/>
<path d="M344.543 104.478C344.543 104.478 350.348 104.592 356.247 100.371C356.247 100.371 353.837 107.101 344.668 106.84L344.543 104.478Z" fill="#D78776"/>
<path d="M366.099 75.6063C366.296 75.5323 372.878 74.6788 372.257 82.4262C371.635 90.1737 363.992 86.9857 363.997 86.7624C364.001 86.5391 366.1 75.6063 366.1 75.6063H366.099Z" fill="#E5BAAB"/>
<path d="M366.594 84.2336C366.63 84.2112 366.722 84.3393 366.943 84.4622C367.158 84.5811 367.536 84.6828 367.953 84.5639C368.799 84.3288 369.594 83.0842 369.744 81.6904C369.821 80.9862 369.727 80.3031 369.52 79.7271C369.328 79.1418 368.992 78.7164 368.584 78.6094C368.18 78.4812 367.868 78.7058 367.756 78.9159C367.634 79.1246 367.671 79.2832 367.628 79.2924C367.606 79.3109 367.472 79.1497 367.561 78.834C367.606 78.6833 367.712 78.5076 367.905 78.3729C368.104 78.2368 368.385 78.1813 368.67 78.2354C369.265 78.324 369.761 78.9172 369.988 79.5487C370.248 80.1868 370.37 80.9558 370.284 81.7459C370.109 83.3035 369.19 84.7 368.039 84.9339C367.481 85.033 367.038 84.8321 366.817 84.63C366.592 84.4199 366.565 84.2429 366.593 84.231L366.594 84.2336Z" fill="#D78776"/>
<path d="M359.398 57.5905C361.204 55.7237 363.224 54.9772 363.28 55.1397C363.372 55.3194 361.589 56.2931 359.885 58.0609C359.408 58.5444 358.998 59.0267 358.643 59.4772C361.603 59.1165 364.874 59.0888 367.211 60.9279C369.2 62.4922 370.077 65.1398 370.084 67.6659C370.091 70.192 369.041 72.5874 368.299 75.0025C367.855 76.4109 367.387 76.8958 367.387 76.8958L366.277 83.4277L365.01 83.4026C362.63 78.7163 359.663 76.6117 361.173 68.3913C361.173 68.3913 362.879 64.0155 357.934 64.5175C352.989 65.0196 346.266 70.5805 336.635 69.1787C335.076 68.9514 333.451 68.777 332.147 67.8945C330.843 67.0119 329.905 65.4701 330.086 63.9098C330.268 62.3495 331.804 60.9675 333.354 61.2529C333.354 61.2529 333.187 56.7252 340.2 56.7252C347.212 56.7252 357.148 59.5552 357.148 59.5552L359.398 57.5905Z" fill="#263238"/>
<path d="M333.162 60.8288C332.6 59.1852 333.891 57.4254 335.433 56.6195C336.976 55.8135 338.764 55.614 340.377 54.9587C344.237 53.3891 346.67 49.4071 350.472 47.7001C353.83 46.1926 357.714 46.6841 361.342 47.317C365.8 48.0938 370.742 49.3886 373.038 53.2768C373.475 54.0167 373.799 54.8715 373.68 55.7224C373.561 56.5732 372.884 57.3884 372.024 57.4307C371.421 57.461 370.87 57.1321 370.303 56.9273C369.735 56.7225 369.004 56.6802 368.624 57.1479C367.97 57.9525 369.017 58.9897 369.81 59.6582C372.775 62.1605 372.986 67.2524 370.239 69.9899" fill="#455A64"/>
<path d="M370.898 69.5513C370.912 69.5803 370.404 69.8512 369.39 69.9172C368.377 70.0018 366.921 69.7349 365.224 69.2487C361.662 68.2909 357.028 67.0463 351.903 65.6683C346.762 64.3484 342.115 63.1554 338.542 62.2372C336.944 61.8236 335.591 61.4735 334.493 61.1895C333.538 60.9318 333.016 60.7667 333.027 60.7205C333.038 60.6742 333.58 60.7508 334.552 60.9279C335.525 61.1062 336.927 61.389 338.654 61.7642C342.108 62.5107 346.861 63.6324 352.078 65.0037C357.294 66.3725 361.984 67.736 365.359 68.7823C367.036 69.3254 368.409 69.6477 369.383 69.649C370.353 69.6675 370.881 69.4905 370.896 69.5499L370.898 69.5513Z" fill="#263238"/>
<path d="M362.5 47.7305C362.487 47.8349 360.876 46.9431 358.081 47.1148C356.703 47.202 355.064 47.5786 353.455 48.4492C351.841 49.3186 350.365 50.7296 349.299 52.574C348.724 53.4631 348.091 54.3444 347.233 54.9323C346.387 55.5216 345.45 55.8585 344.567 56.1346C342.796 56.6525 341.168 57.0634 340.062 57.905C338.949 58.7188 338.477 59.8313 338.405 60.5804C338.326 61.348 338.541 61.7576 338.504 61.7642C338.504 61.7642 338.252 61.3718 338.299 60.5711C338.342 59.7903 338.799 58.6211 339.945 57.7504C341.077 56.8586 342.743 56.42 344.492 55.8941C345.364 55.6154 346.273 55.2798 347.078 54.7143C347.888 54.1554 348.496 53.3139 349.07 52.426C350.134 50.5763 351.685 49.0927 353.336 48.2286C354.988 47.35 356.668 46.9867 358.072 46.9233C359.482 46.8493 360.617 47.0752 361.366 47.3011C362.119 47.5218 362.502 47.7318 362.502 47.7318L362.5 47.7305Z" fill="#263238"/>
<path d="M361.483 47.4504C361.528 47.5032 360.066 47.5059 358.604 49.0265C357.876 49.7585 357.243 50.8273 356.686 52.0798C356.115 53.323 355.599 54.7724 354.684 56.1121C354.227 56.7766 353.681 57.3698 353.05 57.8151C352.418 58.259 351.745 58.551 351.14 58.872C349.895 59.46 349.063 60.4139 348.647 61.3532C347.801 63.2716 348.338 64.6311 348.252 64.61C348.252 64.61 348.118 64.3087 348.06 63.7208C348.005 63.1395 348.046 62.2543 348.468 61.274C348.867 60.2963 349.752 59.2591 351.021 58.6488C351.632 58.3171 352.295 58.0212 352.894 57.5958C353.491 57.1703 354.013 56.6022 354.457 55.9562C355.346 54.6575 355.867 53.2253 356.456 51.9741C357.029 50.7177 357.698 49.625 358.466 48.8891C359.222 48.1427 360.012 47.7437 360.581 47.5825C361.152 47.4173 361.484 47.449 361.484 47.449L361.483 47.4504Z" fill="#263238"/>
<path d="M362.417 47.0778C362.417 47.0778 362.623 47.3116 362.882 47.8057C363.141 48.2985 363.445 49.0582 363.604 50.0478C363.757 51.0334 363.746 52.2581 363.346 53.5304C362.959 54.8173 362.071 55.9984 361.451 57.3447C360.797 58.6937 360.824 60.1549 360.901 61.4457C360.985 62.7418 361.052 63.9454 360.848 64.9323C360.673 65.9219 360.281 66.6657 359.922 67.0951C359.557 67.5258 359.275 67.6698 359.275 67.6698C359.214 67.654 360.374 66.885 360.656 64.898C360.83 63.9335 360.745 62.7656 360.647 61.4602C360.555 60.1721 360.517 58.6368 361.199 57.2311C361.842 55.8412 362.722 54.6838 363.104 53.4512C363.504 52.2278 363.536 51.0387 363.411 50.0742C363.141 48.1215 362.347 47.1029 362.417 47.0778Z" fill="#263238"/>
<path d="M363.745 48.2695C363.745 48.2695 364.087 48.2774 364.655 48.4967C365.216 48.7134 366.021 49.1547 366.705 50.0174C367.389 50.8643 367.875 52.1855 367.698 53.6388C367.598 55.137 366.322 56.3789 366.208 57.9525C366.168 58.7373 366.526 59.4639 366.925 60.106C367.324 60.756 367.781 61.3559 368.087 62.0164C368.715 63.3324 368.767 64.6932 368.583 65.7567C368.401 66.8322 367.992 67.6341 367.66 68.1349C367.317 68.6343 367.059 68.8523 367.059 68.8523C366.981 68.8232 368.061 67.8482 368.391 65.725C368.546 64.6892 368.47 63.3773 367.858 62.1261C367.561 61.4985 367.107 60.9093 366.696 60.2474C366.289 59.596 365.891 58.8152 365.934 57.9406C365.974 57.0712 366.384 56.3301 366.722 55.6483C367.077 54.9653 367.366 54.2954 367.446 53.6058C367.629 52.2278 367.187 50.9621 366.551 50.135C365.914 49.2908 365.151 48.8363 364.614 48.5945C364.071 48.3501 363.738 48.2959 363.745 48.2695Z" fill="#263238"/>
<path d="M356.678 54.3509C356.69 54.1699 359.636 54.2848 363.131 55.2149C364.866 55.7051 366.431 56.1649 367.49 56.8241C368.571 57.4927 368.771 58.358 368.681 58.3594C368.585 58.4096 368.269 57.7331 367.247 57.2456C366.251 56.7568 364.659 56.3578 362.955 55.8795C359.523 54.9652 356.657 54.5491 356.678 54.3509Z" fill="#263238"/>
<path d="M248.776 136.114L247.851 132.058C247.851 132.058 246.895 129.696 246.158 125.271C245.967 124.123 245.984 122.95 246.19 121.804C246.439 120.414 246.844 118.582 247.38 117.648C248.041 116.492 246.949 115.135 245.843 115.628C244.735 116.121 242.835 119.264 242.461 123.534C242.087 127.804 238.289 122.222 236.869 120.212C235.448 118.203 230.761 112.19 229.795 112.136C228.379 112.057 228.033 113.555 229.498 115.529C230.983 117.526 234.941 123.732 233.84 124.428C233.84 124.428 232.076 124.308 231.23 124.758C230.948 124.909 230.769 125.122 230.79 125.424C230.877 126.633 230.73 127.37 230.73 127.37C230.73 127.37 229.01 127.127 228.718 127.887C228.426 128.647 228.576 130.257 228.576 130.257C228.576 130.257 227.242 129.918 226.661 130.453C225.405 131.609 227.255 133.276 227.255 133.276C231.64 138.133 240.555 145.159 240.555 145.159L248.802 135.87" fill="#E5BAAB"/>
<path d="M231.363 127.612C231.298 127.672 231.906 128.48 233.05 129.65C233.621 130.234 234.327 130.905 235.15 131.608C235.57 131.951 235.971 132.336 236.531 132.668C237.068 133.001 237.922 133.177 238.601 132.708C238.944 132.482 239.163 132.045 239.154 131.656C239.158 131.269 239.017 130.917 238.834 130.636C238.45 130.079 238.032 129.743 237.683 129.338C236.962 128.557 236.348 127.82 235.846 127.191C234.843 125.929 234.273 125.102 234.187 125.154C234.113 125.197 234.539 126.118 235.46 127.474C235.922 128.15 236.507 128.932 237.218 129.751C237.558 130.166 238.006 130.576 238.275 130.991C238.545 131.404 238.569 131.93 238.214 132.155C237.834 132.412 237.302 132.355 236.857 132.091C236.405 131.836 235.968 131.452 235.549 131.128C234.717 130.462 233.987 129.836 233.38 129.302C232.166 128.235 231.436 127.545 231.363 127.612Z" fill="#D78776"/>
<path d="M229.313 130.444C229.255 130.508 229.837 131.189 230.909 132.174C231.451 132.662 232.122 133.223 232.953 133.741C233.372 134.002 233.817 134.245 234.325 134.463C234.587 134.567 234.873 134.656 235.202 134.671C235.523 134.691 235.927 134.597 236.202 134.315C236.759 133.716 236.591 132.902 236.279 132.415C235.956 131.905 235.574 131.585 235.252 131.236C234.636 130.615 234.041 130.017 233.466 129.438C232.434 128.427 231.762 127.834 231.694 127.899C231.627 127.964 232.174 128.671 233.118 129.765C233.659 130.376 234.217 131.006 234.798 131.662C235.111 132.02 235.488 132.376 235.711 132.754C235.944 133.112 235.959 133.604 235.724 133.839C235.505 134.08 235.005 134.023 234.57 133.848C234.121 133.665 233.675 133.44 233.277 133.209C232.47 132.745 231.787 132.24 231.216 131.808C230.084 130.931 229.381 130.37 229.314 130.444H229.313Z" fill="#D78776"/>
<path d="M229.067 134.184C229.01 134.222 229.142 134.755 229.78 135.432C230.107 135.749 230.627 136.101 231.332 136.074C231.685 136.053 232.043 135.917 232.333 135.648C232.628 135.385 232.803 134.926 232.75 134.515C232.626 133.687 232.145 133.217 231.827 132.757C231.477 132.302 231.136 131.914 230.835 131.604C230.232 130.981 229.793 130.665 229.728 130.728C229.659 130.794 229.971 131.224 230.468 131.909C230.771 132.339 231.052 132.738 231.32 133.12C231.62 133.581 232.023 134.094 232.076 134.58C232.146 135.044 231.715 135.405 231.282 135.452C230.838 135.502 230.399 135.296 230.093 135.068C229.472 134.579 229.155 134.112 229.067 134.181V134.184Z" fill="#D78776"/>
<path d="M392.798 217.744C392.798 217.744 388.647 220.593 383.968 224.85C381.323 227.256 386.527 241.567 389.393 239.049C392.258 236.531 400.122 226.672 400.122 226.672L392.8 217.744H392.798Z" fill="#E5BAAB"/>
<path d="M388.982 239.299C388.982 239.299 397.13 238.395 396.905 236.72C396.68 235.046 394.893 233.032 394.893 233.032L388.982 239.299Z" fill="#D78776"/>
<path d="M389.056 223.393L317.795 227.708L320.269 174.763L321.651 161.843C315.484 169.987 304.402 181.46 291.136 180.997C268.45 180.206 235.187 142.032 235.187 142.032L250.195 131.632C250.195 131.632 286.262 155.806 291.05 156.107C296.511 156.451 313.683 132.955 313.683 132.955V132.958C324.694 116.581 338.928 114.129 344.107 113.8V111.755L369.557 110.079C369.557 110.079 369.481 112.259 369.509 114.164C382.941 114.622 395.616 120.668 404.216 130.964C405.457 132.45 406.744 134.073 408.07 135.842L388.855 151.988L385.376 188.655L389.056 223.394V223.393Z" fill="#028894"/>
<g opacity="0.3">
<path d="M389.056 223.393L317.795 227.708L320.269 174.763L321.651 161.843C315.484 169.987 304.402 181.46 291.136 180.997C268.45 180.206 235.187 142.032 235.187 142.032L250.195 131.632C250.195 131.632 286.262 155.806 291.05 156.107C296.511 156.451 313.683 132.955 313.683 132.955V132.958C324.694 116.581 338.928 114.129 344.107 113.8V111.755L369.557 110.079C369.557 110.079 369.481 112.259 369.509 114.164C382.941 114.622 395.616 120.668 404.216 130.964C405.457 132.45 406.744 134.073 408.07 135.842L388.855 151.988L385.376 188.655L389.056 223.394V223.393Z" fill="#028894"/>
</g>
<path d="M290.554 164.241C290.502 164.255 290.498 164.435 290.541 164.76L290.606 165.254L290.831 164.761C291.143 164.077 291.618 162.534 291.76 160.687C291.982 158.081 291.458 156.003 291.287 156.041C291.089 156.07 291.3 158.124 291.084 160.632C290.948 162.417 290.637 163.941 290.542 164.678H290.832C290.702 164.379 290.607 164.226 290.555 164.241H290.554Z" fill="black"/>
<path d="M287.634 164.017C287.786 164.114 288.9 162.59 289.799 160.462C290.705 158.336 291.029 156.48 290.852 156.438C290.666 156.388 290.06 158.125 289.174 160.199C288.298 162.276 287.467 163.918 287.634 164.017Z" fill="black"/>
<path d="M401.752 128.738L429.324 159.722C437.431 169.518 435.85 182.533 429.405 193.487C419.599 210.153 401.403 229.361 401.562 229.21C401.821 228.964 390.046 214.866 390.046 214.866C390.046 214.866 411.686 182.054 408.947 175.828C406.208 169.601 385.998 149.281 385.998 149.281L401.753 128.738H401.752Z" fill="#028894"/>
<g opacity="0.3">
<path d="M401.752 128.738L429.324 159.722C437.431 169.518 435.85 182.533 429.405 193.487C419.599 210.153 401.403 229.361 401.562 229.21C401.821 228.964 390.046 214.866 390.046 214.866C390.046 214.866 411.686 182.054 408.947 175.828C406.208 169.601 385.998 149.281 385.998 149.281L401.753 128.738H401.752Z" fill="#028894"/>
</g>
<path d="M392.925 209.984C392.856 210.048 393.518 210.892 394.647 212.202C395.777 213.513 397.375 215.291 399.209 217.193C401.043 219.096 402.775 220.752 404.068 221.905C405.363 223.059 406.214 223.715 406.275 223.648C406.34 223.576 405.605 222.797 404.4 221.56C403.006 220.127 401.433 218.51 399.697 216.723C396.047 212.925 393.07 209.848 392.924 209.983L392.925 209.984Z" fill="#028894"/>
<path d="M401.562 229.21C401.58 229.226 401.741 229.075 402.034 228.775C402.375 228.413 402.789 227.972 403.29 227.44C404.43 226.182 405.961 224.493 407.82 222.442C411.603 218.189 416.935 212.387 422.139 205.397C424.731 201.897 426.996 198.404 428.794 195.081C430.596 191.76 431.946 188.626 432.88 185.927C433.825 183.23 434.35 180.973 434.653 179.409C434.806 178.627 434.897 178.014 434.945 177.597C434.997 177.18 435.013 176.96 434.99 176.956C434.93 176.945 434.775 177.812 434.395 179.352C434.015 180.892 433.422 183.111 432.43 185.764C431.445 188.42 430.063 191.505 428.246 194.78C426.434 198.058 424.17 201.513 421.593 204.994C416.421 211.943 411.147 217.795 407.459 222.125C405.668 224.233 404.193 225.969 403.094 227.261C402.63 227.827 402.248 228.296 401.932 228.682C401.672 229.011 401.544 229.192 401.561 229.207L401.562 229.21Z" fill="#028894"/>
<path d="M417.297 175.23C417.316 175.419 415.601 175.739 413.466 175.944C411.331 176.149 409.588 176.162 409.569 175.973C409.55 175.784 411.265 175.464 413.4 175.259C415.533 175.055 417.279 175.041 417.297 175.23Z" fill="black"/>
<path d="M413.947 170.874C414.077 171.013 412.891 172.324 411.298 173.802C409.706 175.28 408.309 176.365 408.179 176.226C408.049 176.088 409.235 174.777 410.828 173.299C412.421 171.822 413.818 170.736 413.947 170.876V170.874Z" fill="black"/>
</svg>
