<svg width="551" height="496" viewBox="0 0 551 496" fill="none" xmlns="http://www.w3.org/2000/svg">
<path d="M348.443 115.161L353.524 154.903L393.304 176.931L382.396 187.852L342.911 176.276C336.054 174.377 330.937 168.641 329.825 161.605L323.839 123.736L348.443 115.161Z" fill="#E9B376"/>
<path d="M347.048 84.6781C343.254 75.9968 334.689 74.5118 332.244 74.6047C325.415 74.8657 330.988 87.6819 327.98 93.8268C321.507 106.565 327.808 138.366 327.808 138.366L361.334 132.867C357.929 114.5 351.537 95.5994 347.048 84.6781Z" fill="#263238"/>
<path opacity="0.3" d="M339.346 137.219L339.876 109.864L347.048 135.383L339.346 137.219Z" fill="black"/>
<path d="M233.011 114.325C222.76 125.666 220.143 142.779 218.71 158.076C217.296 173.163 217.346 188.376 218.867 203.451C219.253 207.28 219.825 211.201 221.745 214.446C225.897 221.46 234.675 223.014 242.393 223.896C249.869 224.75 258.475 225.203 263.756 219.478C267.913 214.973 268.568 208.085 268.991 201.772C270.673 176.682 271.642 148.562 273.119 122.606C273.677 112.819 266.418 104.301 257.254 104.576C248.068 104.851 238.187 108.597 233.011 114.325Z" fill="#028894"/>
<g opacity="0.3">
<path d="M233.011 114.325C222.76 125.666 220.143 142.779 218.71 158.076C217.296 173.163 217.346 188.376 218.867 203.451C219.253 207.28 219.825 211.201 221.745 214.446C225.897 221.46 234.675 223.014 242.393 223.896C249.869 224.75 258.475 225.203 263.756 219.478C267.913 214.973 268.568 208.085 268.991 201.772C270.673 176.682 271.642 148.562 273.119 122.606C273.677 112.819 266.418 104.301 257.254 104.576C248.068 104.851 238.187 108.597 233.011 114.325Z" fill="white"/>
</g>
<path opacity="0.3" d="M263.686 182.874L217.715 177.651C217.629 186.263 218.002 194.879 218.868 203.451C219.254 207.28 219.825 211.201 221.746 214.446C225.898 221.46 234.676 223.014 242.393 223.896C249.869 224.75 258.475 225.203 263.757 219.478C265.072 218.052 266.007 216.372 266.725 214.563L263.686 182.874Z" fill="white"/>
<path d="M353.492 446.448L365.531 478.981L376.441 475.451L372.678 441.113L353.492 446.448Z" fill="#E9B376"/>
<path d="M364.354 492.667L374.247 492.593C374.247 492.593 376.24 491.514 377.415 491.647C378.587 491.782 382.667 492.529 382.667 492.529L408.939 492.329C408.722 491.228 408.455 490.249 408.153 489.38C407.785 488.321 407.361 487.426 406.889 486.668C405.241 484.021 403.014 483.091 400.597 482.957C396.917 482.753 385.281 475.104 385.281 475.104C385.281 475.104 381.071 473.665 380.808 469.189C380.71 467.511 378.219 465.482 377.041 465.323C374.636 464.994 373.31 466.527 372.979 468.934L372.597 471.73L367.042 470.906C367.042 470.906 361.374 468.104 361.67 470.866C361.84 472.442 362.841 479.459 363.478 485.027C363.628 486.325 363.766 487.553 363.888 488.631H363.891C364.164 491.023 364.354 492.667 364.354 492.667Z" fill="#263238"/>
<path d="M408.941 492.331L382.668 492.529C382.668 492.529 378.589 491.782 377.416 491.647C376.241 491.514 374.248 492.594 374.248 492.594L364.354 492.667C364.354 492.667 364.164 491.024 363.891 488.633L408.154 489.38C408.456 490.249 408.723 491.228 408.941 492.33V492.331Z" fill="#E0E0E0"/>
<path d="M391.068 477.934C390.945 477.816 390.757 477.804 390.615 477.9C389.967 478.338 389.425 478.953 389.059 479.723C388.866 480.128 389.458 480.515 389.652 480.105C389.978 479.42 390.452 478.876 391.017 478.493C391.206 478.364 391.235 478.099 391.072 477.94C391.072 477.94 391.069 477.937 391.066 477.934H391.068Z" fill="white"/>
<path d="M388.968 476.717C388.846 476.599 388.657 476.588 388.516 476.683C387.868 477.121 387.326 477.736 386.959 478.506C386.766 478.912 387.358 479.298 387.553 478.888C387.878 478.204 388.352 477.66 388.918 477.276C389.106 477.148 389.136 476.882 388.972 476.723C388.972 476.723 388.969 476.719 388.967 476.717H388.968Z" fill="white"/>
<path d="M386.804 475.582C386.682 475.464 386.493 475.452 386.352 475.548C385.704 475.986 385.162 476.601 384.795 477.371C384.602 477.776 385.194 478.162 385.389 477.753C385.714 477.068 386.188 476.524 386.754 476.141C386.942 476.012 386.972 475.747 386.808 475.588C386.808 475.588 386.805 475.585 386.802 475.582H386.804Z" fill="white"/>
<path d="M236.459 424.094L220.831 455.059L230.837 460.667L253.417 434.547L236.459 424.094Z" fill="#E9B376"/>
<path d="M210.011 463.506L216.795 470.717C216.795 470.717 218.941 471.445 219.644 472.398C220.342 473.351 222.57 476.853 222.57 476.853L240.587 496C241.246 495.092 241.78 494.229 242.21 493.416C242.735 492.425 243.101 491.505 243.336 490.644C244.153 487.634 243.318 485.366 241.773 483.502C239.418 480.662 237.104 466.92 237.104 466.92C237.104 466.92 235.292 462.851 238.391 459.614C239.552 458.401 239.344 455.192 238.659 454.218C237.265 452.229 235.241 452.3 233.253 453.695L230.946 455.317L227.771 450.679C227.771 450.679 225.968 444.614 224.146 446.71C223.108 447.906 218.651 453.413 215.009 457.669C214.16 458.662 213.356 459.6 212.651 460.422V460.425C211.086 462.252 210.013 463.509 210.013 463.509L210.011 463.506Z" fill="#263238"/>
<path d="M240.586 495.999L222.57 476.852C222.57 476.852 220.342 473.349 219.644 472.397C218.941 471.443 216.795 470.716 216.795 470.716L210.011 463.505C210.011 463.505 211.085 462.248 212.651 460.421L242.212 493.415C241.782 494.228 241.246 495.09 240.589 495.999H240.586Z" fill="#E0E0E0"/>
<path d="M238.968 473.088C238.971 472.917 238.852 472.771 238.685 472.733C237.924 472.554 237.105 472.577 236.292 472.83C235.863 472.964 235.984 473.662 236.417 473.526C237.139 473.299 237.86 473.279 238.526 473.432C238.749 473.484 238.964 473.324 238.968 473.096C238.968 473.093 238.968 473.091 238.968 473.088Z" fill="white"/>
<path d="M238.432 470.72C238.435 470.549 238.316 470.403 238.15 470.365C237.388 470.186 236.569 470.207 235.756 470.462C235.328 470.596 235.448 471.294 235.881 471.158C236.603 470.932 237.325 470.91 237.991 471.064C238.213 471.115 238.428 470.956 238.432 470.727C238.432 470.724 238.432 470.723 238.432 470.72Z" fill="white"/>
<path d="M237.79 468.361C237.793 468.189 237.674 468.043 237.508 468.005C236.746 467.828 235.927 467.849 235.114 468.102C234.686 468.237 234.806 468.934 235.239 468.798C235.961 468.571 236.683 468.551 237.348 468.704C237.571 468.756 237.786 468.596 237.79 468.368C237.79 468.365 237.79 468.363 237.79 468.361Z" fill="white"/>
<path d="M320.298 337.044C319.379 339.98 318.51 342.628 317.744 344.93C309.623 368.436 246.948 457.666 246.948 457.666L221.275 438.155C221.275 438.155 258.03 361.156 280.044 334.407C280.044 334.407 281.018 295.327 283.777 266.083C293.038 290.525 305.262 314.279 320.298 337.044Z" fill="#37474F"/>
<path opacity="0.4" d="M320.298 337.044C319.379 339.98 318.51 342.628 317.744 344.93C309.623 368.436 246.948 457.666 246.948 457.666L221.275 438.155C221.275 438.155 258.03 361.156 280.044 334.407C280.044 334.407 281.018 295.327 283.777 266.083C293.038 290.525 305.262 314.279 320.298 337.044Z" fill="black"/>
<path d="M378.636 452.829L351.966 460.831C326.863 390.869 315.843 341.86 315.843 341.86C314.822 340.229 313.824 338.598 312.85 337.005C298.858 314.229 287.482 290.462 278.866 266.006C273.026 256.207 269.624 245.113 269.133 233.713C268.12 210.096 275.645 195.142 275.645 195.142L285.064 190.383H285.254L344.074 200.936C344.074 200.936 339.338 217.643 333.733 246.722L355.1 330.058L378.636 452.829Z" fill="#5F6982"/>
<path opacity="0.3" d="M378.636 452.829L351.966 460.831C326.863 390.869 315.843 341.86 315.843 341.86C314.822 340.229 313.824 338.598 312.85 337.005C298.858 314.229 287.482 290.462 278.866 266.006C273.026 256.207 269.624 245.113 269.133 233.713C268.12 210.096 275.645 195.142 275.645 195.142L285.064 190.383H285.254L344.074 200.936C344.074 200.936 339.338 217.643 333.733 246.722L355.1 330.058L378.636 452.829Z" fill="black"/>
<path opacity="0.3" d="M269.041 223.319V229.837C269.041 229.837 280.919 232.051 302.393 234.332C323.867 236.614 336.429 233.319 336.429 233.319L337.61 227.777L269.041 223.319Z" fill="black"/>
<path d="M267.643 97.2142L261.923 222.165C288.952 231.035 318.266 231.921 347.251 226.343C347.251 226.343 349.035 220.184 346.487 217.215C344.784 215.228 342.264 144.728 341.052 105.092C340.982 101.707 345.147 87.6039 342.257 79.9415C340.244 74.6047 331.579 74.5266 329.227 74.4234H296.112C293.898 74.3909 276.416 75.8862 273.071 77.8637C267.356 81.2392 267.484 87.1261 267.643 97.2142Z" fill="#263238"/>
<path opacity="0.3" d="M265.375 142.036L272.284 142.284L274.832 115.976L265.894 136.728L265.375 142.036Z" fill="black"/>
<path d="M295.379 0.649131C296.123 0.0445211 297.164 -0.132438 298.095 0.0961341C299.026 0.324706 299.838 0.933739 300.406 1.70499L294.499 3.21946C294.245 2.29485 294.636 1.25227 295.378 0.649131H295.379Z" fill="#028894"/>
<path d="M324.251 14.4534L326.612 17.8731C326.612 17.8731 333.45 16.5253 332.057 22.9636C334.194 24.3852 334.774 27.2711 333.355 29.4108C332.888 30.1142 332.24 30.6761 331.478 31.0389C331.478 31.0389 331.059 41.677 321.702 35.1045C312.345 28.5319 315.72 14.6642 315.72 14.6642L324.251 14.4534Z" fill="#263238"/>
<path d="M294.044 74.0915C294.044 74.0915 295.36 64.6463 289.837 48.2732C289.837 48.2555 290.691 47.8293 290.691 47.8116C289.929 45.5215 289.131 43.4097 288.386 41.5797C288.368 41.5266 288.368 41.5089 288.368 41.5089L311.632 54.5405C311.331 59.8669 313.676 70.0303 314.998 74.3083C314.998 74.3083 318.199 82.0207 307.804 82.817C300.207 83.3995 294.044 74.0915 294.044 74.0915Z" fill="#E9B376"/>
<path opacity="0.2" d="M312.346 61.9787L299.18 59.6045C300.54 63.6126 304.337 68.2681 313.427 68.2652C313.427 68.2652 312.325 63.7616 312.346 61.9787Z" fill="black"/>
<path d="M325.587 14.6672C328.481 19.7991 329.929 31.2984 321.478 29.256C313.027 27.2151 320.612 5.84732 325.587 14.6672Z" fill="#263238"/>
<path d="M281.401 29.1778L281.019 34.2742C281.019 34.2742 272.673 34.6665 276.858 42.6193C276.858 42.6193 271.86 51.9259 281.639 51.7784C281.639 51.7784 282.707 60.0291 290.587 54.5729C298.466 49.1167 298.628 34.2492 298.628 34.2492L295.108 19.2593L284.722 25.4292L281.401 29.1778Z" fill="#263238"/>
<path d="M287.714 30.4976C289.868 44.8107 290.793 52.9272 298.712 59.6044C310.624 69.6469 327.413 61.6837 329.581 46.971C331.531 33.7286 327.684 12.5466 313.093 8.20082C298.718 3.91989 285.563 16.1846 287.714 30.4976Z" fill="#E9B376"/>
<path d="M283.098 42.9968C284.573 46.6009 287.58 49.1683 290.558 50.3347C295.035 52.0896 297.797 48.1773 296.989 43.6781C296.263 39.6287 293.058 33.8377 288.354 34.0073C283.719 34.1739 281.411 38.8766 283.098 42.9968Z" fill="#E9B376"/>
<path d="M308.655 33.211C308.785 34.6842 309.67 35.8005 310.632 35.7061C311.593 35.6117 312.268 34.3406 312.138 32.8674C312.009 31.3942 311.124 30.2779 310.162 30.3723C309.2 30.4666 308.525 31.7393 308.655 33.211Z" fill="#263238"/>
<path d="M323.106 32.8335C323.236 34.3067 324.121 35.423 325.083 35.3287C326.045 35.2343 326.719 33.9631 326.59 32.4899C326.46 31.0168 325.575 29.9004 324.613 29.9948C323.651 30.0892 322.977 31.3604 323.106 32.8335Z" fill="#263238"/>
<path d="M318.342 31.4429C318.342 31.4429 323.644 38.3487 325.4 41.1963C323.516 43.2283 319.913 42.6871 319.913 42.6871L318.342 31.4429Z" fill="#D58745"/>
<path d="M304.448 26.2093C304.677 26.28 304.939 26.2299 305.129 26.0515C307.393 23.9383 309.875 24.5031 309.9 24.509C310.271 24.5974 310.647 24.3704 310.74 24.0002C310.832 23.6301 310.604 23.257 310.236 23.1685C310.105 23.1361 306.994 22.4268 304.187 25.0502C303.907 25.3112 303.891 25.7492 304.15 26.0249C304.234 26.1149 304.337 26.1739 304.448 26.2093Z" fill="#263238"/>
<path opacity="0.2" d="M286.029 38.7278C286.533 37.8179 287.686 37.3962 288.713 37.5554C289.739 37.7147 290.638 38.3591 291.326 39.1407C292.15 40.0786 292.725 41.2347 292.974 42.4587" stroke="black" stroke-width="0.5" stroke-linecap="round" stroke-linejoin="round"/>
<path d="M305.836 43.4952L318.523 47.3471C317.828 48.745 317.119 50.1592 316.087 51.3286C315.054 52.498 313.713 53.023 312.156 53.1189C309.929 53.2575 307.79 52.0497 306.798 50.0486C305.805 48.0475 305.702 45.7235 305.837 43.4938L305.836 43.4952Z" fill="black"/>
<path d="M317.503 47.0374C317.503 47.0374 316.698 48.6389 315.922 48.8969C315.146 49.155 305.789 45.8282 305.789 45.8282L305.836 43.4938L317.501 47.0359L317.503 47.0374Z" fill="white"/>
<path d="M313.743 52.8416C313.743 52.8416 313.043 50.6518 310.424 49.7006C307.806 48.7495 306.483 49.3305 306.483 49.3305C306.483 49.3305 307.336 51.9259 309.8 52.7576C312.264 53.5893 313.741 52.8402 313.741 52.8402L313.743 52.8416Z" fill="#DE5753"/>
<path d="M287.672 35.6206C287.672 35.6206 287.984 43.0941 292.9 42.1504C297.817 41.2066 293.077 32.7406 295.051 29.8576C297.568 26.7136 298.342 22.5153 297.114 18.6782C295.469 14.4371 285.996 26.0781 285.996 26.0781L287.672 35.6206Z" fill="#263238"/>
<path d="M281.313 35.479C294.065 23.9383 310.749 17.73 327.934 18.1282C327.934 18.1282 317.501 -7.07521 295.57 2.39357C274.27 11.5895 281.313 35.479 281.313 35.479Z" fill="#028894"/>
<path d="M329.119 25.3127C329.244 25.2744 329.36 25.1992 329.45 25.0886C329.692 24.7922 329.652 24.3542 329.359 24.1124C326.419 21.6836 323.39 22.6451 323.248 22.6716C322.886 22.7896 322.683 23.1789 322.796 23.5446C322.909 23.9089 323.291 24.1094 323.653 23.9959C323.778 23.9502 326.12 23.2394 328.481 25.1889C328.665 25.3422 328.907 25.3806 329.12 25.3142L329.119 25.3127Z" fill="#263238"/>
<path opacity="0.2" d="M281.313 35.479C294.065 23.9383 310.749 17.73 327.934 18.1282C327.934 18.1282 317.501 -7.07521 295.57 2.39357C274.27 11.5895 281.313 35.479 281.313 35.479Z" fill="black"/>
<path d="M327.936 18.1282C327.936 18.1282 346.246 4.27529 327.673 0.727265C309.099 -2.82076 293.694 26.6606 293.694 26.6606C304.181 20.9035 315.978 17.9645 327.936 18.1282Z" fill="#028894"/>
<path d="M412.816 495.999V375.047C412.816 344.567 437.495 319.857 467.937 319.857C498.379 319.857 523.058 344.566 523.058 375.047V495.999" stroke="#263238" stroke-width="5" stroke-miterlimit="10"/>
<path opacity="0.3" d="M412.816 495.999V375.047C412.816 344.567 437.495 319.857 467.937 319.857C498.379 319.857 523.058 344.566 523.058 375.047V495.999" stroke="white" stroke-width="5" stroke-miterlimit="10"/>
<path d="M379.759 172.357L392.625 177.169L401.424 177.422C401.424 177.422 407.89 180.016 408.461 182.426C409.034 184.835 407.539 190.017 407.539 190.017C407.539 190.017 406.904 194.71 402.439 194.062C402.439 194.062 402.234 198.51 397.106 197.898C397.106 197.898 398.62 201.366 393.678 200.079C388.735 198.792 386.428 195.639 384.738 193.068C383.05 190.497 381.139 188.075 381.139 188.075L364.23 179.867L379.76 172.358L379.759 172.357Z" fill="#E9B376"/>
<path d="M398.97 235.574C397.332 235.574 395.794 234.556 395.21 232.922C394.466 230.843 395.547 228.553 397.624 227.808L405.203 225.089C409.311 223.616 412.566 220.612 414.37 216.632C416.174 212.653 416.286 208.221 414.688 204.155C411.622 196.352 402.963 192.222 394.983 194.754L348.016 209.641C345.915 210.309 343.668 209.142 343.001 207.035C342.336 204.929 343.5 202.682 345.603 202.015L392.57 187.127C404.549 183.333 417.523 189.526 422.121 201.225C424.518 207.324 424.35 213.969 421.646 219.937C418.942 225.905 414.058 230.408 407.895 232.619L400.316 235.337C399.871 235.496 399.418 235.571 398.97 235.571V235.574Z" fill="#028894"/>
<g opacity="0.2">
<path d="M398.97 235.574C397.332 235.574 395.794 234.556 395.21 232.922C394.466 230.843 395.547 228.553 397.624 227.808L405.203 225.089C409.311 223.616 412.566 220.612 414.37 216.632C416.174 212.653 416.286 208.221 414.688 204.155C411.622 196.352 402.963 192.222 394.983 194.754L348.016 209.641C345.915 210.309 343.668 209.142 343.001 207.035C342.336 204.929 343.5 202.682 345.603 202.015L392.57 187.127C404.549 183.333 417.523 189.526 422.121 201.225C424.518 207.324 424.35 213.969 421.646 219.937C418.942 225.905 414.058 230.408 407.895 232.619L400.316 235.337C399.871 235.496 399.418 235.571 398.97 235.571V235.574Z" fill="#028894"/>
</g>
<path d="M397.007 181.09C396.842 184.453 396.677 187.817 396.513 191.181C396.481 191.837 396.455 192.523 396.726 193.121C397.24 194.258 398.718 194.704 399.922 194.381C401.125 194.058 402.082 193.15 402.867 192.181C404.912 189.659 406.149 186.493 406.356 183.252L397.008 181.087L397.007 181.09Z" fill="#E9B376"/>
<path d="M300.031 397.407H394.283L351.409 477.837" stroke="#263238" stroke-miterlimit="10"/>
<path d="M480.409 412.614L394.299 396.96L439.157 321.309" stroke="#263238" stroke-miterlimit="10"/>
<path d="M341.408 325.75C342.772 326.66 394.299 396.962 394.299 396.962L425.363 477.838" stroke="#263238" stroke-miterlimit="10"/>
<path d="M6.06104 397.407H100.314L57.4394 477.837" stroke="#263238" stroke-miterlimit="10"/>
<path d="M186.439 412.614L100.328 396.96L145.186 321.309" stroke="#263238" stroke-miterlimit="10"/>
<path d="M47.437 325.75C48.8009 326.66 100.328 396.962 100.328 396.962L131.391 477.838" stroke="#263238" stroke-miterlimit="10"/>
<path d="M98.4854 311.19C146.042 311.19 184.595 349.79 184.595 397.406C184.595 445.021 146.042 483.622 98.4854 483.622C50.9291 483.622 12.3762 445.021 12.3762 397.406C12.4278 349.811 50.9497 311.24 98.4854 311.19ZM98.4854 298.813C44.1025 298.806 0.00883833 342.939 1.32846e-06 397.391C-0.00883567 451.843 44.0716 495.989 98.4545 495.998C152.839 496.007 196.931 451.872 196.94 397.422V397.406C196.94 342.954 152.854 298.813 98.4692 298.813H98.4854Z" fill="#263238"/>
<path d="M98.4854 314.872C144.012 314.863 180.924 351.809 180.933 397.391C180.942 442.973 144.042 479.932 98.5163 479.941C52.9911 479.95 16.0774 443.005 16.0686 397.422V397.406C16.1113 351.848 52.9837 314.922 98.4854 314.871M98.4854 303.036C46.431 303.036 4.23291 345.287 4.23291 397.406C4.23291 449.525 46.431 491.775 98.4854 491.775C150.54 491.775 192.738 449.525 192.738 397.406C192.738 345.287 150.54 303.036 98.4854 303.036Z" fill="#028894"/>
<path d="M394.283 311.19C441.839 311.181 480.4 349.774 480.408 397.391C480.417 445.008 441.872 483.614 394.314 483.623C346.758 483.632 308.197 445.039 308.189 397.422V397.406C308.24 349.811 346.762 311.24 394.298 311.19M394.298 298.813C339.913 298.813 295.827 342.954 295.827 397.406C295.827 451.857 339.913 495.998 394.298 495.998C448.682 495.998 492.769 451.857 492.769 397.406C492.769 342.954 448.682 298.813 394.298 298.813Z" fill="#263238"/>
<path d="M394.283 314.872C439.809 314.863 476.722 351.809 476.731 397.391C476.74 442.973 439.841 479.932 394.314 479.941C348.789 479.95 311.875 443.005 311.866 397.422V397.406C311.909 351.848 348.78 314.922 394.283 314.871M394.283 303.036C342.229 303.036 300.031 345.287 300.031 397.406C300.031 449.525 342.229 491.775 394.283 491.775C446.338 491.775 488.536 449.525 488.536 397.406C488.536 345.287 446.338 303.036 394.283 303.036Z" fill="#028894"/>
<path d="M400.962 411.065C408.496 407.373 411.613 398.264 407.925 390.721C404.237 383.178 395.14 380.057 387.606 383.749C380.073 387.442 376.955 396.55 380.643 404.093C384.331 411.636 393.428 414.758 400.962 411.065Z" fill="#263238"/>
<path d="M98.4708 386.825C99.437 386.828 100.399 386.964 101.33 387.228H101.67L234.812 413.805C244.592 416.348 250.461 426.346 247.922 436.138C245.825 444.226 238.524 449.868 230.177 449.852C228.688 449.85 227.204 449.668 225.759 449.311L95.7991 407.541H95.6298C90.0153 405.945 86.7545 400.094 88.3481 394.473C89.6324 389.941 93.7534 386.806 98.4576 386.781M98.4576 382.14C90.061 382.025 83.1622 388.746 83.0473 397.153C82.9516 404.157 87.6411 410.322 94.4102 412.09L224.509 453.86C226.367 454.332 228.278 454.571 230.194 454.572C242.857 454.559 253.112 444.269 253.098 431.59C253.086 421.103 245.981 411.959 235.833 409.368L102.567 382.697C101.235 382.318 99.8568 382.125 98.4723 382.125L98.4576 382.14Z" fill="#263238"/>
<path opacity="0.3" d="M98.4708 386.825C99.437 386.828 100.399 386.964 101.33 387.228H101.67L234.812 413.805C244.592 416.348 250.461 426.346 247.922 436.138C245.825 444.226 238.524 449.868 230.177 449.852C228.688 449.85 227.204 449.668 225.759 449.311L95.7991 407.541H95.6298C90.0153 405.945 86.7545 400.094 88.3481 394.473C89.6324 389.941 93.7534 386.806 98.4576 386.781M98.4576 382.14C90.061 382.025 83.1622 388.746 83.0473 397.153C82.9516 404.157 87.6411 410.322 94.4102 412.09L224.509 453.86C226.367 454.332 228.278 454.571 230.194 454.572C242.857 454.559 253.112 444.269 253.098 431.59C253.086 421.103 245.981 411.959 235.833 409.368L102.567 382.697C101.235 382.318 99.8568 382.125 98.4723 382.125L98.4576 382.14Z" fill="white"/>
<path d="M230.176 436.253C229.955 436.267 229.733 436.267 229.512 436.253C227.902 436.024 226.531 434.967 225.896 433.468L143.402 237.753C142.408 235.391 143.516 232.669 145.874 231.673C148.233 230.678 150.952 231.787 151.946 234.148L231.443 422.7L358.143 267.471C359.822 265.536 362.75 265.329 364.682 267.011C366.537 268.622 366.812 271.404 365.313 273.349L233.808 434.549C232.918 435.638 231.582 436.264 230.177 436.251L230.176 436.253Z" fill="#263238"/>
<path opacity="0.6" d="M230.176 436.253C229.955 436.267 229.733 436.267 229.512 436.253C227.902 436.024 226.531 434.967 225.896 433.468L143.402 237.753C142.408 235.391 143.516 232.669 145.874 231.673C148.233 230.678 150.952 231.787 151.946 234.148L231.443 422.7L358.143 267.471C359.822 265.536 362.75 265.329 364.682 267.011C366.537 268.622 366.812 271.404 365.313 273.349L233.808 434.549C232.918 435.638 231.582 436.264 230.177 436.251L230.176 436.253Z" fill="white"/>
<path opacity="0.3" d="M142.977 236.799L144.516 240.358L153.83 238.579L152.456 235.32L142.977 236.799Z" fill="black"/>
<path d="M98.4855 400.501C96.7785 400.504 95.3926 399.122 95.3882 397.413C95.3882 396.95 95.4898 396.493 95.6886 396.076L157.695 265.011C158.344 263.43 160.15 262.675 161.728 263.325C163.306 263.976 164.059 265.784 163.411 267.363C163.37 267.463 163.324 267.561 163.273 267.657L101.282 398.721C100.773 399.807 99.683 400.5 98.4855 400.501Z" fill="#263238"/>
<path opacity="0.6" d="M98.4855 400.501C96.7785 400.504 95.3926 399.122 95.3882 397.413C95.3882 396.95 95.4898 396.493 95.6886 396.076L157.695 265.011C158.344 263.43 160.15 262.675 161.728 263.325C163.306 263.976 164.059 265.784 163.411 267.363C163.37 267.463 163.324 267.561 163.273 267.657L101.282 398.721C100.773 399.807 99.683 400.5 98.4855 400.501Z" fill="white"/>
<path d="M394.283 402.048C392.162 402.049 390.31 400.61 389.787 398.551L352.58 253.594L160.892 270.952C158.332 271.184 156.07 269.292 155.84 266.729C155.609 264.166 157.499 261.901 160.059 261.671L355.672 243.957C357.937 243.749 360.018 245.217 360.585 247.423L398.78 396.201C399.415 398.683 397.921 401.21 395.442 401.847C395.067 401.968 394.678 402.036 394.283 402.048Z" fill="#263238"/>
<path opacity="0.6" d="M394.283 402.048C392.162 402.049 390.31 400.61 389.787 398.551L352.58 253.594L160.892 270.952C158.332 271.184 156.07 269.292 155.84 266.729C155.609 264.166 157.499 261.901 160.059 261.671L355.672 243.957C357.937 243.749 360.018 245.217 360.585 247.423L398.78 396.201C399.415 398.683 397.921 401.21 395.442 401.847C395.067 401.968 394.678 402.036 394.283 402.048Z" fill="white"/>
<path d="M356.926 254.113C354.63 254.457 352.412 252.879 351.738 250.421L340.523 209.493C339.775 206.783 341.158 203.976 343.613 203.224C346.069 202.472 348.665 204.06 349.413 206.771L360.722 247.703C361.467 250.413 360.081 253.215 357.626 253.964C357.626 253.964 357.625 253.964 357.623 253.964C357.395 254.032 357.162 254.084 356.926 254.113Z" fill="#263238"/>
<path opacity="0.6" d="M356.926 254.113C354.63 254.457 352.412 252.879 351.738 250.421L340.523 209.493C339.775 206.783 341.158 203.976 343.613 203.224C346.069 202.472 348.665 204.06 349.413 206.771L360.722 247.703C361.467 250.413 360.081 253.215 357.626 253.964C357.626 253.964 357.625 253.964 357.623 253.964C357.395 254.032 357.162 254.084 356.926 254.113Z" fill="white"/>
<path d="M373.276 198.402C373.634 200.386 372.406 202.338 370.403 202.972L337.042 213.492C334.832 214.194 332.474 213.05 331.776 210.937C331.078 208.824 332.302 206.542 334.511 205.84L367.872 195.239C370.082 194.54 372.435 195.686 373.132 197.799C373.132 197.799 373.132 197.8 373.132 197.802C373.195 197.998 373.244 198.199 373.276 198.402Z" fill="#263238"/>
<path opacity="0.4" d="M373.276 198.402C373.634 200.386 372.406 202.338 370.403 202.972L337.042 213.492C334.832 214.194 332.474 213.05 331.776 210.937C331.078 208.824 332.302 206.542 334.511 205.84L367.872 195.239C370.082 194.54 372.435 195.686 373.132 197.799C373.132 197.799 373.132 197.8 373.132 197.802C373.195 197.998 373.244 198.199 373.276 198.402Z" fill="white"/>
<path d="M115.891 236.155C122.81 243.389 159.11 235.307 169.805 233.102C178.311 231.349 184.619 231.131 181.081 223.055C178.186 216.447 157.513 219.136 143.576 219.285C140.013 219.323 136.444 218.987 133.014 218.022C118.504 213.943 103.035 219.708 115.891 236.156V236.155Z" fill="#028894"/>
<path d="M216.519 484.026C214.812 484.026 213.427 482.642 213.426 480.933C213.426 480.656 213.463 480.379 213.536 480.11L240.854 381.456C241.385 379.832 243.13 378.946 244.753 379.477C246.273 379.975 247.163 381.55 246.803 383.11L219.485 481.703C219.136 483.06 217.918 484.012 216.519 484.024V484.026Z" fill="#263238"/>
<path d="M251.499 385.386H224.197C222.49 385.386 221.107 384.001 221.107 382.292C221.107 380.583 222.49 379.198 224.197 379.198H251.499C253.206 379.198 254.589 380.583 254.589 382.292C254.589 384.001 253.206 385.386 251.499 385.386Z" fill="#263238"/>
<path d="M236.141 484.026H208.854C207.147 484.026 205.764 482.641 205.764 480.932C205.764 479.223 207.147 477.838 208.854 477.838H236.141C237.848 477.838 239.231 479.223 239.231 480.932C239.231 482.641 237.848 484.026 236.141 484.026Z" fill="#263238"/>
<path d="M98.4857 382.199C106.873 382.199 113.675 389.008 113.675 397.406C113.675 405.804 106.875 412.612 98.4857 412.612C90.0964 412.612 83.2979 405.804 83.2979 397.406C83.2979 389.008 90.0979 382.199 98.4857 382.199Z" fill="#263238"/>
<path d="M230.176 408.653C217.512 408.653 207.247 418.931 207.247 431.61C207.247 444.289 217.512 454.568 230.176 454.568C242.839 454.568 253.105 444.289 253.105 431.61C253.114 418.94 242.861 408.662 230.207 408.653H230.176Z" fill="#263238"/>
<path opacity="0.4" d="M230.26 417.753C222.616 417.753 216.418 423.958 216.418 431.612C216.418 439.265 222.614 445.471 230.26 445.471C237.905 445.471 244.101 439.265 244.101 431.612C244.106 423.963 237.918 417.759 230.279 417.753H230.26Z" fill="white"/>
<path opacity="0.3" d="M115.891 236.155C122.81 243.389 159.11 235.307 169.805 233.102C178.311 231.349 184.619 231.131 181.081 223.055C178.186 216.447 157.513 219.136 143.576 219.285C140.013 219.323 136.444 218.987 133.014 218.022C118.504 213.943 103.035 219.708 115.891 236.156V236.155Z" fill="#028894"/>
<path d="M353.552 250.483C351.817 250.483 350.219 249.341 349.716 247.588C349.106 245.464 350.328 243.248 352.449 242.639L360.186 240.411C364.381 239.203 367.821 236.413 369.874 232.557C371.929 228.7 372.324 224.285 370.988 220.124C368.423 212.141 360.043 207.464 351.922 209.484L301.729 222.8C299.597 223.368 297.408 222.094 296.844 219.959C296.28 217.823 297.551 215.633 299.682 215.069L349.939 201.736C362.193 198.694 374.751 205.708 378.595 217.677C380.598 223.917 380.006 230.538 376.925 236.321C373.846 242.104 368.686 246.287 362.395 248.098L354.658 250.326C354.289 250.432 353.918 250.483 353.552 250.483Z" fill="#028894"/>
<g opacity="0.2">
<path d="M353.552 250.483C351.817 250.483 350.219 249.341 349.716 247.588C349.106 245.464 350.328 243.248 352.449 242.639L360.186 240.411C364.381 239.203 367.821 236.413 369.874 232.557C371.929 228.7 372.324 224.285 370.988 220.124C368.423 212.141 360.043 207.464 351.922 209.484L301.729 222.8C299.597 223.368 297.408 222.094 296.844 219.959C296.28 217.823 297.551 215.633 299.682 215.069L349.939 201.736C362.193 198.694 374.751 205.708 378.595 217.677C380.598 223.917 380.006 230.538 376.925 236.321C373.846 242.104 368.686 246.287 362.395 248.098L354.658 250.326C354.289 250.432 353.918 250.483 353.552 250.483Z" fill="#028894"/>
</g>
<path d="M437.759 495.999V375.047C437.759 344.567 462.438 319.857 492.88 319.857C523.322 319.857 548 344.566 548 375.047V495.999" stroke="#263238" stroke-width="5" stroke-miterlimit="10"/>
<path opacity="0.4" d="M437.759 495.999V375.047C437.759 344.567 462.438 319.857 492.88 319.857C523.322 319.857 548 344.566 548 375.047V495.999" stroke="white" stroke-width="5" stroke-miterlimit="10"/>
<path d="M312.235 193.063L328.46 206.162L336.705 205.639C336.705 205.639 343.642 211.816 343.801 214.395C343.96 216.974 341.5 222.034 341.5 222.034C341.5 222.034 340.011 226.744 335.537 225.281C335.537 225.281 334.534 229.816 329.372 228.272C329.372 228.272 330.311 232.107 325.46 229.901C320.608 227.695 318.798 224.042 317.52 221.097C316.243 218.152 314.708 215.323 314.708 215.323L299.224 203.079L312.235 193.066V193.063Z" fill="#E9B376"/>
<path d="M290.375 76.2787C290.617 76.2949 279.065 78.1191 276.349 81.7187C269.894 90.2747 261.972 103.957 253.163 126.734L286.452 139.975L294.941 101.693C293.642 86.8417 290.377 76.2772 290.377 76.2772L290.375 76.2787Z" fill="#263238"/>
<path d="M260.899 129.813C260.899 129.813 250.529 168.759 255.018 175.082C259.312 181.13 316.133 215.528 316.133 215.528L326.898 204.614L278.149 166.221L283.845 138.941L260.899 129.813Z" fill="#E9B376"/>
<path d="M284.207 77.743C284.207 77.743 291.642 75.6548 293.453 91.767C297.511 127.862 281.361 155.657 281.361 155.657L278.149 166.219L281.357 168.995C281.357 168.995 289.194 163.185 296.836 143.132C304.479 123.08 307.373 82.3513 294.067 75.0104C294.067 75.0104 287.388 73.0403 284.207 77.743Z" fill="#028894"/>
<path opacity="0.3" d="M284.207 77.743C284.207 77.743 291.642 75.6548 293.453 91.767C297.511 127.862 281.361 155.657 281.361 155.657L278.149 166.219L281.357 168.995C281.357 168.995 289.194 163.185 296.836 143.132C304.479 123.08 307.373 82.3513 294.067 75.0104C294.067 75.0104 287.388 73.0403 284.207 77.743Z" fill="#028894"/>
</svg>
