<?xml version="1.0" encoding="UTF-8"?>
<svg id="_Слой_1" data-name="Слой 1" xmlns="http://www.w3.org/2000/svg" viewBox="0 0 468.411 340.153">
  <defs>
    <style>
      .cls-1, .cls-2 {
        fill: #fff;
      }

      .cls-3 {
        fill: #fafafa;
      }

      .cls-4 {
        fill: #028894;
      }

      .cls-5 {
        fill: #455a64;
      }

      .cls-2 {
        opacity: .5;
      }

      .cls-6 {
        opacity: .4;
      }

      .cls-7 {
        fill: #eb996e;
      }

      .cls-8 {
        opacity: .3;
      }

      .cls-9 {
        fill: #ffbe9d;
      }

      .cls-10 {
        fill: #263238;
      }
    </style>
  </defs>
  <path class="cls-10" d="M458.146,339.77c0,.144-102.568,.26-229.062,.26s-229.084-.117-229.084-.26,102.546-.26,229.084-.26,229.062,.117,229.062,.26Z"/>
  <g>
    <g>
      <path class="cls-4" d="M169.143,51.456l-47.6-17.094-47.137,16.863c-6.018,2.842-11.296,4.544-11.296,10.15v27.911c0,19.383,5.079,38.591,15.528,55.549,8.793,14.27,22.408,28.963,43.368,38.302,19.268-6.259,33.65-22.943,42.443-37.213,10.449-16.958,15.528-36.165,15.528-55.549v-25.099c0-7.994-4.236-11.898-10.833-13.82Z"/>
      <g class="cls-8">
        <path d="M122.006,166.94c-16.583-7.388-27.355-19.261-34.311-30.551-8.267-13.416-12.285-28.613-12.285-43.949v-19.579c0-4.435,2.675-8.589,7.988-11.069l38.155-14.266-.009-13.163-47.137,16.863c-4.948,2.162-11.296,4.544-11.296,10.15v27.911c0,19.383,5.079,38.591,15.528,55.549,8.793,14.27,22.408,28.963,43.368,38.302v-16.198Z"/>
      </g>
      <g class="cls-6">
        <path d="M122.006,183.137c3.339-1.118,6.406-2.406,9.352-4.01,7.902-4.305,14.644-10.217,19.788-15.567,5.755-5.985,10.043-12.453,13.765-18.495,10.449-16.958,15.528-36.165,15.065-56.083l.029-23.044c-.029-11.475-5.914-12.321-10.862-14.482l-47.6-17.094,.009,13.163,38.6,14.497c5.313,2.48,7.988,6.634,7.988,11.069v19.579c0,15.336-4.018,30.532-12.285,43.948-6.957,11.29-17.266,22.933-33.849,30.321v16.198Z"/>
      </g>
    </g>
    <path class="cls-2" d="M134.171,91.184l.053-3.767c0-6.814-5.544-12.358-12.358-12.358s-12.359,5.544-12.359,12.34l-.054,3.837c-3.335,.494-5.896,3.36-5.896,6.832v22.219c0,3.819,3.096,6.916,6.916,6.916h23.067c3.819,0,6.916-3.096,6.916-6.916v-22.219c0-3.606-2.761-6.564-6.284-6.884Zm-9.01,23.572h-6.033l.942-4.357c-1.044-.649-1.742-1.803-1.742-3.123,0-2.031,1.647-3.678,3.678-3.678s3.678,1.647,3.678,3.678c0,1.272-.646,2.394-1.628,3.054,.427,1.689,1.105,4.426,1.105,4.426Zm6.347-23.604h-19.391l.052-3.735c0-5.346,4.349-9.695,9.696-9.695s9.695,4.349,9.695,9.677l-.052,3.754Z"/>
    <path class="cls-1" d="M83.122,90.912c-.105,.015-.435-1.454-.714-3.866-.286-2.41-.497-5.768-.387-9.476,.053-1.854,.175-3.617,.344-5.215,.154-1.596,.446-3.093,1.064-4.212,.605-1.126,1.45-1.797,2.085-2.095,.646-.3,1.048-.286,1.054-.24,.08,.105-1.608,.437-2.613,2.6-.495,1.046-.715,2.437-.826,4.018-.125,1.586-.223,3.334-.275,5.169-.109,3.67,.007,6.996,.141,9.402,.127,2.407,.25,3.899,.127,3.916Z"/>
    <path class="cls-1" d="M83.822,103.062c-.23,.005-.439-1.142-.467-2.561-.028-1.419,.136-2.573,.366-2.578,.23-.005,.439,1.142,.467,2.562,.028,1.419-.136,2.573-.366,2.577Z"/>
  </g>
  <g>
    <path class="cls-9" d="M420.99,159.689s12.136-7.384,14.871-5.214c3.948,3.132,5.263,8.418,5.263,8.418,0,0,6.41-24.45,12.527-23.522,3.509,.532,1.788,3.265,.215,6.698-1.46,3.187-3.951,14.883-3.951,14.883,0,0,11.599-13.76,15.007-13.512,2.637,.192,3.016,2.512-.776,6.231-3.792,3.72-10.094,15.438-10.094,15.438,0,0,8.125-7.574,11.482-7.616,2.677-.033,4.406,1.826,.942,4.834-3.465,3.008-8.707,5.265-11.504,10.706-3.447,6.707-10.797,23.424-10.797,23.424l-25.725-9.107s-4.187-17.065-4.354-21.211c0,0,.352-8.761,.303-10.322-.05-1.56,4.088-1.96,5.344,1.035,1.255,2.995,.686,6.137,1.195,8.129,.509,1.992,1.416,3.838,2.872,4.729,1.456,.891,5.162,.952,6.109-.149,.947-1.101,2.095-4.306,2.344-6.278,.25-1.972-.072-5.085-.072-5.085,0,0-10.679,4.339-11.201-2.509Z"/>
    <g>
      <g>
        <path class="cls-9" d="M131.948,239.314l-17.876-6.696s-18.199-10.655-21.569-6.871c0,0-3.599-1.715-5.199,2.124-.927,2.224,2.131,5.454,2.131,5.454,0,0-.952,.965,.555,4.231,1.507,3.266,18.782,13.567,18.782,13.567,0,0,22.46,12.247,31.541,18.106l15.67-21.312-2.179-.814s-1.294-10.621-5.641-13.453c-4.731-3.082-10.438-11.42-11.694-14.686s-7.286-1.759-6.281,5.025c1.005,6.783,6.281,8.542,5.778,13.065-.502,4.522-4.02,2.261-4.02,2.261Z"/>
        <path class="cls-7" d="M104.546,241.793c-.07,.126-3.553-1.693-7.777-4.06-4.226-2.368-7.593-4.389-7.523-4.515,.07-.125,3.552,1.692,7.778,4.061,4.224,2.368,7.593,4.389,7.522,4.514Z"/>
        <path class="cls-7" d="M113.269,236.767c-.03,.064-1.252-.43-3.207-1.277-1.954-.85-4.636-2.071-7.536-3.553-2.899-1.484-5.454-2.966-7.241-4.137-.89-.591-1.603-1.079-2.074-1.448-.475-.362-.727-.576-.707-.605,.047-.066,1.148,.656,2.975,1.741,1.827,1.085,4.396,2.507,7.284,3.986,2.889,1.476,5.539,2.747,7.453,3.682,1.915,.932,3.085,1.545,3.053,1.612Z"/>
        <path class="cls-7" d="M117.03,246.614c-.02,.032-.583-.276-1.584-.86-1.072-.64-2.493-1.488-4.212-2.515l-.047-.028-.026-.057c-.789-1.706-1.77-3.713-3.035-5.81-.64-1.031-1.342-2.145-2.274-3.005-.929-.863-2.409-1.013-3.522-.265-.239,.135-.527,.42-.561,.513,.027,.043,.023,.051,.041,.119l.072,.222c.045,.147,.102,.297,.156,.446,.217,.596,.452,1.184,.682,1.761,.472,1.151,.929,2.266,1.368,3.338,.889,2.12,1.705,4.065,2.418,5.766l-.033-.052c1.468,1.721,2.683,3.145,3.594,4.212,.381,.464,.697,.85,.96,1.17,.215,.272,.321,.422,.306,.435-.015,.013-.15-.111-.393-.358-.284-.301-.627-.664-1.04-1.1-.944-1.038-2.203-2.423-3.725-4.097l-.019-.021-.014-.031c-.744-1.668-1.593-3.605-2.503-5.735-.448-1.071-.913-2.186-1.394-3.336-.234-.58-.472-1.166-.695-1.775-.056-.152-.114-.303-.164-.464l-.078-.239c-.028-.087-.047-.241-.052-.357,.093-.316,.236-.38,.364-.532,.136-.121,.278-.229,.427-.324,.642-.408,1.402-.619,2.155-.554,.757,.049,1.445,.411,1.979,.868,1.033,.967,1.706,2.084,2.355,3.144,1.262,2.141,2.211,4.167,2.969,5.908l-.074-.085c1.683,1.085,3.074,1.982,4.123,2.659,.967,.638,1.493,1.006,1.474,1.038Z"/>
      </g>
      <path class="cls-7" d="M134.952,246.786c-.024,.072-.859-.162-2.196-.538-1.336-.364-3.196-.882-5.284-.933-2.085-.047-3.939,.538-5.095,1.248-1.173,.701-1.691,1.416-1.763,1.354-.044-.019,.379-.839,1.564-1.664,1.164-.83,3.117-1.51,5.304-1.459,2.182,.055,4.067,.648,5.384,1.103,1.32,.47,2.108,.825,2.086,.889Z"/>
      <path class="cls-7" d="M133.608,242.065c.119,.089-.326,.863-.757,1.856-.439,.99-.707,1.841-.854,1.814-.137-.021-.09-.968,.377-2.023,.461-1.057,1.126-1.734,1.234-1.647Z"/>
    </g>
    <g>
      <path class="cls-10" d="M236.637,157.083c1.234-8.425,11.044-20.505,19.725-20.518-4.976-7.213-5.052-17.362-.186-24.646,3.349-5.013,8.752-8.699,11.043-14.256,2.592-6.287,.603-13.39,.85-20.167,.362-9.92,5.523-18.979,10.549-27.596,4.602-7.89,10.216-16.539,19.274-18.477,5.731-1.226,11.674,.583,17.055,2.874,25.745,10.965,45.767,34.076,52.638,60.759,1.645,6.388,2.747,13.298,7.198,18.234,4.714,5.228,12.971,8.064,14.385,14.903,1.014,4.904-2.133,9.834-1.661,14.816,.396,4.174,8.213,16.34,10.015,20.141,3.105,6.549,1.982,13.623-1.179,20.146-3.161,6.523-11.207,12.875-18.347,14.652l-79.803-26.592c-7.508,4.274-14.987,20.808-23.606,21.824-8.619,1.016-19.136,4.768-27.428-4.307-8.692-9.512-11.757-23.365-10.523-31.79Z"/>
      <path class="cls-10" d="M368.96,77.709c-.893,6.678,.937,17.719,4.587,23.424,2.45,3.829,6.538,6.321,10.571,8.511,4.033,2.19,8.256,4.292,11.314,7.675,3.058,3.383,4.697,8.456,2.653,12.508,7.189,2.68,10.414,11.838,7.776,18.921-2.638,7.083-9.869,11.847-17.424,13.263l-32.915-9.901-7.228-42.002,18.999-32.4"/>
      <path class="cls-5" d="M373,120.53c.007-.015,.227,.082,.644,.28,.406,.216,1.052,.46,1.798,.934,1.526,.881,3.634,2.41,5.769,4.809,1.087,1.181,2.094,2.64,3.074,4.269,.903,1.669,1.816,3.513,2.396,5.599,1.281,4.111,1.562,9.107,.089,14.018l-.12-.301c1.894,1.056,3.724,2.433,5.355,4.069,4.202,4.168,6.603,9.586,7.178,14.655,.56,5.108-.656,9.736-2.356,13.171-1.711,3.466-3.835,5.823-5.405,7.273-.802,.715-1.447,1.243-1.916,1.559-.46,.328-.705,.492-.716,.478-.01-.015,.215-.208,.652-.561,.446-.341,1.067-.892,1.84-1.623,1.515-1.483,3.569-3.849,5.213-7.285,1.634-3.406,2.785-7.961,2.211-12.955-.589-4.959-2.953-10.26-7.07-14.342-1.598-1.602-3.386-2.952-5.237-3.988l-.181-.101,.061-.201c1.446-4.791,1.199-9.684-.033-13.735-.555-2.054-1.439-3.876-2.311-5.529-.949-1.614-1.924-3.065-2.98-4.245-2.072-2.398-4.123-3.952-5.608-4.875-.725-.494-1.353-.763-1.744-1.006-.401-.225-.608-.351-.601-.365Z"/>
    </g>
    <g>
      <path class="cls-4" d="M275.632,164.026s-14.707,4.472-19.862,11.971c-3.647,5.305-40.987,86.169-40.987,86.169l-56.683-17.043-20.266,26.767,63.067,34.957c11.693,6.481,25.914,6.419,37.549-.165h0c6.452-3.651,11.71-9.09,15.14-15.662l16.036-30.724,6.006-96.271Z"/>
      <path class="cls-4" d="M260.582,340.153l8.851-38.149-6.706-27.7c-4.314-14.264-8.017-37.498-3.324-56.211l15.676-53.812,17.236-7.926,39.441-6.784c1.517,.506,41.243,11.725,41.243,11.725,5.5,1.278,7.706,2.154,7.706,2.154l4.555,29.458-13.696,48.553-5.965,48.377,13.103,50.315h-118.122Z"/>
      <path class="cls-9" d="M283.376,160.465l11.437-5.119,51.55,.718,12.192,7.077s-42.587,47.004-53.276,48.558c-26.883,3.909-21.903-51.235-21.903-51.235Z"/>
      <path class="cls-4" d="M379.587,163.042s7.722,1.737,14.341,15.858c6.619,14.12,17.319,53.418,17.319,53.418l4.575-41.646,37.271,4.1-7.214,99.532s-13.189,19.127-35.252,17.362c-22.063-1.765-50.072-71.504-50.072-71.504l19.033-77.119Z"/>
      <path class="cls-10" d="M405.431,283.172c-.009,0-.011-.082-.008-.242,.008-.19,.018-.422,.029-.705,.04-.663,.094-1.566,.163-2.708,.142-2.352,.422-5.751,.812-9.946,.776-8.391,2.199-19.948,3.94-32.681,1.741-12.738,3.221-24.278,4.09-32.654,.436-4.188,.772-7.579,.976-9.925,.11-1.138,.197-2.039,.261-2.7,.032-.282,.059-.512,.081-.701,.021-.158,.036-.238,.045-.238,.009,0,.011,.083,.008,.242-.008,.19-.017,.421-.029,.705-.04,.662-.094,1.566-.163,2.708-.142,2.352-.422,5.75-.812,9.945-.776,8.391-2.199,19.949-3.941,32.687-1.741,12.734-3.22,24.272-4.09,32.648-.436,4.188-.772,7.579-.976,9.925-.11,1.138-.197,2.04-.261,2.7-.032,.282-.059,.513-.081,.701-.021,.158-.036,.238-.045,.238Z"/>
      <path class="cls-10" d="M215.427,283.644c-.033,.014-.178-.251-.412-.745-.24-.491-.539-1.224-.866-2.146-.656-1.841-1.34-4.477-1.632-7.456-.285-2.98-.12-5.7,.171-7.632,.144-.967,.297-1.744,.438-2.272,.135-.529,.227-.817,.262-.81,.084,.018-.142,1.2-.334,3.126-.195,1.924-.299,4.602-.018,7.537,.288,2.934,.904,5.542,1.464,7.393,.558,1.853,1.007,2.971,.928,3.004Z"/>
      <path class="cls-10" d="M221.696,284.568c-.029,.022-.261-.244-.657-.743-.401-.496-.937-1.248-1.555-2.207-1.24-1.914-2.732-4.719-3.883-8.014-1.144-3.3-1.715-6.425-1.931-8.695-.11-1.135-.158-2.058-.151-2.696,0-.638,.018-.989,.054-.99,.088-.003,.152,1.402,.463,3.642,.308,2.239,.928,5.31,2.058,8.568,1.137,3.254,2.556,6.047,3.705,7.993,1.147,1.949,1.969,3.091,1.898,3.143Z"/>
      <path class="cls-10" d="M265.819,195.642c.017,.005-.048,.283-.188,.807-.158,.568-.37,1.329-.636,2.285-.575,2.032-1.384,4.886-2.377,8.391-1.937,7.091-4.633,16.939-5.924,28.09-.645,5.568-.775,10.93-.219,15.752,.512,4.826,1.577,9.089,2.625,12.608,1.054,3.522,2.052,6.33,2.735,8.272,.329,.936,.591,1.681,.787,2.237,.176,.513,.26,.786,.243,.792-.017,.006-.134-.254-.341-.755-.218-.548-.511-1.282-.879-2.204-.742-1.922-1.794-4.714-2.898-8.235-1.097-3.517-2.207-7.799-2.75-12.662-.587-4.858-.469-10.271,.179-15.864,1.297-11.204,4.058-21.061,6.087-28.131,1.033-3.537,1.916-6.384,2.537-8.348,.305-.944,.548-1.696,.73-2.257,.173-.514,.271-.782,.289-.777Z"/>
      <path class="cls-10" d="M370.041,261.221c-.008,.004-.054-.079-.135-.244-.091-.194-.206-.437-.349-.739-.313-.69-.747-1.648-1.298-2.864-.551-1.249-1.256-2.765-2.007-4.554-.722-1.808-1.542-3.858-2.446-6.121-.88-2.278-1.726-4.818-2.696-7.523-.425-1.373-.864-2.792-1.317-4.254-.224-.732-.452-1.475-.683-2.227-.214-.757-.402-1.533-.609-2.315-1.676-6.236-3.105-13.243-3.525-20.709-.456-7.454,.253-14.657,2.155-20.865,1.782-6.25,4.915-11.378,8.255-14.96,3.337-3.621,6.814-5.71,9.304-6.824,1.256-.546,2.256-.914,2.953-1.094,.323-.09,.582-.163,.788-.221,.178-.047,.271-.066,.273-.058,.002,.009-.085,.045-.258,.109-.202,.07-.456,.159-.771,.269-.685,.212-1.667,.609-2.9,1.178-2.445,1.161-5.853,3.276-9.117,6.888-3.27,3.579-6.326,8.651-8.067,14.848-1.859,6.159-2.547,13.291-2.095,20.699,.417,7.416,1.824,14.395,3.469,20.616,.201,.78,.4,1.549,.596,2.309,.226,.751,.45,1.493,.67,2.224,.443,1.46,.872,2.878,1.288,4.25,.95,2.704,1.775,5.245,2.631,7.528,.876,2.27,1.671,4.327,2.371,6.14,.725,1.797,1.402,3.323,1.924,4.584,.513,1.232,.917,2.202,1.208,2.902,.124,.311,.223,.561,.302,.76,.065,.173,.095,.263,.087,.266Z"/>
      <g class="cls-8">
        <path d="M355.837,216.139c-4.872,23.049-4.937,46.76,3.451,68.774,.487,1.277,2.412,5.817,3.777,5.884,1.731,.085,2.552-2.069,2.851-3.776,.616-3.508,.992-9.282,1.608-12.79,.771-4.393,1.816-14.563,1.816-14.563,0,0-4.03-9.223-5.802-14.169-3.287-9.177-6.066-17.936-7.602-28.633"/>
      </g>
      <path class="cls-10" d="M351.857,305.434c.015,.01-.119,.217-.388,.602-.304,.424-.701,.978-1.197,1.669-.267,.365-.559,.765-.876,1.2-.335,.427-.735,.862-1.146,1.344-.843,.947-1.738,2.088-2.916,3.171-.572,.56-1.17,1.146-1.792,1.755-.629,.604-1.351,1.157-2.062,1.77-1.402,1.257-3.064,2.389-4.778,3.625-3.523,2.332-7.613,4.58-12.152,6.383-4.563,1.745-9.097,2.858-13.27,3.525-2.099,.249-4.089,.541-5.971,.564-.939,.029-1.845,.112-2.717,.092-.87-.028-1.707-.054-2.507-.079-1.6,0-3.031-.235-4.292-.362-.629-.077-1.218-.127-1.753-.214-.528-.105-1.014-.202-1.457-.291-.832-.174-1.5-.313-2.01-.419-.458-.101-.696-.163-.692-.18,.004-.017,.25,.01,.714,.078,.514,.082,1.186,.189,2.023,.322,.444,.074,.93,.156,1.458,.245,.535,.072,1.123,.107,1.75,.17,1.258,.099,2.683,.306,4.273,.283,.795,.014,1.626,.03,2.491,.045,.866,.009,1.765-.083,2.696-.122,1.868-.041,3.841-.347,5.922-.607,4.136-.688,8.627-1.806,13.153-3.536,4.501-1.788,8.564-4.004,12.074-6.296,1.708-1.217,3.367-2.326,4.77-3.56,.712-.602,1.436-1.143,2.068-1.735,.626-.597,1.228-1.17,1.803-1.719,1.187-1.059,2.095-2.176,2.955-3.1,.419-.471,.828-.894,1.174-1.31,.329-.423,.632-.812,.908-1.167,.527-.665,.949-1.199,1.272-1.606,.296-.364,.458-.551,.473-.541Z"/>
      <path class="cls-10" d="M343.724,290.181c.035,.007-.014,.394-.133,1.092-.11,.7-.344,1.699-.698,2.916-.701,2.433-2.034,5.714-4.139,8.974-2.116,3.255-4.566,5.812-6.5,7.447-.966,.82-1.783,1.442-2.376,1.828-.588,.394-.922,.597-.942,.568-.055-.077,1.223-.977,3.074-2.672,1.853-1.689,4.221-4.246,6.308-7.454,2.075-3.214,3.441-6.421,4.225-8.802,.79-2.382,1.09-3.916,1.182-3.898Z"/>
    </g>
    <g>
      <g>
        <path class="cls-4" d="M325.57,25.049c13.954,.095,27.603,7.973,34.665,20.009,7.062,12.035,7.283,27.793,.56,40.021-2.292,4.169-5.588,8.116-10.118,9.569,1.542-23.915-7.99-48.319-25.333-64.857"/>
        <path class="cls-4" d="M341.902,28.661c-2.072-4.308,.146-9.698,3.84-12.732,3.695-3.034,8.508-4.26,13.158-5.37,4.65-1.11,9.467-2.263,13.244-5.194-.544,7.49-2.406,15.197-7.254,20.933-4.848,5.735-13.246,8.931-20.167,6.017"/>
        <path class="cls-4" d="M346.704,33.596c-3.182,1.339-6.976,.502-9.824-1.449s-4.885-4.874-6.557-7.895c-2.053-3.711-3.666-7.72-4.213-11.925s.028-8.631,2.109-12.326c5.475,5.832,11.503,10.732,14.632,18.093,1.838,4.324,1.615,11.257-.356,15.522"/>
        <path class="cls-10" d="M362.208,57.845c.036-.005,.131,.489,.272,1.391,.076,.45,.155,1.003,.206,1.649,.056,.646,.146,1.38,.162,2.197,.09,1.631,.062,3.58-.101,5.735-.192,2.152-.535,4.51-1.103,6.94-.588,2.427-1.343,4.686-2.141,6.695-.825,1.998-1.678,3.751-2.493,5.167-.382,.722-.793,1.337-1.134,1.889-.336,.554-.656,1.012-.926,1.38-.533,.741-.84,1.14-.869,1.119-.029-.021,.222-.459,.7-1.23,.244-.383,.536-.854,.847-1.42,.315-.562,.701-1.186,1.059-1.914,.768-1.427,1.578-3.18,2.37-5.168,.766-1.998,1.499-4.237,2.081-6.638,.561-2.405,.915-4.734,1.131-6.862,.187-2.131,.254-4.061,.211-5.681,.008-.811-.056-1.542-.084-2.186-.023-.644-.072-1.197-.117-1.649-.079-.905-.107-1.409-.071-1.414Z"/>
        <path class="cls-10" d="M359.086,31.026c.022,.026-.368,.337-1.108,.881-.796,.437-1.989,1.078-3.611,1.398-3.218,.733-7.864,.58-12.77-.728l-.146-.039-.033-.149c-.067-.299-.138-.621-.21-.944-.526-2.595-.65-5.154-.33-7.439,.29-2.289,1.083-4.28,2.1-5.705,.982-1.466,2.183-2.283,2.967-2.833,.855-.463,1.331-.699,1.347-.667,.016,.032-.427,.33-1.234,.836-.736,.593-1.866,1.429-2.775,2.871-.944,1.402-1.673,3.331-1.93,5.561-.285,2.223-.15,4.727,.365,7.272,.07,.317,.14,.632,.205,.925l-.179-.188c4.811,1.29,9.397,1.502,12.549,.875,1.596-.267,2.774-.841,3.586-1.216,.753-.481,1.184-.738,1.207-.711Z"/>
        <path class="cls-10" d="M363.182,18.067c.015,.095-1.463,.302-3.755,.981-1.148,.332-2.485,.823-3.929,1.455-1.434,.655-2.97,1.465-4.497,2.455-1.518,1.006-2.874,2.091-4.047,3.144-1.156,1.072-2.14,2.102-2.902,3.022-1.537,1.831-2.317,3.103-2.398,3.051-.031-.019,.143-.348,.485-.931,.333-.588,.886-1.398,1.627-2.353,.735-.961,1.705-2.033,2.862-3.142,1.174-1.09,2.544-2.206,4.088-3.228,1.553-1.007,3.122-1.818,4.59-2.459,1.478-.618,2.848-1.08,4.022-1.37,1.172-.298,2.135-.482,2.807-.553,.671-.082,1.042-.109,1.047-.074Z"/>
        <path class="cls-10" d="M346.49,33.476c.017,.004,.004,.107-.039,.301-.033,.197-.125,.475-.268,.826-.29,.696-.903,1.65-1.978,2.501-1.071,.823-2.65,1.544-4.495,1.451-1.847-.063-3.76-1.18-4.949-2.915-1.189-1.735-1.541-3.923-.932-5.669,.579-1.755,1.823-2.967,2.976-3.668,1.181-.695,2.293-.923,3.046-.941,.379-.006,.671,.008,.867,.049,.196,.03,.296,.055,.294,.072-.005,.054-.417-.003-1.145,.081-.724,.079-1.77,.353-2.867,1.052-1.072,.704-2.207,1.877-2.714,3.501-.534,1.607-.2,3.611,.905,5.229,1.11,1.613,2.858,2.648,4.549,2.73,1.697,.113,3.201-.522,4.245-1.267,1.047-.77,1.681-1.647,2.016-2.294,.341-.649,.436-1.054,.489-1.039Z"/>
        <path class="cls-10" d="M334.366,33.726c-.048,.05-.347-.544,.127-1.324,.222-.366,.643-.744,1.187-.927,.54-.196,1.166-.231,1.786-.187,2.496,.177,4.31,1.15,4.243,1.265-.055,.145-1.896-.58-4.278-.745-1.179-.12-2.202,.191-2.636,.805-.464,.582-.347,1.107-.429,1.113Z"/>
        <path class="cls-10" d="M328.22,0c.098,.045-1.105,1.461-1.526,4.277-.23,1.393-.261,3.081-.237,4.963,.023,1.877,.107,3.945,.533,6.054,.949,4.2,2.666,7.813,4.27,10.124,.812,1.164,1.528,2.067,2.035,2.677,.507,.611,.823,.916,.799,.945-.06,.075-1.422-1.102-3.133-3.407-1.718-2.314-3.509-5.934-4.482-10.235-.436-2.165-.505-4.266-.502-6.156,.002-1.887,.071-3.61,.354-5.029,.265-1.423,.734-2.518,1.143-3.212,.411-.697,.726-1.018,.746-1.002Z"/>
        <path class="cls-10" d="M333.402,11.864c.053-.039,.617,.592,1.406,1.709,.789,1.115,1.784,2.732,2.657,4.634,.873,1.903,1.441,3.717,1.757,5.047,.315,1.332,.406,2.174,.343,2.187-.162,.038-.842-3.271-2.573-7.017-1.714-3.751-3.73-6.462-3.589-6.56Z"/>
        <path class="cls-10" d="M331.71,18.094c.105-.089,1.788,1.615,3.995,3.593,2.199,1.987,3.96,3.639,3.858,3.754-.089,.101-1.998-1.37-4.209-3.369-2.221-1.991-3.76-3.882-3.644-3.978Z"/>
        <path class="cls-3" d="M357.881,41.555c.005,.005-.045,.054-.144,.141-.14,.12-.286,.243-.44,.375-.381,.327-.963,.764-1.707,1.268-1.484,1.011-3.684,2.211-6.295,3.073-2.614,.854-5.098,1.193-6.892,1.258-.897,.035-1.626,.028-2.126-.009-.202-.014-.392-.028-.576-.041-.131-.012-.2-.021-.2-.028,0-.007,.07-.012,.202-.014,.184,0,.374,.001,.577,.002,.5,.012,1.225-.003,2.116-.057,1.782-.103,4.241-.462,6.835-1.309,2.59-.855,4.783-2.024,6.279-2.998,.75-.485,1.342-.903,1.738-1.209,.163-.12,.316-.234,.464-.343,.108-.077,.166-.114,.171-.109Z"/>
        <path class="cls-3" d="M363.772,53.658c.004,.006-.046,.054-.146,.14-.142,.118-.289,.24-.445,.37-.385,.323-.97,.757-1.715,1.261-1.486,1.011-3.673,2.232-6.26,3.168-2.59,.93-5.053,1.385-6.843,1.555-.895,.087-1.623,.126-2.125,.123-.203,0-.394-.001-.579-.002-.132-.003-.202-.008-.202-.015,0-.007,.069-.016,.201-.027,.184-.012,.374-.024,.576-.038,.5-.022,1.224-.083,2.112-.188,1.777-.207,4.216-.682,6.788-1.605,2.568-.93,4.75-2.121,6.25-3.095,.751-.486,1.347-.901,1.746-1.203,.164-.119,.318-.231,.468-.339,.108-.076,.168-.113,.172-.107Z"/>
        <path class="cls-3" d="M362.136,71.31c.008,.012-.143,.122-.424,.312-.278,.193-.698,.447-1.23,.738-1.062,.583-2.606,1.264-4.399,1.735-1.795,.467-3.475,.63-4.686,.641-.606,.007-1.096-.009-1.434-.041-.338-.028-.523-.05-.522-.065s.188-.019,.526-.016c.337,.007,.825,0,1.426-.025,1.202-.049,2.861-.233,4.638-.696,1.775-.467,3.312-1.118,4.384-1.664,.537-.272,.965-.505,1.256-.676,.293-.168,.459-.255,.466-.243Z"/>
        <path class="cls-3" d="M365.529,68.609c.011,.056-.594,.221-1.351,.366-.757,.146-1.379,.218-1.39,.162s.594-.22,1.351-.366c.757-.146,1.379-.218,1.39-.162Z"/>
        <path class="cls-3" d="M355.606,89.364c.007,.053-1.015,.21-2.281,.115-1.267-.09-2.256-.395-2.241-.446,.014-.06,1.01,.15,2.256,.238,1.245,.094,2.261,.031,2.266,.093Z"/>
        <path class="cls-3" d="M336.628,37.072c.028,.05-.569,.433-1.333,.855-.764,.422-1.406,.723-1.434,.672s.569-.433,1.333-.855c.764-.422,1.406-.723,1.434-.672Z"/>
        <path class="cls-3" d="M331.662,26.575c.026,.064-1.44,.503-2.947,1.585-1.518,1.068-2.415,2.307-2.467,2.262-.02-.014,.177-.341,.574-.812,.395-.471,1.005-1.073,1.773-1.62,.768-.545,1.538-.923,2.112-1.141,.575-.22,.948-.298,.955-.275Z"/>
        <path class="cls-3" d="M340.67,38.201c-.068-.01,.278-1.362,.053-3.031-.206-1.672-.885-2.891-.822-2.918,.021-.012,.218,.274,.446,.786,.229,.51,.471,1.255,.582,2.105,.109,.851,.064,1.632-.027,2.184-.091,.553-.208,.88-.232,.874Z"/>
        <path class="cls-3" d="M371.611,5.587s-.351,.452-1.095,1.167c-.742,.716-1.901,1.671-3.459,2.662-1.559,.99-3.52,1.993-5.75,2.973-2.228,.987-4.722,1.962-7.25,3.175-2.522,1.217-4.83,2.606-6.632,4.23-1.804,1.619-3.1,3.422-3.895,5.07-.792,1.655-1.103,3.129-1.188,4.149-.089,1.023-.016,1.593-.05,1.594,0,0-.019-.141-.034-.412-.027-.271-.022-.672,.003-1.188,.061-1.029,.352-2.525,1.136-4.206,.786-1.674,2.083-3.506,3.899-5.149,1.814-1.65,4.137-3.053,6.67-4.275,2.538-1.218,5.036-2.187,7.263-3.163,2.23-.969,4.189-1.953,5.75-2.922,1.56-.97,2.726-1.901,3.482-2.596,.377-.349,.665-.625,.852-.822,.191-.192,.299-.286,.299-.286Z"/>
        <path class="cls-3" d="M368.907,17.455c.006,.004-.04,.082-.133,.227-.128,.193-.265,.399-.416,.628-.359,.546-.921,1.31-1.653,2.222-1.459,1.827-3.693,4.195-6.516,6.392-2.83,2.191-5.678,3.768-7.81,4.728-1.065,.483-1.944,.838-2.563,1.051-.259,.09-.493,.172-.711,.248-.163,.054-.25,.08-.252,.073-.002-.007,.08-.045,.238-.112,.214-.087,.443-.18,.696-.284,.608-.235,1.476-.611,2.529-1.108,2.109-.991,4.929-2.58,7.744-4.759,2.808-2.186,5.046-4.524,6.53-6.321,.744-.897,1.322-1.645,1.701-2.176,.163-.22,.31-.419,.448-.604,.104-.137,.162-.207,.168-.203Z"/>
        <path class="cls-3" d="M327.166,3.403s1.233,.47,3.031,1.605c1.796,1.127,4.106,2.999,6.13,5.543,2.015,2.552,3.31,5.23,3.996,7.236,.694,2.009,.87,3.317,.87,3.317-.007,.001-.033-.077-.076-.227-.055-.205-.113-.422-.177-.658-.139-.574-.393-1.392-.756-2.383-.718-1.982-2.023-4.624-4.021-7.156-2.007-2.523-4.282-4.397-6.047-5.549-.881-.579-1.62-1.013-2.147-1.28-.215-.116-.413-.222-.6-.323-.136-.076-.206-.119-.203-.126Z"/>
      </g>
      <g>
        <g>
          <path class="cls-10" d="M277.015,41.007c.391,5.3-3.109,10.035-6.636,14.011-3.527,3.976-7.451,8.12-8.213,13.38-1.351,9.322,7.775,17.976,5.893,27.205-1.009,4.946-5.058,8.919-5.78,13.916-.698,4.832,1.892,9.562,5.102,13.241,3.21,3.679,6.928,3.141,9.767,7.113,2.991,4.185,7.806,8.478,12.318,10.948,10.228,5.601,22.503-2.503,27.437-3.957"/>
          <path class="cls-10" d="M354.363,62.729c4.715-2.052,5.085-18.948-6.744-20.899-4.745-.783-8.697-3.098-12.686-5.783-3.532-2.377-4.579-8.411-7.57-11.442-7.335-7.436-18.787-10.518-28.863-7.769-10.076,2.749-18.377,11.22-20.919,21.35-1.718,6.846-.545,14.94,4.851,19.489,6.263,5.28,15.548,4.107,23.573,2.465,8.025-1.642,17.108-3.262,23.808,1.45,4.041,2.842,6.357,7.465,8.827,11.743,2.47,4.279,5.57,8.647,10.241,10.255,0,0,3.556,8.358,.653,14.176-2.903,5.818,3.414-4.104,3.414-4.104,0,0,11.517-20.479,1.415-30.93"/>
          <g>
            <g>
              <path class="cls-9" d="M294.448,181.31c-.066-11.03,.004-42.005,0-41.948,0,0-17.522-2.949-21.103-25.826-1.781-11.377-1.168-30.024-.174-45.264,.895-13.718,10.022-30.531,23.69-29.055l42.663,10.884c4.152,.448,7.27,3.999,7.179,8.175h0l-2.597,105.953-49.658,17.083Z"/>
              <g>
                <path class="cls-10" d="M280.432,81.34c-.058,1.549,1.205,2.875,2.822,2.965,1.613,.09,2.971-1.088,3.029-2.638,.058-1.548-1.205-2.877-2.818-2.967-1.616-.091-2.974,1.091-3.032,2.639Z"/>
                <path class="cls-10" d="M277.194,77.98c.363,.383,2.588-1.256,5.745-1.241,3.153-.03,5.465,1.599,5.809,1.213,.168-.171-.201-.862-1.207-1.599-.991-.733-2.683-1.448-4.649-1.444-1.966,.006-3.621,.727-4.573,1.465-.972,.743-1.302,1.434-1.124,1.605Z"/>
              </g>
              <path class="cls-10" d="M308.216,83.01c.364,.383,2.592-1.256,5.746-1.241,3.152-.03,5.466,1.599,5.809,1.213,.168-.171-.197-.861-1.208-1.598-.991-.734-2.682-1.449-4.648-1.445-1.966,.007-3.621,.727-4.574,1.465-.97,.743-1.302,1.434-1.124,1.605Z"/>
              <path class="cls-10" d="M296.711,102.019c.015-.18-1.946-.523-5.124-.937-.806-.085-1.568-.247-1.703-.797-.188-.583,.151-1.451,.543-2.388,.762-1.949,1.56-3.991,2.397-6.131,3.329-8.73,5.741-15.909,5.388-16.04-.352-.131-3.338,6.839-6.666,15.569-.801,2.153-1.568,4.205-2.297,6.169-.307,.915-.834,1.953-.425,3.162,.216,.603,.806,1.041,1.323,1.181,.516,.159,.97,.169,1.368,.193,3.198,.179,5.183,.198,5.196,.019Z"/>
              <path class="cls-7" d="M294.448,139.361s15.383,1.026,30.646-8.102c-.258,.055-8.434,15.898-30.349,13.503l-.297-5.401Z"/>
              <path class="cls-7" d="M297.621,111.129c-.376-1.942,1.908-2.572,3.588-3.616,1.68-1.044,2.646-2.432,4.22-1.234,.899,.684,1.541,1.667,1.945,2.722,.272,.711,.443,1.484,.315,2.234-.155,.912-.735,1.699-1.406,2.336-.949,.9-2.136,1.578-3.426,1.793-1.29,.215-2.683-.063-3.71-.872-1.027-.81-1.633-2.172-1.414-3.461"/>
              <path class="cls-10" d="M305.994,104.222c-.513-.031-.527,3.395-3.465,5.82-2.932,2.433-6.583,2.04-6.611,2.519-.048,.215,.812,.667,2.353,.712,1.512,.055,3.721-.425,5.518-1.909,1.792-1.487,2.566-3.475,2.686-4.88,.134-1.432-.246-2.282-.481-2.262Z"/>
            </g>
            <path class="cls-10" d="M307.748,75.959c.309,.858,3.462,.459,7.163,.913,3.711,.38,6.695,1.471,7.188,.702,.22-.368-.299-1.176-1.504-2.009-1.195-.832-3.103-1.625-5.325-1.877-2.222-.248-4.258,.1-5.609,.646-1.36,.545-2.046,1.217-1.913,1.625Z"/>
            <path class="cls-10" d="M277.634,67.064c.554,.718,2.729-.021,5.344-.051,2.613-.121,4.827,.492,5.339-.256,.224-.364-.123-1.082-1.089-1.763-.952-.678-2.545-1.234-4.342-1.184-1.796,.053-3.354,.7-4.265,1.432-.925,.735-1.23,1.472-.986,1.823Z"/>
          </g>
          <path class="cls-10" d="M349.203,126.608c-6.289,1.268-6.85-1.933-11.549-6.301-4.699-4.368-7.126-11.059-6.32-17.424,.711-5.617,3.739-11.331,1.792-16.648-2.575-7.029-12.427-9.191-15.042-16.205-1.52-4.076-.156-8.845-1.878-12.84-1.619-3.757-5.572-5.92-9.419-7.311-3.847-1.391-7.972-2.351-11.202-4.862-3.23-2.511-5.244-7.249-3.161-10.769,17.061,2.044,33.876,6.13,49.973,12.142,3.732,1.394,7.653,3.07,9.86,6.387,2.335,3.51,2.223,8.046,2.026,12.257-.958,20.535-1.916,41.069-2.875,61.604"/>
        </g>
        <path class="cls-5" d="M363.776,118.933c.014,.01,.098-.086,.25-.284,.141-.205,.396-.486,.631-.915,.517-.829,1.137-2.164,1.507-3.999,.366-1.825,.4-4.191-.367-6.753-.715-2.557-2.496-5.303-5.322-7.158-2.714-1.913-6.246-3.246-8.491-6.29-1.12-1.486-1.594-3.416-1.242-5.37,.306-1.962,1.203-3.886,1.99-5.934,1.749-4.098,1.765-9.217-.294-13.654-1.038-2.206-2.578-4.263-4.64-5.765-2.048-1.549-4.549-2.347-7.015-2.908-2.477-.565-4.947-.893-7.241-1.585-2.287-.684-4.474-1.709-6.064-3.317-1.63-1.588-2.32-3.786-2.63-6-.312-2.212-.478-4.507-1.077-6.649-1.118-4.29-3.298-8.089-6.172-10.819-2.873-2.748-6.393-4.324-9.716-4.82-3.335-.52-6.478,.098-8.84,1.338-2.389,1.216-4.047,2.902-5.114,4.427-1.063,1.545-1.558,2.934-1.789,3.881-.237,.95-.222,1.471-.222,1.471,.148,.062,.179-2.146,2.329-5.123,1.083-1.446,2.728-3.033,5.047-4.153,2.291-1.142,5.29-1.679,8.479-1.14,3.174,.518,6.531,2.07,9.248,4.719,2.726,2.638,4.798,6.304,5.854,10.452,.566,2.072,.711,4.256,1.024,6.559,.297,2.264,1.058,4.774,2.877,6.548,1.763,1.788,4.1,2.866,6.478,3.584,2.403,.726,4.881,1.052,7.306,1.607,2.412,.548,4.762,1.31,6.645,2.734,1.912,1.386,3.356,3.302,4.34,5.375,1.946,4.193,1.972,8.973,.321,12.91-.755,2.014-1.674,3.99-1.997,6.13-.382,2.128,.192,4.392,1.441,5.994,2.495,3.281,6.132,4.558,8.765,6.387,2.738,1.751,4.435,4.285,5.186,6.74,.788,2.445,.817,4.734,.518,6.517-.626,3.619-2.153,5.202-2.002,5.266Z"/>
      </g>
      <g>
        <g>
          <path class="cls-10" d="M334.02,96.208c-5.178,11.918-6.138,25.619-2.672,38.142,1.035,3.741,2.465,7.62,1.581,11.4-.957,4.092-4.378,7.052-6.875,10.433-4.297,5.82-5.972,13.502-4.486,20.582,1.485,7.08,6.106,13.442,12.379,17.044,.661-3.761,4.16-6.325,7.61-7.96,3.45-1.635,7.264-2.847,9.895-5.614,2.632-2.767,3.376-7.84,.317-10.124,8.804-2.3,13.793-12.757,11.94-21.666-1.853-8.909-9.098-15.947-17.338-19.806"/>
          <path class="cls-10" d="M343.408,185.014c-1.575,.863-3.102,1.635-3.296,3.42-.228,2.094,1.78,5.771,2.502,7.75,1.411,3.872,.348,8.527-2.605,11.402-2.953,2.875-7.635,3.813-11.468,2.299,2.817,.216,5.208-2.533,5.458-5.347,.251-2.814-1.114-5.531-2.793-7.803-1.679-2.273-3.713-4.292-5.137-6.733-2.899-4.968-7.204-18.484-3.89-26.055"/>
        </g>
        <path class="cls-5" d="M351.412,170.459c-.01-.015,.176-.172,.541-.456,.367-.281,.898-.707,1.569-1.271,1.333-1.132,3.225-2.845,5.141-5.316,1.904-2.458,3.853-5.719,4.871-9.717,1-3.965,1.073-8.699-.645-13.132-.855-2.209-2.131-4.166-3.618-5.844-1.471-1.693-3.075-3.168-4.579-4.601-1.506-1.432-2.927-2.824-4.104-4.271-1.181-1.449-2.073-2.96-2.69-4.424-1.28-2.925-1.331-5.637-.882-7.35,.228-.86,.514-1.493,.748-1.894,.239-.4,.371-.604,.386-.594,.068,.032-.542,.836-.937,2.534-.377,1.687-.272,4.313,1.022,7.157,.625,1.422,1.517,2.892,2.686,4.297,1.17,1.41,2.587,2.778,4.1,4.197,1.51,1.422,3.132,2.898,4.635,4.615,1.517,1.699,2.841,3.72,3.719,5.991,1.765,4.558,1.67,9.399,.624,13.44-1.066,4.077-3.083,7.367-5.047,9.825-1.977,2.472-3.923,4.156-5.302,5.246-.694,.542-1.248,.944-1.636,1.199-.385,.258-.592,.386-.602,.371Z"/>
      </g>
    </g>
  </g>
</svg>