<svg width="31" height="30" viewBox="0 0 31 30" fill="none" xmlns="http://www.w3.org/2000/svg">
<path d="M30.25 15C30.25 18.9782 28.6696 22.7936 25.8566 25.6066C23.0436 28.4196 19.2282 30 15.25 30C11.2718 30 7.45644 28.4196 4.6434 25.6066C1.83035 22.7936 0.25 18.9782 0.25 15C0.25 11.0218 1.83035 7.20644 4.6434 4.3934C7.45644 1.58035 11.2718 0 15.25 0C19.2282 0 23.0436 1.58035 25.8566 4.3934C28.6696 7.20644 30.25 11.0218 30.25 15ZM15.7881 11.0738C14.3294 11.6813 11.4119 12.9375 7.03938 14.8425C6.33063 15.1237 5.9575 15.4012 5.92375 15.6712C5.8675 16.1269 6.43938 16.3069 7.2175 16.5525L7.54563 16.6556C8.31063 16.905 9.34188 17.1956 9.87625 17.2069C10.3637 17.2181 10.9056 17.0194 11.5037 16.6069C15.5894 13.8488 17.6988 12.4556 17.83 12.4256C17.9237 12.4031 18.055 12.3769 18.1413 12.4556C18.2294 12.5325 18.22 12.6806 18.2106 12.72C18.1544 12.9619 15.91 15.0469 14.7494 16.1269C14.3875 16.4644 14.1306 16.7025 14.0781 16.7569C13.9625 16.875 13.845 16.9913 13.7256 17.1056C13.0131 17.7919 12.4806 18.3056 13.7537 19.1456C14.3669 19.5506 14.8581 19.8825 15.3475 20.2162C15.88 20.58 16.4125 20.9419 17.1025 21.3956C17.2769 21.5081 17.4456 21.63 17.6088 21.7463C18.2294 22.1887 18.79 22.5863 19.4781 22.5225C19.8794 22.485 20.2938 22.11 20.5037 20.985C21.0006 18.3281 21.9775 12.5737 22.2025 10.2019C22.2162 10.0047 22.2081 9.80662 22.1781 9.61125C22.1605 9.4536 22.0842 9.30836 21.9644 9.20438C21.7938 9.08661 21.5904 9.02559 21.3831 9.03C20.8206 9.03938 19.9525 9.34125 15.7881 11.0738Z" fill="#E2EBF2"/>
</svg>
