<svg width="31" height="30" viewBox="0 0 31 30" fill="none" xmlns="http://www.w3.org/2000/svg">
<path d="M15.25 0C6.96562 0 0.25 6.71562 0.25 15C0.25 23.2844 6.96562 30 15.25 30C23.5344 30 30.25 23.2844 30.25 15C30.25 6.71562 23.5344 0 15.25 0ZM21.0187 16.9234C21.0187 16.9234 22.3453 18.2328 22.6719 18.8406C22.6812 18.8531 22.6859 18.8656 22.6891 18.8719C22.8219 19.0953 22.8531 19.2687 22.7875 19.3984C22.6781 19.6141 22.3031 19.7203 22.175 19.7297H19.8312C19.6687 19.7297 19.3281 19.6875 18.9156 19.4031C18.5984 19.1812 18.2859 18.8172 17.9812 18.4625C17.5266 17.9344 17.1328 17.4781 16.7359 17.4781C16.6855 17.478 16.6354 17.4859 16.5875 17.5016C16.2875 17.5984 15.9031 18.0266 15.9031 19.1672C15.9031 19.5234 15.6219 19.7281 15.4234 19.7281H14.35C13.9844 19.7281 12.0797 19.6 10.3922 17.8203C8.32656 15.6406 6.46719 11.2687 6.45156 11.2281C6.33437 10.9453 6.57656 10.7937 6.84062 10.7937H9.20781C9.52344 10.7937 9.62656 10.9859 9.69844 11.1562C9.78281 11.3547 10.0922 12.1437 10.6 13.0312C11.4234 14.4781 11.9281 15.0656 12.3328 15.0656C12.4087 15.0647 12.4832 15.0454 12.55 15.0094C13.0781 14.7156 12.9797 12.8328 12.9562 12.4422C12.9562 12.3687 12.9547 11.6 12.6844 11.2312C12.4906 10.9641 12.1609 10.8625 11.9609 10.825C12.0419 10.7133 12.1485 10.6227 12.2719 10.5609C12.6344 10.3797 13.2875 10.3531 13.9359 10.3531H14.2969C15 10.3625 15.1813 10.4078 15.4359 10.4719C15.9516 10.5953 15.9625 10.9281 15.9172 12.0672C15.9031 12.3906 15.8891 12.7562 15.8891 13.1875C15.8891 13.2812 15.8844 13.3812 15.8844 13.4875C15.8687 14.0672 15.85 14.725 16.2594 14.9953C16.3128 15.0288 16.3745 15.0467 16.4375 15.0469C16.5797 15.0469 17.0078 15.0469 18.1672 13.0578C18.5247 12.4176 18.8355 11.7523 19.0969 11.0672C19.1203 11.0266 19.1891 10.9016 19.2703 10.8531C19.3303 10.8226 19.3968 10.807 19.4641 10.8078H22.2469C22.55 10.8078 22.7578 10.8531 22.7969 10.9703C22.8656 11.1562 22.7844 11.7234 21.5141 13.4437L20.9469 14.1922C19.7953 15.7016 19.7953 15.7781 21.0187 16.9234Z" fill="#E2EBF2"/>
</svg>
