<svg width="31" height="30" viewBox="0 0 31 30" fill="none" xmlns="http://www.w3.org/2000/svg">
<path d="M30.2253 14.1153C29.7154 5.41555 21.8114 -1.2893 12.7076 0.210671C6.43842 1.24565 1.41408 6.33052 0.439204 12.6003C-0.130722 16.2303 0.61921 19.6652 2.254 22.5002L0.919156 27.465C0.619195 28.59 1.65403 29.61 2.76388 29.295L7.65326 27.945C9.87297 29.25 12.4676 30 15.2423 30C23.7012 30 30.7203 22.5451 30.2253 14.1153ZM22.5763 20.5802C22.4413 20.8502 22.2764 21.1052 22.0664 21.3452C21.6914 21.7502 21.2865 22.0502 20.8366 22.2302C20.3866 22.4252 19.8917 22.5152 19.3667 22.5152C18.6018 22.5152 17.777 22.3353 16.9221 21.9603C16.0522 21.5853 15.1973 21.0902 14.3424 20.4752C13.4725 19.8452 12.6626 19.1402 11.8827 18.3752C11.1028 17.5952 10.4129 16.7703 9.78295 15.9153C9.16803 15.0603 8.67313 14.2053 8.31317 13.3503C7.95322 12.4953 7.77328 11.6704 7.77328 10.8905C7.77328 10.3805 7.86325 9.88546 8.04322 9.43547C8.2232 8.97048 8.50819 8.5505 8.91314 8.17551C9.39308 7.69552 9.91798 7.47053 10.4729 7.47053C10.6829 7.47053 10.8928 7.51551 11.0878 7.60551C11.2828 7.69551 11.4628 7.8305 11.5978 8.0255L13.3375 10.4854C13.4725 10.6804 13.5775 10.8454 13.6375 11.0104C13.7125 11.1754 13.7425 11.3254 13.7425 11.4754C13.7425 11.6554 13.6825 11.8354 13.5775 12.0154C13.4725 12.1954 13.3375 12.3754 13.1576 12.5553L12.5876 13.1553C12.4976 13.2453 12.4676 13.3353 12.4676 13.4553C12.4676 13.5153 12.4826 13.5753 12.4976 13.6353C12.5276 13.6953 12.5426 13.7403 12.5576 13.7853C12.6926 14.0403 12.9326 14.3553 13.2625 14.7453C13.6075 15.1353 13.9675 15.5403 14.3574 15.9303C14.7623 16.3353 15.1523 16.6953 15.5572 17.0403C15.9472 17.3703 16.2771 17.5952 16.5321 17.7302C16.5771 17.7452 16.6221 17.7752 16.6671 17.7902C16.7271 17.8202 16.7871 17.8202 16.8621 17.8202C16.9971 17.8202 17.087 17.7752 17.177 17.6852L17.747 17.1153C17.9419 16.9203 18.1219 16.7853 18.2869 16.6953C18.4669 16.5903 18.6318 16.5303 18.8268 16.5303C18.9768 16.5303 19.1268 16.5603 19.2918 16.6353C19.4567 16.7103 19.6367 16.8003 19.8167 16.9353L22.3064 18.7052C22.5013 18.8402 22.6363 19.0052 22.7263 19.1852C22.8013 19.3802 22.8463 19.5602 22.8463 19.7702C22.7563 20.0252 22.6963 20.3102 22.5763 20.5802Z" fill="#E2EBF2"/>
</svg>
